STARTFONT 2.1
COMMENT
COMMENT Converted from OpenType font "MultiTypeGamerChess-Regular.otf" by "otf2bdf 3.0".
COMMENT
FONT -FreeType-MultiType Gamer Chess-Medium-R-Normal--19-140-100-100-P-121-ISO10646-1
SIZE 14 100 100
FONTBOUNDINGBOX 51 34 -17 -6
STARTPROPERTIES 19
FOUNDRY "FreeType"
FAMILY_NAME "MultiType Gamer Chess"
WEIGHT_NAME "Medium"
SLANT "R"
SETWIDTH_NAME "Normal"
ADD_STYLE_NAME ""
PIXEL_SIZE 19
POINT_SIZE 140
RESOLUTION_X 100
RESOLUTION_Y 100
SPACING "P"
AVERAGE_WIDTH 121
CHARSET_REGISTRY "ISO10646"
CHARSET_ENCODING "1"
FONT_ASCENT 20
FONT_DESCENT 1
COPYRIGHT "-FreeType-MultiType Gamer Chess-Medium-R-Normal--19-140-100-100-P-121-ISO10646-1"
_OTF_FONTFILE "MultiTypeGamerChess-Regular.otf"
_OTF_PSNAME "MultiTypeGamer-Chess"
ENDPROPERTIES
CHARS 758
STARTCHAR 0020
ENCODING 32
SWIDTH 257 0
DWIDTH 5 0
BBX 0 0 0 0
BITMAP
ENDCHAR
STARTCHAR 0021
ENCODING 33
SWIDTH 257 0
DWIDTH 5 0
BBX 3 15 1 0
BITMAP
A0
40
A0
40
A0
40
A0
40
A0
40
00
00
A0
40
A0
ENDCHAR
STARTCHAR 0022
ENCODING 34
SWIDTH 411 0
DWIDTH 8 0
BBX 8 5 0 12
BITMAP
A5
42
A5
42
A5
ENDCHAR
STARTCHAR 0023
ENCODING 35
SWIDTH 874 0
DWIDTH 17 0
BBX 15 19 1 -2
BITMAP
1450
0820
1450
0820
1450
AAAA
5554
AAAA
1450
0820
1450
AAAA
5554
AAAA
1450
0820
1450
0820
1450
ENDCHAR
STARTCHAR 0024
ENCODING 36
SWIDTH 668 0
DWIDTH 13 0
BBX 11 19 1 -2
BITMAP
0A00
0400
2AA0
5540
AAA0
4000
A000
4000
AA80
5540
2AA0
0040
00A0
0040
AAA0
5540
AA80
0400
0A00
ENDCHAR
STARTCHAR 0025
ENCODING 37
SWIDTH 1285 0
DWIDTH 25 0
BBX 23 15 1 0
BITMAP
2A0A00
550400
AA8A00
411400
A28800
411400
AAA8A8
551154
2A2AAA
005104
00228A
005104
00A2AA
004154
00A0A8
ENDCHAR
STARTCHAR 0026
ENCODING 38
SWIDTH 771 0
DWIDTH 15 0
BBX 13 15 1 0
BITMAP
2A80
5500
AA80
4000
A0A0
5040
2AA8
1550
2AA8
5040
A0A0
4040
AAA8
5550
2AA8
ENDCHAR
STARTCHAR 0027
ENCODING 39
SWIDTH 154 0
DWIDTH 3 0
BBX 3 5 0 12
BITMAP
A0
40
A0
40
A0
ENDCHAR
STARTCHAR 0028
ENCODING 40
SWIDTH 257 0
DWIDTH 5 0
BBX 5 22 1 -4
BITMAP
78
A0
40
A0
40
A0
40
A0
40
A0
40
A0
40
A0
40
A0
40
A0
40
A0
50
28
ENDCHAR
STARTCHAR 0029
ENCODING 41
SWIDTH 257 0
DWIDTH 5 0
BBX 4 22 0 -4
BITMAP
E0
50
20
50
20
50
20
50
20
50
20
50
20
50
20
50
20
50
20
50
A0
40
ENDCHAR
STARTCHAR 002A
ENCODING 42
SWIDTH 874 0
DWIDTH 17 0
BBX 15 13 1 4
BITMAP
A28A
4104
A28A
5114
2AA8
1550
0AA0
1550
2AA8
5114
A28A
4104
A28A
ENDCHAR
STARTCHAR 002B
ENCODING 43
SWIDTH 668 0
DWIDTH 13 0
BBX 11 11 1 2
BITMAP
0A00
0400
0A00
0400
AAA0
5540
AAA0
0400
0A00
0400
0A00
ENDCHAR
STARTCHAR 002C
ENCODING 44
SWIDTH 154 0
DWIDTH 3 0
BBX 3 5 0 -2
BITMAP
A0
40
A0
40
80
ENDCHAR
STARTCHAR 002D
ENCODING 45
SWIDTH 462 0
DWIDTH 9 0
BBX 9 3 0 6
BITMAP
AA80
5500
AA80
ENDCHAR
STARTCHAR 002E
ENCODING 46
SWIDTH 154 0
DWIDTH 3 0
BBX 3 3 0 0
BITMAP
A0
40
A0
ENDCHAR
STARTCHAR 002F
ENCODING 47
SWIDTH 360 0
DWIDTH 7 0
BBX 7 15 0 0
BITMAP
0A
04
0A
14
08
14
28
10
28
50
20
50
A0
40
A0
ENDCHAR
STARTCHAR 0030
ENCODING 48
SWIDTH 668 0
DWIDTH 13 0
BBX 11 15 1 0
BITMAP
0A00
1500
2A80
5140
A0A0
4040
A0A0
4040
A0A0
4040
A0A0
5140
2A80
1500
0A00
ENDCHAR
STARTCHAR 0031
ENCODING 49
SWIDTH 360 0
DWIDTH 7 0
BBX 5 15 1 0
BITMAP
A8
50
A8
10
28
10
28
10
28
10
28
10
28
10
28
ENDCHAR
STARTCHAR 0032
ENCODING 50
SWIDTH 668 0
DWIDTH 13 0
BBX 11 15 1 0
BITMAP
2A80
5540
AAA0
4040
A0A0
0140
0280
0500
0A00
1400
2800
5000
AAA0
5540
AAA0
ENDCHAR
STARTCHAR 0033
ENCODING 51
SWIDTH 668 0
DWIDTH 13 0
BBX 11 15 1 0
BITMAP
2A80
5540
AAA0
4040
A0A0
0140
0A80
0540
0AA0
0040
A0A0
4040
AAA0
5540
2A80
ENDCHAR
STARTCHAR 0034
ENCODING 52
SWIDTH 668 0
DWIDTH 13 0
BBX 11 15 1 0
BITMAP
0280
0500
0A80
1500
2A80
5100
A280
4100
AAA0
5540
AAA0
0100
0280
0100
0280
ENDCHAR
STARTCHAR 0035
ENCODING 53
SWIDTH 668 0
DWIDTH 13 0
BBX 11 15 1 0
BITMAP
AAA0
5540
AAA0
4000
A000
4000
AA80
5540
AAA0
0040
00A0
0040
AAA0
5540
AA80
ENDCHAR
STARTCHAR 0036
ENCODING 54
SWIDTH 668 0
DWIDTH 13 0
BBX 11 15 1 0
BITMAP
0AA0
1540
2AA0
5000
A000
4000
AA80
5540
AAA0
4040
A0A0
4040
AAA0
5540
2A80
ENDCHAR
STARTCHAR 0037
ENCODING 55
SWIDTH 668 0
DWIDTH 13 0
BBX 11 15 1 0
BITMAP
AAA0
5540
AAA0
0040
00A0
0140
0280
0500
0A00
1400
2800
1000
2800
1000
2800
ENDCHAR
STARTCHAR 0038
ENCODING 56
SWIDTH 668 0
DWIDTH 13 0
BBX 11 15 1 0
BITMAP
2A80
5540
AAA0
4040
A0A0
5140
2A80
1500
2A80
5140
A0A0
4040
AAA0
5540
2A80
ENDCHAR
STARTCHAR 0039
ENCODING 57
SWIDTH 668 0
DWIDTH 13 0
BBX 11 15 1 0
BITMAP
2A80
5540
AAA0
4040
A0A0
4040
AAA0
5540
2AA0
0040
00A0
0140
AA80
5500
AA00
ENDCHAR
STARTCHAR 003A
ENCODING 58
SWIDTH 154 0
DWIDTH 3 0
BBX 3 9 0 3
BITMAP
A0
40
A0
00
00
00
A0
40
A0
ENDCHAR
STARTCHAR 003B
ENCODING 59
SWIDTH 154 0
DWIDTH 3 0
BBX 3 11 0 -2
BITMAP
A0
40
A0
00
00
00
A0
40
A0
40
80
ENDCHAR
STARTCHAR 003C
ENCODING 60
SWIDTH 617 0
DWIDTH 12 0
BBX 10 15 0 0
BITMAP
0140
0280
0500
0A00
1400
2800
5000
A000
5000
2800
1400
0A00
0500
0280
0140
ENDCHAR
STARTCHAR 003D
ENCODING 61
SWIDTH 668 0
DWIDTH 13 0
BBX 11 9 1 2
BITMAP
AAA0
5540
AAA0
0000
0000
0000
AAA0
5540
AAA0
ENDCHAR
STARTCHAR 003E
ENCODING 62
SWIDTH 617 0
DWIDTH 12 0
BBX 10 15 2 0
BITMAP
A000
5000
2800
1400
0A00
0500
0280
0140
0280
0500
0A00
1400
2800
5000
A000
ENDCHAR
STARTCHAR 003F
ENCODING 63
SWIDTH 668 0
DWIDTH 13 0
BBX 11 15 1 0
BITMAP
2A80
5540
AAA0
4040
A0A0
0040
02A0
0540
0A80
0400
0A00
0000
0A00
0400
0A00
ENDCHAR
STARTCHAR 0040
ENCODING 64
SWIDTH 1182 0
DWIDTH 23 0
BBX 21 20 1 -2
BITMAP
1FFFC0
2AAAA0
500050
A00028
400010
A0AA28
415410
A2AA28
410410
A28A28
410410
A2AAA8
415550
A0AAA0
400000
A00000
500000
2AAAA8
155550
0AAAA8
ENDCHAR
STARTCHAR 0041
ENCODING 65
SWIDTH 668 0
DWIDTH 13 0
BBX 11 15 1 0
BITMAP
0A00
1500
2A80
5140
A0A0
4040
A0A0
4040
AAA0
5540
AAA0
4040
A0A0
4040
A0A0
ENDCHAR
STARTCHAR 0042
ENCODING 66
SWIDTH 668 0
DWIDTH 13 0
BBX 11 15 1 0
BITMAP
AA80
5540
AAA0
4040
A0A0
4140
AA80
5540
AAA0
4040
A0A0
4040
AAA0
5540
AA80
ENDCHAR
STARTCHAR 0043
ENCODING 67
SWIDTH 771 0
DWIDTH 15 0
BBX 13 15 1 0
BITMAP
0A80
1540
2AA0
5050
A028
4010
A028
4000
A000
4000
A028
5050
2AA0
1540
0A80
ENDCHAR
STARTCHAR 0044
ENCODING 68
SWIDTH 771 0
DWIDTH 15 0
BBX 13 15 1 0
BITMAP
AA80
5540
AAA0
4050
A028
4010
A028
4010
A028
4010
A028
4050
AAA0
5540
AA80
ENDCHAR
STARTCHAR 0045
ENCODING 69
SWIDTH 668 0
DWIDTH 13 0
BBX 11 15 1 0
BITMAP
0AA0
1540
2AA0
5000
A000
4000
AA80
5500
AA80
4000
A000
5000
2AA0
1540
0AA0
ENDCHAR
STARTCHAR 0046
ENCODING 70
SWIDTH 668 0
DWIDTH 13 0
BBX 11 15 1 0
BITMAP
0AA0
1540
2AA0
5000
A000
4000
AA80
5500
AA80
4000
A000
4000
A000
4000
A000
ENDCHAR
STARTCHAR 0047
ENCODING 71
SWIDTH 771 0
DWIDTH 15 0
BBX 13 15 1 0
BITMAP
0AA8
1550
2AA8
5000
A000
4000
A2A8
4150
A2A8
4010
A028
5010
2AA8
1550
0AA8
ENDCHAR
STARTCHAR 0048
ENCODING 72
SWIDTH 771 0
DWIDTH 15 0
BBX 13 15 1 0
BITMAP
A028
4010
A028
4010
A028
4010
AAA8
5550
AAA8
4010
A028
4010
A028
4010
A028
ENDCHAR
STARTCHAR 0049
ENCODING 73
SWIDTH 462 0
DWIDTH 9 0
BBX 7 15 1 0
BITMAP
AA
54
AA
10
28
10
28
10
28
10
28
10
AA
54
AA
ENDCHAR
STARTCHAR 004A
ENCODING 74
SWIDTH 565 0
DWIDTH 11 0
BBX 9 15 1 0
BITMAP
AA80
5500
AA80
0100
0280
0100
0280
0100
0280
0100
0280
0500
AA00
5400
A800
ENDCHAR
STARTCHAR 004B
ENCODING 75
SWIDTH 668 0
DWIDTH 13 0
BBX 11 15 1 0
BITMAP
A0A0
4040
A0A0
4140
A280
4500
AA00
5400
AA00
4500
A280
4140
A0A0
4040
A0A0
ENDCHAR
STARTCHAR 004C
ENCODING 76
SWIDTH 668 0
DWIDTH 13 0
BBX 11 15 1 0
BITMAP
A000
4000
A000
4000
A000
4000
A000
4000
A000
4000
A000
4000
AAA0
5540
2AA0
ENDCHAR
STARTCHAR 004D
ENCODING 77
SWIDTH 977 0
DWIDTH 19 0
BBX 17 15 1 0
BITMAP
A00280
500500
A80A80
541500
AA2A80
455100
A2A280
414100
A08280
400100
A00280
400100
A00280
400100
A00280
ENDCHAR
STARTCHAR 004E
ENCODING 78
SWIDTH 771 0
DWIDTH 15 0
BBX 13 15 1 0
BITMAP
A028
5010
A828
5410
AA28
4510
A2A8
4150
A0A8
4050
A028
4010
A028
4010
A028
ENDCHAR
STARTCHAR 004F
ENCODING 79
SWIDTH 771 0
DWIDTH 15 0
BBX 13 15 1 0
BITMAP
0A80
1540
2AA0
5050
A028
4010
A028
4010
A028
4010
A028
5050
2AA0
1540
0A80
ENDCHAR
STARTCHAR 0050
ENCODING 80
SWIDTH 668 0
DWIDTH 13 0
BBX 11 15 1 0
BITMAP
AA00
5500
AA80
4140
A0A0
4040
A0A0
4040
A0A0
4140
AA80
5500
AA00
4000
A000
ENDCHAR
STARTCHAR 0051
ENCODING 81
SWIDTH 771 0
DWIDTH 15 0
BBX 13 17 1 -2
BITMAP
0A80
1540
2AA0
5050
A028
4010
A028
4010
A028
4010
A028
5050
2AA0
1540
0A80
0140
00A0
ENDCHAR
STARTCHAR 0052
ENCODING 82
SWIDTH 668 0
DWIDTH 13 0
BBX 11 15 1 0
BITMAP
AA00
5500
AA80
4140
A0A0
4040
A0A0
4040
A0A0
4140
AA80
5500
AA80
4140
A0A0
ENDCHAR
STARTCHAR 0053
ENCODING 83
SWIDTH 668 0
DWIDTH 13 0
BBX 11 15 1 0
BITMAP
2A80
5540
AAA0
4040
A0A0
4000
AA80
5540
2AA0
0040
A0A0
4040
AAA0
5540
2A80
ENDCHAR
STARTCHAR 0054
ENCODING 84
SWIDTH 668 0
DWIDTH 13 0
BBX 11 15 1 0
BITMAP
AAA0
5540
AAA0
0400
0A00
0400
0A00
0400
0A00
0400
0A00
0400
0A00
0400
0A00
ENDCHAR
STARTCHAR 0055
ENCODING 85
SWIDTH 771 0
DWIDTH 15 0
BBX 13 15 1 0
BITMAP
A028
4010
A028
4010
A028
4010
A028
4010
A028
4010
A028
5050
2AA0
1540
0A80
ENDCHAR
STARTCHAR 0056
ENCODING 86
SWIDTH 668 0
DWIDTH 13 0
BBX 11 15 1 0
BITMAP
A0A0
4040
A0A0
4040
A0A0
4040
A0A0
4040
A0A0
4040
A0A0
5140
2A80
1500
0A00
ENDCHAR
STARTCHAR 0057
ENCODING 87
SWIDTH 1080 0
DWIDTH 21 0
BBX 19 15 1 0
BITMAP
A0A0A0
404040
A0A0A0
404040
A0A0A0
404040
A0A0A0
404040
A0A0A0
404040
A0A0A0
515140
2AAA80
151500
0A0A00
ENDCHAR
STARTCHAR 0058
ENCODING 88
SWIDTH 771 0
DWIDTH 15 0
BBX 13 15 1 0
BITMAP
A028
4010
A028
4010
A028
5050
2AA0
1540
2AA0
5050
A028
4010
A028
4010
A028
ENDCHAR
STARTCHAR 0059
ENCODING 89
SWIDTH 668 0
DWIDTH 13 0
BBX 11 15 1 0
BITMAP
A0A0
4040
A0A0
4040
A0A0
4040
A0A0
5140
2A80
1500
0A00
0400
0A00
0400
0A00
ENDCHAR
STARTCHAR 005A
ENCODING 90
SWIDTH 668 0
DWIDTH 13 0
BBX 11 15 1 0
BITMAP
AAA0
5540
AAA0
0140
0280
0500
0A00
1400
2800
5000
A000
4000
AAA0
5540
AAA0
ENDCHAR
STARTCHAR 005B
ENCODING 91
SWIDTH 308 0
DWIDTH 6 0
BBX 5 22 1 -4
BITMAP
F8
A8
40
A0
40
A0
40
A0
40
A0
40
A0
40
A0
40
A0
40
A0
40
A8
50
A8
ENDCHAR
STARTCHAR 005C
ENCODING 92
SWIDTH 360 0
DWIDTH 7 0
BBX 7 15 0 0
BITMAP
A0
40
A0
50
20
50
28
10
28
14
08
14
0A
04
0A
ENDCHAR
STARTCHAR 005D
ENCODING 93
SWIDTH 308 0
DWIDTH 6 0
BBX 5 22 0 -4
BITMAP
F8
A8
10
28
10
28
10
28
10
28
10
28
10
28
10
28
10
28
10
A8
50
A8
ENDCHAR
STARTCHAR 005F
ENCODING 95
SWIDTH 771 0
DWIDTH 15 0
BBX 15 3 0 -2
BITMAP
AAAA
5554
AAAA
ENDCHAR
STARTCHAR 0060
ENCODING 96
SWIDTH 308 0
DWIDTH 6 0
BBX 6 4 -1 16
BITMAP
C0
20
78
14
ENDCHAR
STARTCHAR 0061
ENCODING 97
SWIDTH 668 0
DWIDTH 13 0
BBX 11 15 1 0
BITMAP
2A80
5540
AAA0
4040
A0A0
4040
A0A0
4040
AAA0
5540
AAA0
4040
A0A0
4040
A0A0
ENDCHAR
STARTCHAR 0062
ENCODING 98
SWIDTH 668 0
DWIDTH 13 0
BBX 11 15 1 0
BITMAP
AA80
5540
AAA0
4040
A0A0
4140
AA80
5500
AA80
4140
A0A0
4040
AAA0
5540
AA80
ENDCHAR
STARTCHAR 0063
ENCODING 99
SWIDTH 668 0
DWIDTH 13 0
BBX 11 15 1 0
BITMAP
2A80
5540
AAA0
4040
A0A0
4040
A0A0
4000
A000
4000
A0A0
4040
AAA0
5540
2A80
ENDCHAR
STARTCHAR 0064
ENCODING 100
SWIDTH 668 0
DWIDTH 13 0
BBX 11 15 1 0
BITMAP
AA80
5540
AAA0
4040
A0A0
4040
A0A0
4040
A0A0
4040
A0A0
4040
AAA0
5540
AA80
ENDCHAR
STARTCHAR 0065
ENCODING 101
SWIDTH 668 0
DWIDTH 13 0
BBX 11 15 1 0
BITMAP
2AA0
5540
AAA0
4000
A000
4000
AA80
5500
AA80
4000
A000
4000
AAA0
5540
2AA0
ENDCHAR
STARTCHAR 0066
ENCODING 102
SWIDTH 668 0
DWIDTH 13 0
BBX 11 15 1 0
BITMAP
2AA0
5540
AAA0
4000
A000
4000
AA80
5500
AA80
4000
A000
4000
A000
4000
A000
ENDCHAR
STARTCHAR 0067
ENCODING 103
SWIDTH 668 0
DWIDTH 13 0
BBX 11 15 1 0
BITMAP
2AA0
5540
AAA0
4000
A000
4000
A2A0
4140
A2A0
4040
A0A0
4040
AAA0
5540
2A80
ENDCHAR
STARTCHAR 0068
ENCODING 104
SWIDTH 668 0
DWIDTH 13 0
BBX 11 15 1 0
BITMAP
A0A0
4040
A0A0
4040
A0A0
4040
AAA0
5540
AAA0
4040
A0A0
4040
A0A0
4040
A0A0
ENDCHAR
STARTCHAR 0069
ENCODING 105
SWIDTH 257 0
DWIDTH 5 0
BBX 3 15 1 0
BITMAP
A0
40
A0
40
A0
40
A0
40
A0
40
A0
40
A0
40
A0
ENDCHAR
STARTCHAR 006A
ENCODING 106
SWIDTH 462 0
DWIDTH 9 0
BBX 7 15 1 0
BITMAP
0A
04
0A
04
0A
04
0A
04
0A
04
0A
04
AA
54
A8
ENDCHAR
STARTCHAR 006B
ENCODING 107
SWIDTH 668 0
DWIDTH 13 0
BBX 11 15 1 0
BITMAP
A0A0
4040
A0A0
4040
A0A0
4140
AA80
5500
AA80
4140
A0A0
4040
A0A0
4040
A0A0
ENDCHAR
STARTCHAR 006C
ENCODING 108
SWIDTH 565 0
DWIDTH 11 0
BBX 9 15 1 0
BITMAP
A000
4000
A000
4000
A000
4000
A000
4000
A000
4000
A000
4000
AA80
5500
2A80
ENDCHAR
STARTCHAR 006D
ENCODING 109
SWIDTH 874 0
DWIDTH 17 0
BBX 15 15 1 0
BITMAP
A00A
5014
A82A
5454
AAAA
4544
A28A
4104
A00A
4004
A00A
4004
A00A
4004
A00A
ENDCHAR
STARTCHAR 006E
ENCODING 110
SWIDTH 668 0
DWIDTH 13 0
BBX 11 15 1 0
BITMAP
A0A0
5040
A8A0
5440
AAA0
4540
A2A0
4140
A0A0
4040
A0A0
4040
A0A0
4040
A0A0
ENDCHAR
STARTCHAR 006F
ENCODING 111
SWIDTH 668 0
DWIDTH 13 0
BBX 11 15 1 0
BITMAP
2A80
5540
AAA0
4040
A0A0
4040
A0A0
4040
A0A0
4040
A0A0
4040
AAA0
5540
2A80
ENDCHAR
STARTCHAR 0070
ENCODING 112
SWIDTH 668 0
DWIDTH 13 0
BBX 11 15 1 0
BITMAP
AA80
5540
AAA0
4040
A0A0
4040
A0A0
4040
AAA0
5540
AA80
4000
A000
4000
A000
ENDCHAR
STARTCHAR 0071
ENCODING 113
SWIDTH 668 0
DWIDTH 13 0
BBX 11 17 1 -2
BITMAP
2A80
5540
AAA0
4040
A0A0
4040
A0A0
4040
A0A0
4040
A0A0
4040
AAA0
5540
2A80
0140
00A0
ENDCHAR
STARTCHAR 0072
ENCODING 114
SWIDTH 668 0
DWIDTH 13 0
BBX 11 15 1 0
BITMAP
AA80
5540
AAA0
4040
A0A0
4040
A0A0
4040
AAA0
5540
AA80
4140
A0A0
4040
A0A0
ENDCHAR
STARTCHAR 0073
ENCODING 115
SWIDTH 668 0
DWIDTH 13 0
BBX 11 15 1 0
BITMAP
2A80
5540
AAA0
4040
A0A0
4000
AA80
5540
2AA0
0040
A0A0
4040
AAA0
5540
2A80
ENDCHAR
STARTCHAR 0074
ENCODING 116
SWIDTH 668 0
DWIDTH 13 0
BBX 11 15 1 0
BITMAP
AAA0
5540
AAA0
0400
0A00
0400
0A00
0400
0A00
0400
0A00
0400
0A00
0400
0A00
ENDCHAR
STARTCHAR 0075
ENCODING 117
SWIDTH 668 0
DWIDTH 13 0
BBX 11 15 1 0
BITMAP
A0A0
4040
A0A0
4040
A0A0
4040
A0A0
4040
A0A0
4040
A0A0
4040
AAA0
5540
2A80
ENDCHAR
STARTCHAR 0076
ENCODING 118
SWIDTH 668 0
DWIDTH 13 0
BBX 11 15 1 0
BITMAP
A0A0
4040
A0A0
4040
A0A0
4040
A0A0
4040
A0A0
4040
A0A0
5140
2A80
1500
0A00
ENDCHAR
STARTCHAR 0077
ENCODING 119
SWIDTH 1080 0
DWIDTH 21 0
BBX 19 15 1 0
BITMAP
A0A0A0
404040
A0A0A0
404040
A0A0A0
404040
A0A0A0
404040
A0A0A0
404040
A0A0A0
415040
AAAAA0
551540
2A0A80
ENDCHAR
STARTCHAR 0078
ENCODING 120
SWIDTH 668 0
DWIDTH 13 0
BBX 11 15 1 0
BITMAP
A0A0
4040
A0A0
4040
A0A0
5140
2A80
1500
2A80
5140
A0A0
4040
A0A0
4040
A0A0
ENDCHAR
STARTCHAR 0079
ENCODING 121
SWIDTH 668 0
DWIDTH 13 0
BBX 11 15 1 0
BITMAP
A0A0
4040
A0A0
4040
A0A0
4040
A0A0
4040
AAA0
5540
2A80
0400
0A00
0400
0A00
ENDCHAR
STARTCHAR 007A
ENCODING 122
SWIDTH 668 0
DWIDTH 13 0
BBX 11 15 1 0
BITMAP
AAA0
5540
AAA0
0040
00A0
0040
2AA0
5540
AA80
4000
A000
4000
AAA0
5540
AAA0
ENDCHAR
STARTCHAR 007B
ENCODING 123
SWIDTH 360 0
DWIDTH 7 0
BBX 8 22 0 -4
BITMAP
0F
14
08
14
08
14
08
14
28
50
A0
50
28
14
08
14
08
14
08
14
0A
05
ENDCHAR
STARTCHAR 007C
ENCODING 124
SWIDTH 257 0
DWIDTH 5 0
BBX 3 19 1 -2
BITMAP
A0
40
A0
40
A0
40
A0
40
A0
40
A0
40
A0
40
A0
40
A0
40
A0
ENDCHAR
STARTCHAR 007D
ENCODING 125
SWIDTH 360 0
DWIDTH 7 0
BBX 7 22 0 -4
BITMAP
E0
50
20
50
20
50
20
50
28
14
0A
14
28
50
20
50
20
50
20
50
A0
40
ENDCHAR
STARTCHAR 00A1
ENCODING 161
SWIDTH 257 0
DWIDTH 5 0
BBX 3 15 1 0
BITMAP
A0
40
A0
00
00
40
A0
40
A0
40
A0
40
A0
40
A0
ENDCHAR
STARTCHAR 00A2
ENCODING 162
SWIDTH 668 0
DWIDTH 13 0
BBX 11 19 1 -2
BITMAP
0A00
0400
2A80
5540
AAA0
4040
A0A0
4040
A0A0
4000
A000
4000
A0A0
4040
AAA0
5540
2A80
0400
0A00
ENDCHAR
STARTCHAR 00A3
ENCODING 163
SWIDTH 668 0
DWIDTH 13 0
BBX 11 17 1 0
BITMAP
0A80
1540
2AA0
1040
28A0
1000
2800
1000
AA80
5500
AA80
1000
2800
1000
AAA0
5540
AAA0
ENDCHAR
STARTCHAR 00A4
ENCODING 164
SWIDTH 771 0
DWIDTH 15 0
BBX 13 13 1 4
BITMAP
2800
1000
2AA8
1550
2AA8
1040
28A0
1040
AAA0
5540
AAA0
0040
00A0
ENDCHAR
STARTCHAR 00A5
ENCODING 165
SWIDTH 668 0
DWIDTH 13 0
BBX 11 20 1 -2
BITMAP
E0E0
A0A0
4040
A0A0
5140
2A80
1500
0A00
0400
AAA0
5540
AAA0
0400
0A00
0400
AAA0
5540
AAA0
0400
0A00
ENDCHAR
STARTCHAR 00A6
ENCODING 166
SWIDTH 257 0
DWIDTH 5 0
BBX 3 19 1 -2
BITMAP
A0
40
A0
40
A0
40
A0
00
00
00
00
00
A0
40
A0
40
A0
40
A0
ENDCHAR
STARTCHAR 00A7
ENCODING 167
SWIDTH 668 0
DWIDTH 13 0
BBX 11 22 1 -4
BITMAP
1FE0
2AA0
5000
A000
4000
AA00
5500
AA80
4140
A0A0
4040
A0A0
5040
2AA0
1540
0AA0
0040
00A0
0140
AA80
5500
AA00
ENDCHAR
STARTCHAR 00A8
ENCODING 168
SWIDTH 360 0
DWIDTH 7 0
BBX 7 2 0 16
BITMAP
EE
AA
ENDCHAR
STARTCHAR 00AB
ENCODING 171
SWIDTH 822 0
DWIDTH 16 0
BBX 14 11 0 2
BITMAP
0514
0A28
1450
28A0
5140
A280
5140
28A0
1450
0A28
0514
ENDCHAR
STARTCHAR 00AD
ENCODING 173
SWIDTH 462 0
DWIDTH 9 0
BBX 9 3 0 6
BITMAP
AA80
5500
AA80
ENDCHAR
STARTCHAR 00AF
ENCODING 175
SWIDTH 360 0
DWIDTH 7 0
BBX 7 2 0 16
BITMAP
FE
AA
ENDCHAR
STARTCHAR 00B0
ENCODING 176
SWIDTH 462 0
DWIDTH 9 0
BBX 9 9 0 8
BITMAP
2A00
5500
AA80
4100
A280
4100
AA80
5500
2A00
ENDCHAR
STARTCHAR 00B4
ENCODING 180
SWIDTH 308 0
DWIDTH 6 0
BBX 7 4 0 16
BITMAP
0A
14
78
A0
ENDCHAR
STARTCHAR 00B6
ENCODING 182
SWIDTH 668 0
DWIDTH 13 0
BBX 11 15 1 0
BITMAP
2AA0
5440
AAA0
5440
AAA0
5440
AAA0
5440
2AA0
0440
0AA0
0440
0AA0
0440
0AA0
ENDCHAR
STARTCHAR 00B7
ENCODING 183
SWIDTH 154 0
DWIDTH 3 0
BBX 3 3 0 6
BITMAP
A0
40
A0
ENDCHAR
STARTCHAR 00B8
ENCODING 184
SWIDTH 205 0
DWIDTH 4 0
BBX 4 4 0 -4
BITMAP
20
50
A0
40
ENDCHAR
STARTCHAR 00BB
ENCODING 187
SWIDTH 822 0
DWIDTH 16 0
BBX 14 11 2 2
BITMAP
A280
5140
28A0
1450
0A28
0514
0A28
1450
28A0
5140
A280
ENDCHAR
STARTCHAR 00BF
ENCODING 191
SWIDTH 668 0
DWIDTH 13 0
BBX 11 15 1 0
BITMAP
0A00
0400
0A00
0000
0A00
0400
2A00
5400
A800
4000
A0A0
4040
AAA0
5540
2A80
ENDCHAR
STARTCHAR 00C0
ENCODING 192
SWIDTH 668 0
DWIDTH 13 0
BBX 11 20 1 0
BITMAP
A000
5000
3C00
0A00
0000
0A00
1500
2A80
5140
A0A0
4040
A0A0
4040
AAA0
5540
AAA0
4040
A0A0
4040
A0A0
ENDCHAR
STARTCHAR 00C1
ENCODING 193
SWIDTH 668 0
DWIDTH 13 0
BBX 11 20 1 0
BITMAP
0140
0280
0F00
1400
0000
0A00
1500
2A80
5140
A0A0
4040
A0A0
4040
AAA0
5540
AAA0
4040
A0A0
4040
A0A0
ENDCHAR
STARTCHAR 00C2
ENCODING 194
SWIDTH 668 0
DWIDTH 13 0
BBX 11 20 1 0
BITMAP
0A00
1500
3B80
2A80
0000
0A00
1500
2A80
5140
A0A0
4040
A0A0
4040
AAA0
5540
AAA0
4040
A0A0
4040
A0A0
ENDCHAR
STARTCHAR 00C3
ENCODING 195
SWIDTH 668 0
DWIDTH 13 0
BBX 11 20 1 0
BITMAP
28A0
5440
EFE0
A280
0000
0A00
1500
2A80
5140
A0A0
4040
A0A0
4040
AAA0
5540
AAA0
4040
A0A0
4040
A0A0
ENDCHAR
STARTCHAR 00C4
ENCODING 196
SWIDTH 668 0
DWIDTH 13 0
BBX 11 18 1 0
BITMAP
3B80
2A80
0000
0A00
1500
2A80
5140
A0A0
4040
A0A0
4040
AAA0
5540
AAA0
4040
A0A0
4040
A0A0
ENDCHAR
STARTCHAR 00C5
ENCODING 197
SWIDTH 668 0
DWIDTH 13 0
BBX 11 24 1 0
BITMAP
1500
2A80
5540
2080
5140
2080
7FC0
1500
0000
0A00
1500
2A80
5140
A0A0
4040
A0A0
4040
AAA0
5540
AAA0
4040
A0A0
4040
A0A0
ENDCHAR
STARTCHAR 00C6
ENCODING 198
SWIDTH 1080 0
DWIDTH 21 0
BBX 19 15 1 0
BITMAP
0AAAA0
155540
2AAAA0
504000
A0A000
404000
A0AA80
405500
AAAA80
554000
AAA000
404000
A0AAA0
405540
A02AA0
ENDCHAR
STARTCHAR 00C7
ENCODING 199
SWIDTH 771 0
DWIDTH 15 0
BBX 13 19 1 -4
BITMAP
0A80
1540
2AA0
5050
A028
4010
A028
4000
A000
4000
A028
5050
2AA0
1540
0A80
0100
0A80
0500
0A00
ENDCHAR
STARTCHAR 00C8
ENCODING 200
SWIDTH 668 0
DWIDTH 13 0
BBX 11 20 1 0
BITMAP
A000
5000
3C00
0A00
0000
0AA0
1540
2AA0
5000
A000
4000
AA80
5500
AA80
4000
A000
5000
2AA0
1540
0AA0
ENDCHAR
STARTCHAR 00C9
ENCODING 201
SWIDTH 668 0
DWIDTH 13 0
BBX 11 20 1 0
BITMAP
0140
0280
0F00
1400
0000
0AA0
1540
2AA0
5000
A000
4000
AA80
5500
AA80
4000
A000
5000
2AA0
1540
0AA0
ENDCHAR
STARTCHAR 00CA
ENCODING 202
SWIDTH 668 0
DWIDTH 13 0
BBX 11 20 1 0
BITMAP
0A00
1500
3B80
2A80
0000
0AA0
1540
2AA0
5000
A000
4000
AA80
5500
AA80
4000
A000
5000
2AA0
1540
0AA0
ENDCHAR
STARTCHAR 00CB
ENCODING 203
SWIDTH 668 0
DWIDTH 13 0
BBX 11 18 1 0
BITMAP
3B80
2A80
0000
0AA0
1540
2AA0
5000
A000
4000
AA80
5500
AA80
4000
A000
5000
2AA0
1540
0AA0
ENDCHAR
STARTCHAR 00CC
ENCODING 204
SWIDTH 462 0
DWIDTH 9 0
BBX 8 20 0 0
BITMAP
40
A0
78
14
00
55
2A
55
08
14
08
14
08
14
08
14
08
55
2A
55
ENDCHAR
STARTCHAR 00CD
ENCODING 205
SWIDTH 462 0
DWIDTH 9 0
BBX 8 20 1 0
BITMAP
05
0A
3C
50
00
AA
54
AA
10
28
10
28
10
28
10
28
10
AA
54
AA
ENDCHAR
STARTCHAR 00CE
ENCODING 206
SWIDTH 462 0
DWIDTH 9 0
BBX 7 20 1 0
BITMAP
28
54
EE
AA
00
AA
54
AA
10
28
10
28
10
28
10
28
10
AA
54
AA
ENDCHAR
STARTCHAR 00CF
ENCODING 207
SWIDTH 462 0
DWIDTH 9 0
BBX 7 18 1 0
BITMAP
EE
AA
00
AA
54
AA
10
28
10
28
10
28
10
28
10
AA
54
AA
ENDCHAR
STARTCHAR 00D0
ENCODING 208
SWIDTH 822 0
DWIDTH 16 0
BBX 15 15 0 0
BITMAP
2AA0
1550
2AA8
1014
280A
1004
AA0A
5404
AA0A
1004
280A
1014
2AA8
1550
2AA0
ENDCHAR
STARTCHAR 00D1
ENCODING 209
SWIDTH 771 0
DWIDTH 15 0
BBX 13 20 1 0
BITMAP
1450
2A20
77F0
5140
0000
A028
5010
A828
5410
AA28
4510
A2A8
4150
A0A8
4050
A028
4010
A028
4010
A028
ENDCHAR
STARTCHAR 00D2
ENCODING 210
SWIDTH 771 0
DWIDTH 15 0
BBX 13 20 1 0
BITMAP
5000
2800
1E00
0500
0000
0A80
1540
2AA0
5050
A028
4010
A028
4010
A028
4010
A028
5050
2AA0
1540
0A80
ENDCHAR
STARTCHAR 00D3
ENCODING 211
SWIDTH 771 0
DWIDTH 15 0
BBX 13 20 1 0
BITMAP
00A0
0140
0780
0A00
0000
0A80
1540
2AA0
5050
A028
4010
A028
4010
A028
4010
A028
5050
2AA0
1540
0A80
ENDCHAR
STARTCHAR 00D4
ENCODING 212
SWIDTH 771 0
DWIDTH 15 0
BBX 13 20 1 0
BITMAP
0500
0A80
1DC0
1540
0000
0A80
1540
2AA0
5050
A028
4010
A028
4010
A028
4010
A028
5050
2AA0
1540
0A80
ENDCHAR
STARTCHAR 00D5
ENCODING 213
SWIDTH 771 0
DWIDTH 15 0
BBX 13 20 1 0
BITMAP
1450
2A20
77F0
5140
0000
0A80
1540
2AA0
5050
A028
4010
A028
4010
A028
4010
A028
5050
2AA0
1540
0A80
ENDCHAR
STARTCHAR 00D6
ENCODING 214
SWIDTH 771 0
DWIDTH 15 0
BBX 13 18 1 0
BITMAP
1DC0
1540
0000
0A80
1540
2AA0
5050
A028
4010
A028
4010
A028
4010
A028
5050
2AA0
1540
0A80
ENDCHAR
STARTCHAR 00D7
ENCODING 215
SWIDTH 668 0
DWIDTH 13 0
BBX 11 12 1 2
BITMAP
4040
A0A0
5140
2A80
1500
0A00
1500
2A80
5140
A0A0
4040
A0A0
ENDCHAR
STARTCHAR 00D8
ENCODING 216
SWIDTH 874 0
DWIDTH 17 0
BBX 17 15 0 0
BITMAP
02A000
055000
0AA800
141400
280A00
100400
AAAA80
555500
AAAA80
100400
280A00
141400
0AA800
055000
02A000
ENDCHAR
STARTCHAR 00D9
ENCODING 217
SWIDTH 771 0
DWIDTH 15 0
BBX 13 20 1 0
BITMAP
5000
2800
1E00
0500
0000
A028
4010
A028
4010
A028
4010
A028
4010
A028
4010
A028
5050
2AA0
1540
0A80
ENDCHAR
STARTCHAR 00DA
ENCODING 218
SWIDTH 771 0
DWIDTH 15 0
BBX 13 20 1 0
BITMAP
00A0
0140
0780
0A00
0000
A028
4010
A028
4010
A028
4010
A028
4010
A028
4010
A028
5050
2AA0
1540
0A80
ENDCHAR
STARTCHAR 00DB
ENCODING 219
SWIDTH 771 0
DWIDTH 15 0
BBX 13 20 1 0
BITMAP
0500
0A80
1DC0
1540
0000
A028
4010
A028
4010
A028
4010
A028
4010
A028
4010
A028
5050
2AA0
1540
0A80
ENDCHAR
STARTCHAR 00DC
ENCODING 220
SWIDTH 771 0
DWIDTH 15 0
BBX 13 18 1 0
BITMAP
1DC0
1540
0000
A028
4010
A028
4010
A028
4010
A028
4010
A028
4010
A028
5050
2AA0
1540
0A80
ENDCHAR
STARTCHAR 00DD
ENCODING 221
SWIDTH 668 0
DWIDTH 13 0
BBX 11 20 1 0
BITMAP
0140
0280
0F00
1400
0000
A0A0
4040
A0A0
4040
A0A0
4040
A0A0
5140
2A80
1500
0A00
0400
0A00
0400
0A00
ENDCHAR
STARTCHAR 00DE
ENCODING 222
SWIDTH 668 0
DWIDTH 13 0
BBX 11 15 1 0
BITMAP
A000
4000
AA80
5540
AAA0
4040
A0A0
4040
A0A0
4040
AAA0
5540
AA80
4000
A000
ENDCHAR
STARTCHAR 00DF
ENCODING 223
SWIDTH 668 0
DWIDTH 13 0
BBX 11 15 1 0
BITMAP
2A80
5540
AAA0
4040
A0A0
4140
AA80
4540
AAA0
4040
A0A0
4040
AAA0
4540
AA80
ENDCHAR
STARTCHAR 00E0
ENCODING 224
SWIDTH 668 0
DWIDTH 13 0
BBX 11 20 1 0
BITMAP
A000
5000
3C00
0A00
0000
2A80
5540
AAA0
4040
A0A0
4040
A0A0
4040
AAA0
5540
AAA0
4040
A0A0
4040
A0A0
ENDCHAR
STARTCHAR 00E1
ENCODING 225
SWIDTH 668 0
DWIDTH 13 0
BBX 11 20 1 0
BITMAP
0140
0280
0F00
1400
0000
2A80
5540
AAA0
4040
A0A0
4040
A0A0
4040
AAA0
5540
AAA0
4040
A0A0
4040
A0A0
ENDCHAR
STARTCHAR 00E2
ENCODING 226
SWIDTH 668 0
DWIDTH 13 0
BBX 11 20 1 0
BITMAP
0A00
1500
3B80
2A80
0000
2A80
5540
AAA0
4040
A0A0
4040
A0A0
4040
AAA0
5540
AAA0
4040
A0A0
4040
A0A0
ENDCHAR
STARTCHAR 00E3
ENCODING 227
SWIDTH 668 0
DWIDTH 13 0
BBX 11 20 1 0
BITMAP
28A0
5440
EFE0
A280
0000
2A80
5540
AAA0
4040
A0A0
4040
A0A0
4040
AAA0
5540
AAA0
4040
A0A0
4040
A0A0
ENDCHAR
STARTCHAR 00E4
ENCODING 228
SWIDTH 668 0
DWIDTH 13 0
BBX 11 18 1 0
BITMAP
3B80
2A80
0000
2A80
5540
AAA0
4040
A0A0
4040
A0A0
4040
AAA0
5540
AAA0
4040
A0A0
4040
A0A0
ENDCHAR
STARTCHAR 00E5
ENCODING 229
SWIDTH 668 0
DWIDTH 13 0
BBX 11 24 1 0
BITMAP
1500
2A80
5540
2080
5140
2080
7FC0
1500
0000
2A80
5540
AAA0
4040
A0A0
4040
A0A0
4040
AAA0
5540
AAA0
4040
A0A0
4040
A0A0
ENDCHAR
STARTCHAR 00E6
ENCODING 230
SWIDTH 1080 0
DWIDTH 21 0
BBX 19 15 1 0
BITMAP
2AAAA0
555540
AAAAA0
404000
A0A000
404000
A0AA80
405500
AAAA80
554000
AAA000
404000
A0AAA0
405540
A02AA0
ENDCHAR
STARTCHAR 00E7
ENCODING 231
SWIDTH 668 0
DWIDTH 13 0
BBX 11 19 1 -4
BITMAP
2A80
5540
AAA0
4040
A0A0
4040
A0A0
4000
A000
4000
A0A0
4040
AAA0
5540
2A80
0400
2A00
1400
2800
ENDCHAR
STARTCHAR 00E8
ENCODING 232
SWIDTH 668 0
DWIDTH 13 0
BBX 11 20 1 0
BITMAP
A000
5000
3C00
0A00
0000
2AA0
5540
AAA0
4000
A000
4000
AA80
5500
AA80
4000
A000
4000
AAA0
5540
2AA0
ENDCHAR
STARTCHAR 00E9
ENCODING 233
SWIDTH 668 0
DWIDTH 13 0
BBX 11 20 1 0
BITMAP
0140
0280
0F00
1400
0000
2AA0
5540
AAA0
4000
A000
4000
AA80
5500
AA80
4000
A000
4000
AAA0
5540
2AA0
ENDCHAR
STARTCHAR 00EA
ENCODING 234
SWIDTH 668 0
DWIDTH 13 0
BBX 11 20 1 0
BITMAP
0A00
1500
3B80
2A80
0000
2AA0
5540
AAA0
4000
A000
4000
AA80
5500
AA80
4000
A000
4000
AAA0
5540
2AA0
ENDCHAR
STARTCHAR 00EB
ENCODING 235
SWIDTH 668 0
DWIDTH 13 0
BBX 11 18 1 0
BITMAP
3B80
2A80
0000
2AA0
5540
AAA0
4000
A000
4000
AA80
5500
AA80
4000
A000
4000
AAA0
5540
2AA0
ENDCHAR
STARTCHAR 00EC
ENCODING 236
SWIDTH 257 0
DWIDTH 5 0
BBX 6 20 -2 0
BITMAP
80
60
38
14
00
14
08
14
08
14
08
14
08
14
08
14
08
14
08
14
ENDCHAR
STARTCHAR 00ED
ENCODING 237
SWIDTH 257 0
DWIDTH 5 0
BBX 7 20 0 0
BITMAP
0A
14
78
A0
00
50
20
50
20
50
20
50
20
50
20
50
20
50
20
50
ENDCHAR
STARTCHAR 00EE
ENCODING 238
SWIDTH 257 0
DWIDTH 5 0
BBX 6 20 0 0
BITMAP
50
A8
DC
54
00
50
20
50
20
50
20
50
20
50
20
50
20
50
20
50
ENDCHAR
STARTCHAR 00EF
ENCODING 239
SWIDTH 257 0
DWIDTH 5 0
BBX 6 18 0 0
BITMAP
DC
54
00
50
20
50
20
50
20
50
20
50
20
50
20
50
20
50
ENDCHAR
STARTCHAR 00F0
ENCODING 240
SWIDTH 720 0
DWIDTH 14 0
BBX 13 15 0 0
BITMAP
2AA0
1550
2AA8
1010
2828
1010
AA28
5410
AA28
1010
2828
1010
2AA8
1550
2AA0
ENDCHAR
STARTCHAR 00F1
ENCODING 241
SWIDTH 668 0
DWIDTH 13 0
BBX 11 20 1 0
BITMAP
28A0
5440
EFE0
A280
0000
A0A0
5040
A8A0
5440
AAA0
4540
A2A0
4140
A0A0
4040
A0A0
4040
A0A0
4040
A0A0
ENDCHAR
STARTCHAR 00F2
ENCODING 242
SWIDTH 668 0
DWIDTH 13 0
BBX 11 20 1 0
BITMAP
A000
5000
3C00
0A00
0000
2A80
5540
AAA0
4040
A0A0
4040
A0A0
4040
A0A0
4040
A0A0
4040
AAA0
5540
2A80
ENDCHAR
STARTCHAR 00F3
ENCODING 243
SWIDTH 668 0
DWIDTH 13 0
BBX 11 20 1 0
BITMAP
0140
0280
0F00
1400
0000
2A80
5540
AAA0
4040
A0A0
4040
A0A0
4040
A0A0
4040
A0A0
4040
AAA0
5540
2A80
ENDCHAR
STARTCHAR 00F4
ENCODING 244
SWIDTH 668 0
DWIDTH 13 0
BBX 11 20 1 0
BITMAP
0A00
1500
3B80
2A80
0000
2A80
5540
AAA0
4040
A0A0
4040
A0A0
4040
A0A0
4040
A0A0
4040
AAA0
5540
2A80
ENDCHAR
STARTCHAR 00F5
ENCODING 245
SWIDTH 668 0
DWIDTH 13 0
BBX 11 20 1 0
BITMAP
28A0
5440
EFE0
A280
0000
2A80
5540
AAA0
4040
A0A0
4040
A0A0
4040
A0A0
4040
A0A0
4040
AAA0
5540
2A80
ENDCHAR
STARTCHAR 00F6
ENCODING 246
SWIDTH 668 0
DWIDTH 13 0
BBX 11 18 1 0
BITMAP
3B80
2A80
0000
2A80
5540
AAA0
4040
A0A0
4040
A0A0
4040
A0A0
4040
A0A0
4040
AAA0
5540
2A80
ENDCHAR
STARTCHAR 00F7
ENCODING 247
SWIDTH 668 0
DWIDTH 13 0
BBX 11 11 1 2
BITMAP
0A00
0400
0A00
0000
AAA0
5540
AAA0
0000
0A00
0400
0A00
ENDCHAR
STARTCHAR 00F8
ENCODING 248
SWIDTH 771 0
DWIDTH 15 0
BBX 15 15 0 0
BITMAP
0AA0
1550
2AA8
1010
2828
1010
AAAA
5554
AAAA
1010
2828
1010
2AA8
1550
0AA0
ENDCHAR
STARTCHAR 00F9
ENCODING 249
SWIDTH 668 0
DWIDTH 13 0
BBX 11 20 1 0
BITMAP
A000
5000
3C00
0A00
0000
A0A0
4040
A0A0
4040
A0A0
4040
A0A0
4040
A0A0
4040
A0A0
4040
AAA0
5540
2A80
ENDCHAR
STARTCHAR 00FA
ENCODING 250
SWIDTH 668 0
DWIDTH 13 0
BBX 11 20 1 0
BITMAP
0140
0280
0F00
1400
0000
A0A0
4040
A0A0
4040
A0A0
4040
A0A0
4040
A0A0
4040
A0A0
4040
AAA0
5540
2A80
ENDCHAR
STARTCHAR 00FB
ENCODING 251
SWIDTH 668 0
DWIDTH 13 0
BBX 11 20 1 0
BITMAP
0A00
1500
3B80
2A80
0000
A0A0
4040
A0A0
4040
A0A0
4040
A0A0
4040
A0A0
4040
A0A0
4040
AAA0
5540
2A80
ENDCHAR
STARTCHAR 00FC
ENCODING 252
SWIDTH 668 0
DWIDTH 13 0
BBX 11 18 1 0
BITMAP
3B80
2A80
0000
A0A0
4040
A0A0
4040
A0A0
4040
A0A0
4040
A0A0
4040
A0A0
4040
AAA0
5540
2A80
ENDCHAR
STARTCHAR 00FD
ENCODING 253
SWIDTH 668 0
DWIDTH 13 0
BBX 11 20 1 0
BITMAP
0140
0280
0F00
1400
0000
A0A0
4040
A0A0
4040
A0A0
4040
A0A0
4040
AAA0
5540
2A80
0400
0A00
0400
0A00
ENDCHAR
STARTCHAR 00FE
ENCODING 254
SWIDTH 668 0
DWIDTH 13 0
BBX 11 15 1 0
BITMAP
A000
4000
AA80
5540
AAA0
4040
A0A0
4040
A0A0
4040
AAA0
5540
AA80
4000
A000
ENDCHAR
STARTCHAR 00FF
ENCODING 255
SWIDTH 668 0
DWIDTH 13 0
BBX 11 18 1 0
BITMAP
3B80
2A80
0000
A0A0
4040
A0A0
4040
A0A0
4040
A0A0
4040
AAA0
5540
2A80
0400
0A00
0400
0A00
ENDCHAR
STARTCHAR 0100
ENCODING 256
SWIDTH 668 0
DWIDTH 13 0
BBX 11 18 1 0
BITMAP
3F80
2A80
0000
0A00
1500
2A80
5140
A0A0
4040
A0A0
4040
AAA0
5540
AAA0
4040
A0A0
4040
A0A0
ENDCHAR
STARTCHAR 0101
ENCODING 257
SWIDTH 668 0
DWIDTH 13 0
BBX 11 18 1 0
BITMAP
3F80
2A80
0000
2A80
5540
AAA0
4040
A0A0
4040
A0A0
4040
AAA0
5540
AAA0
4040
A0A0
4040
A0A0
ENDCHAR
STARTCHAR 0102
ENCODING 258
SWIDTH 668 0
DWIDTH 13 0
BBX 11 20 1 0
BITMAP
5140
2080
7FC0
1500
0000
0A00
1500
2A80
5140
A0A0
4040
A0A0
4040
AAA0
5540
AAA0
4040
A0A0
4040
A0A0
ENDCHAR
STARTCHAR 0103
ENCODING 259
SWIDTH 668 0
DWIDTH 13 0
BBX 11 20 1 0
BITMAP
5140
2080
7FC0
1500
0000
2A80
5540
AAA0
4040
A0A0
4040
A0A0
4040
AAA0
5540
AAA0
4040
A0A0
4040
A0A0
ENDCHAR
STARTCHAR 0104
ENCODING 260
SWIDTH 668 0
DWIDTH 13 0
BBX 13 19 1 -4
BITMAP
0A00
1500
2A80
5140
A0A0
4040
A0A0
4040
AAA0
5540
AAA0
4040
A0A0
4040
A0A0
0040
00A8
0050
0028
ENDCHAR
STARTCHAR 0105
ENCODING 261
SWIDTH 668 0
DWIDTH 13 0
BBX 13 19 1 -4
BITMAP
2A80
5540
AAA0
4040
A0A0
4040
A0A0
4040
AAA0
5540
AAA0
4040
A0A0
4040
A0A0
0040
00A8
0050
0028
ENDCHAR
STARTCHAR 0106
ENCODING 262
SWIDTH 771 0
DWIDTH 15 0
BBX 13 20 1 0
BITMAP
00A0
0140
0780
0A00
0000
0A80
1540
2AA0
5050
A028
4010
A028
4000
A000
4000
A028
5050
2AA0
1540
0A80
ENDCHAR
STARTCHAR 0107
ENCODING 263
SWIDTH 668 0
DWIDTH 13 0
BBX 11 20 1 0
BITMAP
0140
0280
0F00
1400
0000
2A80
5540
AAA0
4040
A0A0
4040
A0A0
4000
A000
4000
A0A0
4040
AAA0
5540
2A80
ENDCHAR
STARTCHAR 010A
ENCODING 266
SWIDTH 771 0
DWIDTH 15 0
BBX 13 18 1 0
BITMAP
0700
0500
0000
0A80
1540
2AA0
5050
A028
4010
A028
4000
A000
4000
A028
5050
2AA0
1540
0A80
ENDCHAR
STARTCHAR 010B
ENCODING 267
SWIDTH 668 0
DWIDTH 13 0
BBX 11 18 1 0
BITMAP
0E00
0A00
0000
2A80
5540
AAA0
4040
A0A0
4040
A0A0
4000
A000
4000
A0A0
4040
AAA0
5540
2A80
ENDCHAR
STARTCHAR 010C
ENCODING 268
SWIDTH 771 0
DWIDTH 15 0
BBX 13 20 1 0
BITMAP
1540
0880
1FC0
0500
0000
0A80
1540
2AA0
5050
A028
4010
A028
4000
A000
4000
A028
5050
2AA0
1540
0A80
ENDCHAR
STARTCHAR 010D
ENCODING 269
SWIDTH 668 0
DWIDTH 13 0
BBX 11 20 1 0
BITMAP
2A80
1100
3F80
0A00
0000
2A80
5540
AAA0
4040
A0A0
4040
A0A0
4000
A000
4000
A0A0
4040
AAA0
5540
2A80
ENDCHAR
STARTCHAR 010E
ENCODING 270
SWIDTH 771 0
DWIDTH 15 0
BBX 13 20 1 0
BITMAP
1540
0880
1FC0
0500
0000
AA80
5540
AAA0
4050
A028
4010
A028
4010
A028
4010
A028
4050
AAA0
5540
AA80
ENDCHAR
STARTCHAR 010F
ENCODING 271
SWIDTH 668 0
DWIDTH 13 0
BBX 11 20 1 0
BITMAP
2A80
1100
3F80
0A00
0000
AA80
5540
AAA0
4040
A0A0
4040
A0A0
4040
A0A0
4040
A0A0
4040
AAA0
5540
AA80
ENDCHAR
STARTCHAR 0110
ENCODING 272
SWIDTH 822 0
DWIDTH 16 0
BBX 15 15 0 0
BITMAP
2AA0
1550
2AA8
1014
280A
1004
AA0A
5404
AA0A
1004
280A
1014
2AA8
1550
2AA0
ENDCHAR
STARTCHAR 0111
ENCODING 273
SWIDTH 720 0
DWIDTH 14 0
BBX 13 15 0 0
BITMAP
2AA0
1550
2AA8
1010
2828
1010
AA28
5410
AA28
1010
2828
1010
2AA8
1550
2AA0
ENDCHAR
STARTCHAR 0112
ENCODING 274
SWIDTH 668 0
DWIDTH 13 0
BBX 11 18 1 0
BITMAP
3F80
2A80
0000
0AA0
1540
2AA0
5000
A000
4000
AA80
5500
AA80
4000
A000
5000
2AA0
1540
0AA0
ENDCHAR
STARTCHAR 0113
ENCODING 275
SWIDTH 668 0
DWIDTH 13 0
BBX 11 18 1 0
BITMAP
3F80
2A80
0000
2AA0
5540
AAA0
4000
A000
4000
AA80
5500
AA80
4000
A000
4000
AAA0
5540
2AA0
ENDCHAR
STARTCHAR 0116
ENCODING 278
SWIDTH 668 0
DWIDTH 13 0
BBX 11 18 1 0
BITMAP
0E00
0A00
0000
0AA0
1540
2AA0
5000
A000
4000
AA80
5500
AA80
4000
A000
5000
2AA0
1540
0AA0
ENDCHAR
STARTCHAR 0117
ENCODING 279
SWIDTH 668 0
DWIDTH 13 0
BBX 11 18 1 0
BITMAP
0E00
0A00
0000
2AA0
5540
AAA0
4000
A000
4000
AA80
5500
AA80
4000
A000
4000
AAA0
5540
2AA0
ENDCHAR
STARTCHAR 0118
ENCODING 280
SWIDTH 668 0
DWIDTH 13 0
BBX 13 19 1 -4
BITMAP
0AA0
1540
2AA0
5000
A000
4000
AA80
5500
AA80
4000
A000
5000
2AA0
1540
0AA0
0040
00A8
0050
0028
ENDCHAR
STARTCHAR 0119
ENCODING 281
SWIDTH 668 0
DWIDTH 13 0
BBX 13 19 1 -4
BITMAP
2AA0
5540
AAA0
4000
A000
4000
AA80
5500
AA80
4000
A000
4000
AAA0
5540
2AA0
0040
00A8
0050
0028
ENDCHAR
STARTCHAR 011A
ENCODING 282
SWIDTH 668 0
DWIDTH 13 0
BBX 11 20 1 0
BITMAP
2A80
1100
3F80
0A00
0000
0AA0
1540
2AA0
5000
A000
4000
AA80
5500
AA80
4000
A000
5000
2AA0
1540
0AA0
ENDCHAR
STARTCHAR 011B
ENCODING 283
SWIDTH 668 0
DWIDTH 13 0
BBX 11 20 1 0
BITMAP
2A80
1100
3F80
0A00
0000
2AA0
5540
AAA0
4000
A000
4000
AA80
5500
AA80
4000
A000
4000
AAA0
5540
2AA0
ENDCHAR
STARTCHAR 011E
ENCODING 286
SWIDTH 771 0
DWIDTH 15 0
BBX 13 20 1 0
BITMAP
28A0
1040
3FE0
0A80
0000
0AA8
1550
2AA8
5000
A000
4000
A2A8
4150
A2A8
4010
A028
5010
2AA8
1550
0AA8
ENDCHAR
STARTCHAR 011F
ENCODING 287
SWIDTH 668 0
DWIDTH 13 0
BBX 11 20 1 0
BITMAP
5140
2080
7FC0
1500
0000
2AA0
5540
AAA0
4000
A000
4000
A2A0
4140
A2A0
4040
A0A0
4040
AAA0
5540
2A80
ENDCHAR
STARTCHAR 0120
ENCODING 288
SWIDTH 771 0
DWIDTH 15 0
BBX 13 18 1 0
BITMAP
0700
0500
0000
0AA8
1550
2AA8
5000
A000
4000
A2A8
4150
A2A8
4010
A028
5010
2AA8
1550
0AA8
ENDCHAR
STARTCHAR 0121
ENCODING 289
SWIDTH 668 0
DWIDTH 13 0
BBX 11 18 1 0
BITMAP
0E00
0A00
0000
2AA0
5540
AAA0
4000
A000
4000
A2A0
4140
A2A0
4040
A0A0
4040
AAA0
5540
2A80
ENDCHAR
STARTCHAR 0122
ENCODING 290
SWIDTH 771 0
DWIDTH 15 0
BBX 13 21 1 -6
BITMAP
0AA8
1550
2AA8
5000
A000
4000
A2A8
4150
A2A8
4010
A028
5010
2AA8
1550
0AA8
0000
0500
0200
0500
0200
0400
ENDCHAR
STARTCHAR 0123
ENCODING 291
SWIDTH 668 0
DWIDTH 13 0
BBX 11 21 1 -6
BITMAP
2AA0
5540
AAA0
4000
A000
4000
A2A0
4140
A2A0
4040
A0A0
4040
AAA0
5540
2A80
0000
0A00
0400
0A00
0400
0800
ENDCHAR
STARTCHAR 0126
ENCODING 294
SWIDTH 874 0
DWIDTH 17 0
BBX 17 15 0 0
BITMAP
280A00
100400
AAAA80
555500
AAAA80
100400
2AAA00
155400
2AAA00
100400
280A00
100400
280A00
100400
280A00
ENDCHAR
STARTCHAR 0127
ENCODING 295
SWIDTH 771 0
DWIDTH 15 0
BBX 15 15 0 0
BITMAP
2828
1010
AAAA
5554
AAAA
1010
2AA8
1550
2AA8
1010
2828
1010
2828
1010
2828
ENDCHAR
STARTCHAR 0128
ENCODING 296
SWIDTH 462 0
DWIDTH 9 0
BBX 10 20 0 0
BITMAP
5140
A880
DFC0
4500
0000
5500
2A00
5500
0800
1400
0800
1400
0800
1400
0800
1400
0800
5500
2A00
5500
ENDCHAR
STARTCHAR 0129
ENCODING 297
SWIDTH 257 0
DWIDTH 5 0
BBX 10 20 -2 0
BITMAP
1140
6880
DFC0
8500
0000
1400
0800
1400
0800
1400
0800
1400
0800
1400
0800
1400
0800
1400
0800
1400
ENDCHAR
STARTCHAR 012A
ENCODING 298
SWIDTH 462 0
DWIDTH 9 0
BBX 7 18 1 0
BITMAP
FE
AA
00
AA
54
AA
10
28
10
28
10
28
10
28
10
AA
54
AA
ENDCHAR
STARTCHAR 012B
ENCODING 299
SWIDTH 257 0
DWIDTH 5 0
BBX 6 18 0 0
BITMAP
FC
54
00
50
20
50
20
50
20
50
20
50
20
50
20
50
20
50
ENDCHAR
STARTCHAR 012E
ENCODING 302
SWIDTH 462 0
DWIDTH 9 0
BBX 9 19 1 -4
BITMAP
AA00
5400
AA00
1000
2800
1000
2800
1000
2800
1000
2800
1000
AA00
5400
AA00
0400
0A80
0500
0280
ENDCHAR
STARTCHAR 012F
ENCODING 303
SWIDTH 257 0
DWIDTH 5 0
BBX 5 19 1 -4
BITMAP
A0
40
A0
40
A0
40
A0
40
A0
40
A0
40
A0
40
A0
40
A8
50
28
ENDCHAR
STARTCHAR 0130
ENCODING 304
SWIDTH 462 0
DWIDTH 9 0
BBX 7 18 1 0
BITMAP
38
28
00
AA
54
AA
10
28
10
28
10
28
10
28
10
AA
54
AA
ENDCHAR
STARTCHAR 0131
ENCODING 305
SWIDTH 257 0
DWIDTH 5 0
BBX 3 15 1 0
BITMAP
A0
40
A0
40
A0
40
A0
40
A0
40
A0
40
A0
40
A0
ENDCHAR
STARTCHAR 0136
ENCODING 310
SWIDTH 668 0
DWIDTH 13 0
BBX 11 21 1 -6
BITMAP
A0A0
4040
A0A0
4140
A280
4500
AA00
5400
AA00
4500
A280
4140
A0A0
4040
A0A0
0000
0A00
0400
0A00
0400
0800
ENDCHAR
STARTCHAR 0137
ENCODING 311
SWIDTH 668 0
DWIDTH 13 0
BBX 11 21 1 -6
BITMAP
A0A0
4040
A0A0
4040
A0A0
4140
AA80
5500
AA80
4140
A0A0
4040
A0A0
4040
A0A0
0000
0A00
0400
0A00
0400
0800
ENDCHAR
STARTCHAR 0139
ENCODING 313
SWIDTH 668 0
DWIDTH 13 0
BBX 12 20 0 0
BITMAP
0A00
1400
7800
A000
0000
5000
2000
5000
2000
5000
2000
5000
2000
5000
2000
5000
2000
5550
2AA0
1550
ENDCHAR
STARTCHAR 013A
ENCODING 314
SWIDTH 565 0
DWIDTH 11 0
BBX 10 20 0 0
BITMAP
0A00
1400
7800
A000
0000
5000
2000
5000
2000
5000
2000
5000
2000
5000
2000
5000
2000
5540
2A80
1540
ENDCHAR
STARTCHAR 013B
ENCODING 315
SWIDTH 668 0
DWIDTH 13 0
BBX 11 21 1 -6
BITMAP
A000
4000
A000
4000
A000
4000
A000
4000
A000
4000
A000
4000
AAA0
5540
2AA0
0000
0A00
0400
0A00
0400
0800
ENDCHAR
STARTCHAR 013C
ENCODING 316
SWIDTH 565 0
DWIDTH 11 0
BBX 9 21 1 -6
BITMAP
A000
4000
A000
4000
A000
4000
A000
4000
A000
4000
A000
4000
AA80
5500
2A80
0000
1400
0800
1400
0800
1000
ENDCHAR
STARTCHAR 013D
ENCODING 317
SWIDTH 668 0
DWIDTH 13 0
BBX 11 15 1 0
BITMAP
A0A0
4040
A0A0
4040
A080
4000
A000
4000
A000
4000
A000
4000
AAA0
5540
2AA0
ENDCHAR
STARTCHAR 013E
ENCODING 318
SWIDTH 565 0
DWIDTH 11 0
BBX 9 15 1 0
BITMAP
A280
4100
A280
4100
A200
4000
A000
4000
A000
4000
A000
4000
AA80
5500
2A80
ENDCHAR
STARTCHAR 0141
ENCODING 321
SWIDTH 720 0
DWIDTH 14 0
BBX 13 15 0 0
BITMAP
2800
1000
2800
1000
2A00
1400
AA00
5000
A800
1000
2800
1000
2AA8
1550
0AA8
ENDCHAR
STARTCHAR 0142
ENCODING 322
SWIDTH 617 0
DWIDTH 12 0
BBX 11 15 0 0
BITMAP
2800
1000
2800
1000
2A00
1400
AA00
5000
A800
1000
2800
1000
2AA0
1540
0AA0
ENDCHAR
STARTCHAR 0143
ENCODING 323
SWIDTH 771 0
DWIDTH 15 0
BBX 13 20 1 0
BITMAP
00A0
0140
0780
0A00
0000
A028
5010
A828
5410
AA28
4510
A2A8
4150
A0A8
4050
A028
4010
A028
4010
A028
ENDCHAR
STARTCHAR 0144
ENCODING 324
SWIDTH 668 0
DWIDTH 13 0
BBX 11 20 1 0
BITMAP
0140
0280
0F00
1400
0000
A0A0
5040
A8A0
5440
AAA0
4540
A2A0
4140
A0A0
4040
A0A0
4040
A0A0
4040
A0A0
ENDCHAR
STARTCHAR 0145
ENCODING 325
SWIDTH 771 0
DWIDTH 15 0
BBX 13 21 1 -6
BITMAP
A028
5010
A828
5410
AA28
4510
A2A8
4150
A0A8
4050
A028
4010
A028
4010
A028
0000
0500
0200
0500
0200
0400
ENDCHAR
STARTCHAR 0146
ENCODING 326
SWIDTH 668 0
DWIDTH 13 0
BBX 11 21 1 -6
BITMAP
A0A0
5040
A8A0
5440
AAA0
4540
A2A0
4140
A0A0
4040
A0A0
4040
A0A0
4040
A0A0
0000
0A00
0400
0A00
0400
0800
ENDCHAR
STARTCHAR 0147
ENCODING 327
SWIDTH 771 0
DWIDTH 15 0
BBX 13 20 1 0
BITMAP
1540
0880
1FC0
0500
0000
A028
5010
A828
5410
AA28
4510
A2A8
4150
A0A8
4050
A028
4010
A028
4010
A028
ENDCHAR
STARTCHAR 0148
ENCODING 328
SWIDTH 668 0
DWIDTH 13 0
BBX 11 20 1 0
BITMAP
2A80
1100
3F80
0A00
0000
A0A0
5040
A8A0
5440
AAA0
4540
A2A0
4140
A0A0
4040
A0A0
4040
A0A0
4040
A0A0
ENDCHAR
STARTCHAR 014A
ENCODING 330
SWIDTH 771 0
DWIDTH 15 0
BBX 13 19 1 -4
BITMAP
A028
5010
A828
5410
AA28
4510
A2A8
4150
A0A8
4050
A028
4010
A028
4010
A028
0010
00A8
0050
00A0
ENDCHAR
STARTCHAR 014B
ENCODING 331
SWIDTH 668 0
DWIDTH 13 0
BBX 11 19 1 -4
BITMAP
A0A0
5040
A8A0
5440
AAA0
4540
A2A0
4140
A0A0
4040
A0A0
4040
A0A0
4040
A0A0
0040
02A0
0140
0280
ENDCHAR
STARTCHAR 014C
ENCODING 332
SWIDTH 771 0
DWIDTH 15 0
BBX 13 18 1 0
BITMAP
1FC0
1540
0000
0A80
1540
2AA0
5050
A028
4010
A028
4010
A028
4010
A028
5050
2AA0
1540
0A80
ENDCHAR
STARTCHAR 014D
ENCODING 333
SWIDTH 668 0
DWIDTH 13 0
BBX 11 18 1 0
BITMAP
3F80
2A80
0000
2A80
5540
AAA0
4040
A0A0
4040
A0A0
4040
A0A0
4040
A0A0
4040
AAA0
5540
2A80
ENDCHAR
STARTCHAR 0150
ENCODING 336
SWIDTH 771 0
DWIDTH 15 0
BBX 14 20 1 0
BITMAP
0514
0A28
3CF0
5140
0000
0A80
1540
2AA0
5050
A028
4010
A028
4010
A028
4010
A028
5050
2AA0
1540
0A80
ENDCHAR
STARTCHAR 0151
ENCODING 337
SWIDTH 668 0
DWIDTH 13 0
BBX 13 20 1 0
BITMAP
0A28
1450
79E0
A280
0000
2A80
5540
AAA0
4040
A0A0
4040
A0A0
4040
A0A0
4040
A0A0
4040
AAA0
5540
2A80
ENDCHAR
STARTCHAR 0152
ENCODING 338
SWIDTH 1182 0
DWIDTH 23 0
BBX 21 15 1 0
BITMAP
0A82A8
154550
2AAAA8
505400
A02800
401000
A02AA0
401540
A02AA0
401000
A02800
505400
2AAAA8
154550
0A82A8
ENDCHAR
STARTCHAR 0153
ENCODING 339
SWIDTH 1080 0
DWIDTH 21 0
BBX 19 15 1 0
BITMAP
2AAAA0
555540
AAAAA0
404000
A0A000
404000
A0AA80
405500
A0AA80
404000
A0A000
404000
AAAAA0
555540
2AAAA0
ENDCHAR
STARTCHAR 0154
ENCODING 340
SWIDTH 668 0
DWIDTH 13 0
BBX 11 20 1 0
BITMAP
0140
0280
0F00
1400
0000
AA00
5500
AA80
4140
A0A0
4040
A0A0
4040
A0A0
4140
AA80
5500
AA80
4140
A0A0
ENDCHAR
STARTCHAR 0155
ENCODING 341
SWIDTH 668 0
DWIDTH 13 0
BBX 11 20 1 0
BITMAP
0140
0280
0F00
1400
0000
AA80
5540
AAA0
4040
A0A0
4040
A0A0
4040
AAA0
5540
AA80
4140
A0A0
4040
A0A0
ENDCHAR
STARTCHAR 0156
ENCODING 342
SWIDTH 668 0
DWIDTH 13 0
BBX 11 21 1 -6
BITMAP
AA00
5500
AA80
4140
A0A0
4040
A0A0
4040
A0A0
4140
AA80
5500
AA80
4140
A0A0
0000
0A00
0400
0A00
0400
0800
ENDCHAR
STARTCHAR 0157
ENCODING 343
SWIDTH 668 0
DWIDTH 13 0
BBX 11 21 1 -6
BITMAP
AA80
5540
AAA0
4040
A0A0
4040
A0A0
4040
AAA0
5540
AA80
4140
A0A0
4040
A0A0
0000
0A00
0400
0A00
0400
0800
ENDCHAR
STARTCHAR 0158
ENCODING 344
SWIDTH 668 0
DWIDTH 13 0
BBX 11 20 1 0
BITMAP
2A80
1100
3F80
0A00
0000
AA00
5500
AA80
4140
A0A0
4040
A0A0
4040
A0A0
4140
AA80
5500
AA80
4140
A0A0
ENDCHAR
STARTCHAR 0159
ENCODING 345
SWIDTH 668 0
DWIDTH 13 0
BBX 11 20 1 0
BITMAP
2A80
1100
3F80
0A00
0000
AA80
5540
AAA0
4040
A0A0
4040
A0A0
4040
AAA0
5540
AA80
4140
A0A0
4040
A0A0
ENDCHAR
STARTCHAR 015A
ENCODING 346
SWIDTH 668 0
DWIDTH 13 0
BBX 11 20 1 0
BITMAP
0140
0280
0F00
1400
0000
2A80
5540
AAA0
4040
A0A0
4000
AA80
5540
2AA0
0040
A0A0
4040
AAA0
5540
2A80
ENDCHAR
STARTCHAR 015B
ENCODING 347
SWIDTH 668 0
DWIDTH 13 0
BBX 11 20 1 0
BITMAP
0140
0280
0F00
1400
0000
2A80
5540
AAA0
4040
A0A0
4000
AA80
5540
2AA0
0040
A0A0
4040
AAA0
5540
2A80
ENDCHAR
STARTCHAR 015E
ENCODING 350
SWIDTH 668 0
DWIDTH 13 0
BBX 11 19 1 -4
BITMAP
2A80
5540
AAA0
4040
A0A0
4000
AA80
5540
2AA0
0040
A0A0
4040
AAA0
5540
2A80
0400
2A00
1400
2800
ENDCHAR
STARTCHAR 015F
ENCODING 351
SWIDTH 668 0
DWIDTH 13 0
BBX 11 19 1 -4
BITMAP
2A80
5540
AAA0
4040
A0A0
4000
AA80
5540
2AA0
0040
A0A0
4040
AAA0
5540
2A80
0400
2A00
1400
2800
ENDCHAR
STARTCHAR 0160
ENCODING 352
SWIDTH 668 0
DWIDTH 13 0
BBX 11 20 1 0
BITMAP
2A80
1100
3F80
0A00
0000
2A80
5540
AAA0
4040
A0A0
4000
AA80
5540
2AA0
0040
A0A0
4040
AAA0
5540
2A80
ENDCHAR
STARTCHAR 0161
ENCODING 353
SWIDTH 668 0
DWIDTH 13 0
BBX 11 20 1 0
BITMAP
2A80
1100
3F80
0A00
0000
2A80
5540
AAA0
4040
A0A0
4000
AA80
5540
2AA0
0040
A0A0
4040
AAA0
5540
2A80
ENDCHAR
STARTCHAR 0162
ENCODING 354
SWIDTH 668 0
DWIDTH 13 0
BBX 11 19 1 -4
BITMAP
AAA0
5540
AAA0
0400
0A00
0400
0A00
0400
0A00
0400
0A00
0400
0A00
0400
0A00
0400
2A00
1400
2800
ENDCHAR
STARTCHAR 0163
ENCODING 355
SWIDTH 668 0
DWIDTH 13 0
BBX 11 19 1 -4
BITMAP
AAA0
5540
AAA0
0400
0A00
0400
0A00
0400
0A00
0400
0A00
0400
0A00
0400
0A00
0400
2A00
1400
2800
ENDCHAR
STARTCHAR 0164
ENCODING 356
SWIDTH 668 0
DWIDTH 13 0
BBX 11 20 1 0
BITMAP
2A80
1100
3F80
0A00
0000
AAA0
5540
AAA0
0400
0A00
0400
0A00
0400
0A00
0400
0A00
0400
0A00
0400
0A00
ENDCHAR
STARTCHAR 0165
ENCODING 357
SWIDTH 668 0
DWIDTH 13 0
BBX 11 20 1 0
BITMAP
2A80
1100
3F80
0A00
0000
AAA0
5540
AAA0
0400
0A00
0400
0A00
0400
0A00
0400
0A00
0400
0A00
0400
0A00
ENDCHAR
STARTCHAR 0166
ENCODING 358
SWIDTH 668 0
DWIDTH 13 0
BBX 11 15 1 0
BITMAP
AAA0
5540
AAA0
0400
0A00
0400
2A80
1500
2A80
0400
0A00
0400
0A00
0400
0A00
ENDCHAR
STARTCHAR 0167
ENCODING 359
SWIDTH 668 0
DWIDTH 13 0
BBX 11 15 1 0
BITMAP
AAA0
5540
AAA0
0400
0A00
0400
2A80
1500
2A80
0400
0A00
0400
0A00
0400
0A00
ENDCHAR
STARTCHAR 0168
ENCODING 360
SWIDTH 771 0
DWIDTH 15 0
BBX 13 20 1 0
BITMAP
1450
2A20
77F0
5140
0000
A028
4010
A028
4010
A028
4010
A028
4010
A028
4010
A028
5050
2AA0
1540
0A80
ENDCHAR
STARTCHAR 0169
ENCODING 361
SWIDTH 668 0
DWIDTH 13 0
BBX 11 20 1 0
BITMAP
28A0
5440
EFE0
A280
0000
A0A0
4040
A0A0
4040
A0A0
4040
A0A0
4040
A0A0
4040
A0A0
4040
AAA0
5540
2A80
ENDCHAR
STARTCHAR 016A
ENCODING 362
SWIDTH 771 0
DWIDTH 15 0
BBX 13 18 1 0
BITMAP
1FC0
1540
0000
A028
4010
A028
4010
A028
4010
A028
4010
A028
4010
A028
5050
2AA0
1540
0A80
ENDCHAR
STARTCHAR 016B
ENCODING 363
SWIDTH 668 0
DWIDTH 13 0
BBX 11 18 1 0
BITMAP
3F80
2A80
0000
A0A0
4040
A0A0
4040
A0A0
4040
A0A0
4040
A0A0
4040
A0A0
4040
AAA0
5540
2A80
ENDCHAR
STARTCHAR 016E
ENCODING 366
SWIDTH 771 0
DWIDTH 15 0
BBX 13 24 1 0
BITMAP
0A80
1540
2AA0
1040
28A0
1040
3FE0
0A80
0000
A028
4010
A028
4010
A028
4010
A028
4010
A028
4010
A028
5050
2AA0
1540
0A80
ENDCHAR
STARTCHAR 016F
ENCODING 367
SWIDTH 668 0
DWIDTH 13 0
BBX 11 24 1 0
BITMAP
1500
2A80
5540
2080
5140
2080
7FC0
1500
0000
A0A0
4040
A0A0
4040
A0A0
4040
A0A0
4040
A0A0
4040
A0A0
4040
AAA0
5540
2A80
ENDCHAR
STARTCHAR 0170
ENCODING 368
SWIDTH 771 0
DWIDTH 15 0
BBX 14 20 1 0
BITMAP
0514
0A28
3CF0
5140
0000
A028
4010
A028
4010
A028
4010
A028
4010
A028
4010
A028
5050
2AA0
1540
0A80
ENDCHAR
STARTCHAR 0171
ENCODING 369
SWIDTH 668 0
DWIDTH 13 0
BBX 13 20 1 0
BITMAP
0A28
1450
79E0
A280
0000
A0A0
4040
A0A0
4040
A0A0
4040
A0A0
4040
A0A0
4040
A0A0
4040
AAA0
5540
2A80
ENDCHAR
STARTCHAR 0172
ENCODING 370
SWIDTH 771 0
DWIDTH 15 0
BBX 13 19 1 -4
BITMAP
A028
4010
A028
4010
A028
4010
A028
4010
A028
4010
A028
5050
2AA0
1540
0A80
0100
02A0
0140
00A0
ENDCHAR
STARTCHAR 0173
ENCODING 371
SWIDTH 668 0
DWIDTH 13 0
BBX 11 19 1 -4
BITMAP
A0A0
4040
A0A0
4040
A0A0
4040
A0A0
4040
A0A0
4040
A0A0
4040
AAA0
5540
2A80
0100
02A0
0140
00A0
ENDCHAR
STARTCHAR 0174
ENCODING 372
SWIDTH 1080 0
DWIDTH 21 0
BBX 19 20 1 0
BITMAP
00A000
015000
03B800
02A800
000000
A0A0A0
404040
A0A0A0
404040
A0A0A0
404040
A0A0A0
404040
A0A0A0
404040
A0A0A0
515140
2AAA80
151500
0A0A00
ENDCHAR
STARTCHAR 0175
ENCODING 373
SWIDTH 1080 0
DWIDTH 21 0
BBX 19 20 1 0
BITMAP
00A000
015000
03B800
02A800
000000
A0A0A0
404040
A0A0A0
404040
A0A0A0
404040
A0A0A0
404040
A0A0A0
404040
A0A0A0
415040
AAAAA0
551540
2A0A80
ENDCHAR
STARTCHAR 0176
ENCODING 374
SWIDTH 668 0
DWIDTH 13 0
BBX 11 20 1 0
BITMAP
0A00
1500
3B80
2A80
0000
A0A0
4040
A0A0
4040
A0A0
4040
A0A0
5140
2A80
1500
0A00
0400
0A00
0400
0A00
ENDCHAR
STARTCHAR 0177
ENCODING 375
SWIDTH 668 0
DWIDTH 13 0
BBX 11 20 1 0
BITMAP
0A00
1500
3B80
2A80
0000
A0A0
4040
A0A0
4040
A0A0
4040
A0A0
4040
AAA0
5540
2A80
0400
0A00
0400
0A00
ENDCHAR
STARTCHAR 0178
ENCODING 376
SWIDTH 668 0
DWIDTH 13 0
BBX 11 18 1 0
BITMAP
3B80
2A80
0000
A0A0
4040
A0A0
4040
A0A0
4040
A0A0
5140
2A80
1500
0A00
0400
0A00
0400
0A00
ENDCHAR
STARTCHAR 0179
ENCODING 377
SWIDTH 668 0
DWIDTH 13 0
BBX 11 20 1 0
BITMAP
0140
0280
0F00
1400
0000
AAA0
5540
AAA0
0140
0280
0500
0A00
1400
2800
5000
A000
4000
AAA0
5540
AAA0
ENDCHAR
STARTCHAR 017A
ENCODING 378
SWIDTH 668 0
DWIDTH 13 0
BBX 11 20 1 0
BITMAP
0140
0280
0F00
1400
0000
AAA0
5540
AAA0
0040
00A0
0040
2AA0
5540
AA80
4000
A000
4000
AAA0
5540
AAA0
ENDCHAR
STARTCHAR 017B
ENCODING 379
SWIDTH 668 0
DWIDTH 13 0
BBX 11 18 1 0
BITMAP
0E00
0A00
0000
AAA0
5540
AAA0
0140
0280
0500
0A00
1400
2800
5000
A000
4000
AAA0
5540
AAA0
ENDCHAR
STARTCHAR 017C
ENCODING 380
SWIDTH 668 0
DWIDTH 13 0
BBX 11 18 1 0
BITMAP
0E00
0A00
0000
AAA0
5540
AAA0
0040
00A0
0040
2AA0
5540
AA80
4000
A000
4000
AAA0
5540
AAA0
ENDCHAR
STARTCHAR 017D
ENCODING 381
SWIDTH 668 0
DWIDTH 13 0
BBX 11 20 1 0
BITMAP
2A80
1100
3F80
0A00
0000
AAA0
5540
AAA0
0140
0280
0500
0A00
1400
2800
5000
A000
4000
AAA0
5540
AAA0
ENDCHAR
STARTCHAR 017E
ENCODING 382
SWIDTH 668 0
DWIDTH 13 0
BBX 11 20 1 0
BITMAP
2A80
1100
3F80
0A00
0000
AAA0
5540
AAA0
0040
00A0
0040
2AA0
5540
AA80
4000
A000
4000
AAA0
5540
AAA0
ENDCHAR
STARTCHAR 0192
ENCODING 402
SWIDTH 668 0
DWIDTH 13 0
BBX 11 19 1 -4
BITMAP
02A0
0540
0AA0
0400
0A00
0400
2A80
1500
2A80
0400
0A00
0400
0A00
0400
0A00
0400
AA00
5400
A800
ENDCHAR
STARTCHAR 01A0
ENCODING 416
SWIDTH 925 0
DWIDTH 18 0
BBX 17 17 1 0
BITMAP
000280
000100
2AAA80
555500
AAAA00
401000
A02800
401000
A02800
401000
A02800
401000
A02800
401000
AAA800
555000
2AA000
ENDCHAR
STARTCHAR 01A1
ENCODING 417
SWIDTH 822 0
DWIDTH 16 0
BBX 15 17 1 0
BITMAP
000A
0004
2AAA
5554
AAA8
4040
A0A0
4040
A0A0
4040
A0A0
4040
A0A0
4040
AAA0
5540
2A80
ENDCHAR
STARTCHAR 01AF
ENCODING 431
SWIDTH 925 0
DWIDTH 18 0
BBX 17 17 1 0
BITMAP
000280
000100
A02A80
401500
A02A00
401000
A02800
401000
A02800
401000
A02800
401000
A02800
505000
2AA000
154000
0A8000
ENDCHAR
STARTCHAR 01B0
ENCODING 432
SWIDTH 822 0
DWIDTH 16 0
BBX 15 17 1 0
BITMAP
000A
0004
A0AA
4054
A0A8
4040
A0A0
4040
A0A0
4040
A0A0
4040
A0A0
4040
AAA0
5540
2A80
ENDCHAR
STARTCHAR 01CD
ENCODING 461
SWIDTH 668 0
DWIDTH 13 0
BBX 11 20 1 0
BITMAP
2A80
1100
3F80
0A00
0000
0A00
1500
2A80
5140
A0A0
4040
A0A0
4040
AAA0
5540
AAA0
4040
A0A0
4040
A0A0
ENDCHAR
STARTCHAR 01CE
ENCODING 462
SWIDTH 668 0
DWIDTH 13 0
BBX 11 20 1 0
BITMAP
2A80
1100
3F80
0A00
0000
2A80
5540
AAA0
4040
A0A0
4040
A0A0
4040
AAA0
5540
AAA0
4040
A0A0
4040
A0A0
ENDCHAR
STARTCHAR 01CF
ENCODING 463
SWIDTH 462 0
DWIDTH 9 0
BBX 7 20 1 0
BITMAP
AA
44
FE
28
00
AA
54
AA
10
28
10
28
10
28
10
28
10
AA
54
AA
ENDCHAR
STARTCHAR 01D0
ENCODING 464
SWIDTH 257 0
DWIDTH 5 0
BBX 6 20 0 0
BITMAP
54
88
FC
50
00
50
20
50
20
50
20
50
20
50
20
50
20
50
20
50
ENDCHAR
STARTCHAR 01D1
ENCODING 465
SWIDTH 771 0
DWIDTH 15 0
BBX 13 20 1 0
BITMAP
1540
0880
1FC0
0500
0000
0A80
1540
2AA0
5050
A028
4010
A028
4010
A028
4010
A028
5050
2AA0
1540
0A80
ENDCHAR
STARTCHAR 01D2
ENCODING 466
SWIDTH 668 0
DWIDTH 13 0
BBX 11 20 1 0
BITMAP
2A80
1100
3F80
0A00
0000
2A80
5540
AAA0
4040
A0A0
4040
A0A0
4040
A0A0
4040
A0A0
4040
AAA0
5540
2A80
ENDCHAR
STARTCHAR 01D3
ENCODING 467
SWIDTH 771 0
DWIDTH 15 0
BBX 13 20 1 0
BITMAP
1540
0880
1FC0
0500
0000
A028
4010
A028
4010
A028
4010
A028
4010
A028
4010
A028
5050
2AA0
1540
0A80
ENDCHAR
STARTCHAR 01D4
ENCODING 468
SWIDTH 668 0
DWIDTH 13 0
BBX 11 20 1 0
BITMAP
2A80
1100
3F80
0A00
0000
A0A0
4040
A0A0
4040
A0A0
4040
A0A0
4040
A0A0
4040
A0A0
4040
AAA0
5540
2A80
ENDCHAR
STARTCHAR 01D5
ENCODING 469
SWIDTH 771 0
DWIDTH 15 0
BBX 13 22 1 0
BITMAP
1540
0A80
1540
0000
1DC0
1540
0000
A028
4010
A028
4010
A028
4010
A028
4010
A028
4010
A028
5050
2AA0
1540
0A80
ENDCHAR
STARTCHAR 01D6
ENCODING 470
SWIDTH 668 0
DWIDTH 13 0
BBX 11 22 1 0
BITMAP
2A80
1500
2A80
0000
3B80
2A80
0000
A0A0
4040
A0A0
4040
A0A0
4040
A0A0
4040
A0A0
4040
A0A0
4040
AAA0
5540
2A80
ENDCHAR
STARTCHAR 01D7
ENCODING 471
SWIDTH 771 0
DWIDTH 15 0
BBX 13 24 1 0
BITMAP
00A0
0140
0280
0500
0A00
0000
1DC0
1540
0000
A028
4010
A028
4010
A028
4010
A028
4010
A028
4010
A028
5050
2AA0
1540
0A80
ENDCHAR
STARTCHAR 01D8
ENCODING 472
SWIDTH 668 0
DWIDTH 13 0
BBX 11 24 1 0
BITMAP
0140
0280
0500
0A00
1400
0000
3B80
2A80
0000
A0A0
4040
A0A0
4040
A0A0
4040
A0A0
4040
A0A0
4040
A0A0
4040
AAA0
5540
2A80
ENDCHAR
STARTCHAR 01D9
ENCODING 473
SWIDTH 771 0
DWIDTH 15 0
BBX 13 24 1 0
BITMAP
1540
0880
1540
0A80
0500
0000
1DC0
1540
0000
A028
4010
A028
4010
A028
4010
A028
4010
A028
4010
A028
5050
2AA0
1540
0A80
ENDCHAR
STARTCHAR 01DA
ENCODING 474
SWIDTH 668 0
DWIDTH 13 0
BBX 11 24 1 0
BITMAP
2A80
1100
2A80
1500
0A00
0000
3B80
2A80
0000
A0A0
4040
A0A0
4040
A0A0
4040
A0A0
4040
A0A0
4040
A0A0
4040
AAA0
5540
2A80
ENDCHAR
STARTCHAR 01DB
ENCODING 475
SWIDTH 771 0
DWIDTH 15 0
BBX 13 24 1 0
BITMAP
5000
2800
1400
0A00
0500
0000
1DC0
1540
0000
A028
4010
A028
4010
A028
4010
A028
4010
A028
4010
A028
5050
2AA0
1540
0A80
ENDCHAR
STARTCHAR 01DC
ENCODING 476
SWIDTH 668 0
DWIDTH 13 0
BBX 11 24 1 0
BITMAP
A000
5000
2800
1400
0A00
0000
3B80
2A80
0000
A0A0
4040
A0A0
4040
A0A0
4040
A0A0
4040
A0A0
4040
A0A0
4040
AAA0
5540
2A80
ENDCHAR
STARTCHAR 0218
ENCODING 536
SWIDTH 668 0
DWIDTH 13 0
BBX 11 21 1 -6
BITMAP
2A80
5540
AAA0
4040
A0A0
4000
AA80
5540
2AA0
0040
A0A0
4040
AAA0
5540
2A80
0000
0A00
0400
0A00
0400
0800
ENDCHAR
STARTCHAR 0219
ENCODING 537
SWIDTH 668 0
DWIDTH 13 0
BBX 11 21 1 -6
BITMAP
2A80
5540
AAA0
4040
A0A0
4000
AA80
5540
2AA0
0040
A0A0
4040
AAA0
5540
2A80
0000
0A00
0400
0A00
0400
0800
ENDCHAR
STARTCHAR 021A
ENCODING 538
SWIDTH 668 0
DWIDTH 13 0
BBX 11 21 1 -6
BITMAP
AAA0
5540
AAA0
0400
0A00
0400
0A00
0400
0A00
0400
0A00
0400
0A00
0400
0A00
0000
0A00
0400
0A00
0400
0800
ENDCHAR
STARTCHAR 021B
ENCODING 539
SWIDTH 668 0
DWIDTH 13 0
BBX 11 21 1 -6
BITMAP
AAA0
5540
AAA0
0400
0A00
0400
0A00
0400
0A00
0400
0A00
0400
0A00
0400
0A00
0000
0A00
0400
0A00
0400
0800
ENDCHAR
STARTCHAR 02BC
ENCODING 700
SWIDTH 154 0
DWIDTH 3 0
BBX 3 5 0 10
BITMAP
A0
40
A0
40
80
ENDCHAR
STARTCHAR 02C6
ENCODING 710
SWIDTH 360 0
DWIDTH 7 0
BBX 7 4 0 16
BITMAP
28
54
EE
AA
ENDCHAR
STARTCHAR 02C7
ENCODING 711
SWIDTH 360 0
DWIDTH 7 0
BBX 7 4 0 16
BITMAP
AA
44
FE
28
ENDCHAR
STARTCHAR 02D8
ENCODING 728
SWIDTH 462 0
DWIDTH 9 0
BBX 9 4 0 16
BITMAP
A280
4100
FF80
2A00
ENDCHAR
STARTCHAR 02D9
ENCODING 729
SWIDTH 154 0
DWIDTH 3 0
BBX 3 2 0 16
BITMAP
E0
A0
ENDCHAR
STARTCHAR 02DA
ENCODING 730
SWIDTH 462 0
DWIDTH 9 0
BBX 9 8 0 16
BITMAP
2A00
5500
AA80
4100
A280
4100
FF80
2A00
ENDCHAR
STARTCHAR 02DB
ENCODING 731
SWIDTH 205 0
DWIDTH 4 0
BBX 5 4 1 -4
BITMAP
40
A8
50
28
ENDCHAR
STARTCHAR 02DC
ENCODING 732
SWIDTH 565 0
DWIDTH 11 0
BBX 11 4 0 16
BITMAP
28A0
5440
EFE0
A280
ENDCHAR
STARTCHAR 02DD
ENCODING 733
SWIDTH 617 0
DWIDTH 12 0
BBX 13 4 0 16
BITMAP
0A28
1450
79E0
A280
ENDCHAR
STARTCHAR 0300
ENCODING 768
SWIDTH 0 0
DWIDTH 0 0
BBX 7 4 -8 16
BITMAP
A0
50
3C
0A
ENDCHAR
STARTCHAR 0301
ENCODING 769
SWIDTH 0 0
DWIDTH 0 0
BBX 6 4 -6 16
BITMAP
08
14
78
A0
ENDCHAR
STARTCHAR 0302
ENCODING 770
SWIDTH 0 0
DWIDTH 0 0
BBX 7 4 -7 16
BITMAP
28
54
EE
AA
ENDCHAR
STARTCHAR 0303
ENCODING 771
SWIDTH 0 0
DWIDTH 0 0
BBX 11 4 -11 16
BITMAP
28A0
5440
EFE0
A280
ENDCHAR
STARTCHAR 0304
ENCODING 772
SWIDTH 0 0
DWIDTH 0 0
BBX 7 2 -7 16
BITMAP
FE
AA
ENDCHAR
STARTCHAR 0306
ENCODING 774
SWIDTH 0 0
DWIDTH 0 0
BBX 9 4 -9 16
BITMAP
A280
4100
FF80
2A00
ENDCHAR
STARTCHAR 0307
ENCODING 775
SWIDTH 0 0
DWIDTH 0 0
BBX 3 2 -3 16
BITMAP
E0
A0
ENDCHAR
STARTCHAR 0308
ENCODING 776
SWIDTH 0 0
DWIDTH 0 0
BBX 7 2 -7 16
BITMAP
EE
AA
ENDCHAR
STARTCHAR 0309
ENCODING 777
SWIDTH 0 0
DWIDTH 0 0
BBX 7 6 -7 16
BITMAP
A8
54
AA
04
3E
28
ENDCHAR
STARTCHAR 030A
ENCODING 778
SWIDTH 0 0
DWIDTH 0 0
BBX 9 8 -9 16
BITMAP
2A00
5500
AA80
4100
A280
4100
FF80
2A00
ENDCHAR
STARTCHAR 030B
ENCODING 779
SWIDTH 0 0
DWIDTH 0 0
BBX 12 4 -12 16
BITMAP
0A20
1450
79E0
A280
ENDCHAR
STARTCHAR 030C
ENCODING 780
SWIDTH 0 0
DWIDTH 0 0
BBX 7 4 -7 16
BITMAP
AA
44
FE
28
ENDCHAR
STARTCHAR 031B
ENCODING 795
SWIDTH 0 0
DWIDTH 0 0
BBX 7 5 -7 12
BITMAP
0A
04
AA
54
A8
ENDCHAR
STARTCHAR 0323
ENCODING 803
SWIDTH 0 0
DWIDTH 0 0
BBX 3 3 -3 -4
BITMAP
A0
40
A0
ENDCHAR
STARTCHAR 0326
ENCODING 806
SWIDTH 0 0
DWIDTH 0 0
BBX 3 5 -3 -6
BITMAP
A0
40
A0
40
80
ENDCHAR
STARTCHAR 0327
ENCODING 807
SWIDTH 0 0
DWIDTH 0 0
BBX 5 4 -5 -4
BITMAP
10
A8
50
A0
ENDCHAR
STARTCHAR 0328
ENCODING 808
SWIDTH 0 0
DWIDTH 0 0
BBX 4 4 -3 -4
BITMAP
40
B0
40
30
ENDCHAR
STARTCHAR 0335
ENCODING 821
SWIDTH 0 0
DWIDTH 0 0
BBX 7 3 -8 6
BITMAP
AA
54
AA
ENDCHAR
STARTCHAR 0336
ENCODING 822
SWIDTH 0 0
DWIDTH 0 0
BBX 17 3 -17 10
BITMAP
AAAA80
555500
AAAA80
ENDCHAR
STARTCHAR 0337
ENCODING 823
SWIDTH 0 0
DWIDTH 0 0
BBX 7 3 -8 6
BITMAP
AA
54
AA
ENDCHAR
STARTCHAR 0338
ENCODING 824
SWIDTH 0 0
DWIDTH 0 0
BBX 7 15 -7 0
BITMAP
0A
04
0A
14
08
14
28
10
28
50
20
50
A0
40
A0
ENDCHAR
STARTCHAR 0401
ENCODING 1025
SWIDTH 668 0
DWIDTH 13 0
BBX 11 18 1 0
BITMAP
3B80
2A80
0000
0AA0
1540
2AA0
5000
A000
4000
AA80
5500
AA80
4000
A000
5000
2AA0
1540
0AA0
ENDCHAR
STARTCHAR 0410
ENCODING 1040
SWIDTH 668 0
DWIDTH 13 0
BBX 11 15 1 0
BITMAP
0A00
1500
2A80
5140
A0A0
4040
A0A0
4040
AAA0
5540
AAA0
4040
A0A0
4040
A0A0
ENDCHAR
STARTCHAR 0411
ENCODING 1041
SWIDTH 668 0
DWIDTH 13 0
BBX 11 15 1 0
BITMAP
AAA0
5540
AAA0
4000
A000
4000
AA80
5540
AAA0
4040
A0A0
4040
AAA0
5540
2A80
ENDCHAR
STARTCHAR 0412
ENCODING 1042
SWIDTH 668 0
DWIDTH 13 0
BBX 11 15 1 0
BITMAP
AA80
5540
AAA0
4040
A0A0
4140
AA80
5540
AAA0
4040
A0A0
4040
AAA0
5540
AA80
ENDCHAR
STARTCHAR 0413
ENCODING 1043
SWIDTH 668 0
DWIDTH 13 0
BBX 11 15 1 0
BITMAP
2AA0
5540
AAA0
4000
A000
4000
A000
4000
A000
4000
A000
4000
A000
4000
A000
ENDCHAR
STARTCHAR 0414
ENCODING 1044
SWIDTH 771 0
DWIDTH 15 0
BBX 15 17 0 -2
BITMAP
0AA8
1550
2AA8
1010
2828
1010
2828
1010
2828
1010
2828
1010
2AA8
5554
AAAA
4004
A00A
ENDCHAR
STARTCHAR 0415
ENCODING 1045
SWIDTH 668 0
DWIDTH 13 0
BBX 11 15 1 0
BITMAP
0AA0
1540
2AA0
5000
A000
4000
AA80
5500
AA80
4000
A000
5000
2AA0
1540
0AA0
ENDCHAR
STARTCHAR 0416
ENCODING 1046
SWIDTH 1080 0
DWIDTH 21 0
BBX 19 15 1 0
BITMAP
A0A0A0
404040
A0A0A0
504140
28A280
144500
0AAA00
055400
0AAA00
144500
28A280
504140
A0A0A0
404040
A0A0A0
ENDCHAR
STARTCHAR 0417
ENCODING 1047
SWIDTH 771 0
DWIDTH 15 0
BBX 13 15 1 0
BITMAP
0A80
1540
2AA0
5050
A028
0050
0AA0
0540
0AA0
0050
A028
5050
2AA0
1540
0A80
ENDCHAR
STARTCHAR 0418
ENCODING 1048
SWIDTH 771 0
DWIDTH 15 0
BBX 13 15 1 0
BITMAP
A028
4010
A028
4010
A028
4050
A0A8
4150
A2A8
4510
AA28
5410
A828
5010
A028
ENDCHAR
STARTCHAR 0419
ENCODING 1049
SWIDTH 771 0
DWIDTH 15 0
BBX 13 20 1 0
BITMAP
28A0
1040
3FE0
0A80
0000
A028
4010
A028
4010
A028
4050
A0A8
4150
A2A8
4510
AA28
5410
A828
5010
A028
ENDCHAR
STARTCHAR 041A
ENCODING 1050
SWIDTH 668 0
DWIDTH 13 0
BBX 11 15 1 0
BITMAP
A0A0
4040
A0A0
4140
A280
4500
AA00
5400
AA00
4500
A280
4140
A0A0
4040
A0A0
ENDCHAR
STARTCHAR 041B
ENCODING 1051
SWIDTH 771 0
DWIDTH 15 0
BBX 13 15 1 0
BITMAP
0AA0
1550
2AA8
1010
2828
1010
2828
1010
2828
1010
2828
1010
A828
5010
A028
ENDCHAR
STARTCHAR 041C
ENCODING 1052
SWIDTH 977 0
DWIDTH 19 0
BBX 17 15 1 0
BITMAP
A00280
500500
A80A80
541500
AA2A80
455100
A2A280
414100
A08280
400100
A00280
400100
A00280
400100
A00280
ENDCHAR
STARTCHAR 041D
ENCODING 1053
SWIDTH 771 0
DWIDTH 15 0
BBX 13 15 1 0
BITMAP
A028
4010
A028
4010
A028
4010
AAA8
5550
AAA8
4010
A028
4010
A028
4010
A028
ENDCHAR
STARTCHAR 041E
ENCODING 1054
SWIDTH 771 0
DWIDTH 15 0
BBX 13 15 1 0
BITMAP
0A80
1540
2AA0
5050
A028
4010
A028
4010
A028
4010
A028
5050
2AA0
1540
0A80
ENDCHAR
STARTCHAR 041F
ENCODING 1055
SWIDTH 771 0
DWIDTH 15 0
BBX 13 15 1 0
BITMAP
2AA0
5550
AAA8
4010
A028
4010
A028
4010
A028
4010
A028
4010
A028
4010
A028
ENDCHAR
STARTCHAR 0420
ENCODING 1056
SWIDTH 668 0
DWIDTH 13 0
BBX 11 15 1 0
BITMAP
AA00
5500
AA80
4140
A0A0
4040
A0A0
4040
A0A0
4140
AA80
5500
AA00
4000
A000
ENDCHAR
STARTCHAR 0421
ENCODING 1057
SWIDTH 771 0
DWIDTH 15 0
BBX 13 15 1 0
BITMAP
0A80
1540
2AA0
5050
A028
4010
A028
4000
A000
4000
A028
5050
2AA0
1540
0A80
ENDCHAR
STARTCHAR 0422
ENCODING 1058
SWIDTH 668 0
DWIDTH 13 0
BBX 11 15 1 0
BITMAP
AAA0
5540
AAA0
0400
0A00
0400
0A00
0400
0A00
0400
0A00
0400
0A00
0400
0A00
ENDCHAR
STARTCHAR 0423
ENCODING 1059
SWIDTH 668 0
DWIDTH 13 0
BBX 11 15 1 0
BITMAP
A0A0
4040
A0A0
4040
A0A0
5040
2AA0
1540
0AA0
0040
00A0
0040
AAA0
5540
AA80
ENDCHAR
STARTCHAR 0424
ENCODING 1060
SWIDTH 874 0
DWIDTH 17 0
BBX 15 19 1 -2
BITMAP
0280
0100
0AA0
1550
2AA8
5114
A28A
4104
A28A
4104
A28A
4104
A28A
5114
2AA8
1550
0AA0
0100
0280
ENDCHAR
STARTCHAR 0425
ENCODING 1061
SWIDTH 771 0
DWIDTH 15 0
BBX 13 15 1 0
BITMAP
A028
4010
A028
4010
A028
5050
2AA0
1540
2AA0
5050
A028
4010
A028
4010
A028
ENDCHAR
STARTCHAR 0426
ENCODING 1062
SWIDTH 822 0
DWIDTH 16 0
BBX 15 17 1 -2
BITMAP
A028
4010
A028
4010
A028
4010
A028
4010
A028
4010
A028
4010
AAA8
5554
2AAA
0004
000A
ENDCHAR
STARTCHAR 0427
ENCODING 1063
SWIDTH 668 0
DWIDTH 13 0
BBX 11 15 1 0
BITMAP
A0A0
4040
A0A0
4040
A0A0
5040
2AA0
1540
0AA0
0040
00A0
0040
00A0
0040
00A0
ENDCHAR
STARTCHAR 0428
ENCODING 1064
SWIDTH 1080 0
DWIDTH 21 0
BBX 19 15 1 0
BITMAP
A0A0A0
404040
A0A0A0
404040
A0A0A0
404040
A0A0A0
404040
A0A0A0
404040
A0A0A0
404040
AAAAA0
555540
2AAA80
ENDCHAR
STARTCHAR 0429
ENCODING 1065
SWIDTH 1131 0
DWIDTH 22 0
BBX 21 17 1 -2
BITMAP
A0A0A0
404040
A0A0A0
404040
A0A0A0
404040
A0A0A0
404040
A0A0A0
404040
A0A0A0
404040
AAAAA0
555550
2AAAA8
000010
000028
ENDCHAR
STARTCHAR 042A
ENCODING 1066
SWIDTH 771 0
DWIDTH 15 0
BBX 13 15 1 0
BITMAP
A800
5000
A800
1000
2800
1000
2AA0
1550
2AA8
1010
2828
1010
2AA8
1550
0AA0
ENDCHAR
STARTCHAR 042B
ENCODING 1067
SWIDTH 925 0
DWIDTH 18 0
BBX 16 15 1 0
BITMAP
A005
4002
A005
4002
A005
4002
AA85
5542
AAA5
4042
A0A5
4042
AAA5
5542
2A85
ENDCHAR
STARTCHAR 042C
ENCODING 1068
SWIDTH 668 0
DWIDTH 13 0
BBX 11 15 1 0
BITMAP
A000
4000
A000
4000
A000
4000
AA80
5540
AAA0
4040
A0A0
4040
AAA0
5540
2A80
ENDCHAR
STARTCHAR 042D
ENCODING 1069
SWIDTH 771 0
DWIDTH 15 0
BBX 13 15 1 0
BITMAP
0A80
1540
2AA0
5050
A028
0010
0AA8
0550
0AA8
0010
A028
5050
2AA0
1540
0A80
ENDCHAR
STARTCHAR 042E
ENCODING 1070
SWIDTH 1080 0
DWIDTH 21 0
BBX 19 15 1 0
BITMAP
A02A00
405500
A0AA80
414140
A280A0
410040
AA80A0
550040
AA80A0
410040
A280A0
414140
A0AA80
405500
A02A00
ENDCHAR
STARTCHAR 042F
ENCODING 1071
SWIDTH 668 0
DWIDTH 13 0
BBX 11 15 1 0
BITMAP
0AA0
1540
2AA0
5040
A0A0
4040
A0A0
4040
A0A0
5040
2AA0
1540
2AA0
5040
A0A0
ENDCHAR
STARTCHAR 0430
ENCODING 1072
SWIDTH 668 0
DWIDTH 13 0
BBX 11 15 1 0
BITMAP
2A80
5540
AAA0
4040
A0A0
4040
A0A0
4040
AAA0
5540
AAA0
4040
A0A0
4040
A0A0
ENDCHAR
STARTCHAR 0431
ENCODING 1073
SWIDTH 668 0
DWIDTH 13 0
BBX 11 15 1 0
BITMAP
AAA0
5540
AAA0
4000
A000
4000
AA80
5540
AAA0
4040
A0A0
4040
AAA0
5540
2A80
ENDCHAR
STARTCHAR 0432
ENCODING 1074
SWIDTH 668 0
DWIDTH 13 0
BBX 11 15 1 0
BITMAP
AA80
5540
AAA0
4040
A0A0
4140
AA80
5500
AA80
4140
A0A0
4040
AAA0
5540
AA80
ENDCHAR
STARTCHAR 0433
ENCODING 1075
SWIDTH 565 0
DWIDTH 11 0
BBX 9 15 1 0
BITMAP
2A80
5500
AA80
4000
A000
4000
A000
4000
A000
4000
A000
4000
A000
4000
A000
ENDCHAR
STARTCHAR 0434
ENCODING 1076
SWIDTH 771 0
DWIDTH 15 0
BBX 15 17 0 -2
BITMAP
0AA8
1550
2AA8
1010
2828
1010
2828
1010
2828
1010
2828
1010
2AA8
5554
AAAA
4004
A00A
ENDCHAR
STARTCHAR 0435
ENCODING 1077
SWIDTH 668 0
DWIDTH 13 0
BBX 11 15 1 0
BITMAP
2AA0
5540
AAA0
4000
A000
4000
AA80
5500
AA80
4000
A000
4000
AAA0
5540
2AA0
ENDCHAR
STARTCHAR 0436
ENCODING 1078
SWIDTH 1080 0
DWIDTH 21 0
BBX 19 15 1 0
BITMAP
A0A0A0
404040
A0A0A0
404040
A0A0A0
504140
2AAA80
155500
2AAA80
504140
A0A0A0
404040
A0A0A0
404040
A0A0A0
ENDCHAR
STARTCHAR 0437
ENCODING 1079
SWIDTH 668 0
DWIDTH 13 0
BBX 11 15 1 0
BITMAP
2A80
5540
AAA0
4040
A0A0
0140
0A80
0500
0A80
0140
A0A0
4040
AAA0
5540
2A80
ENDCHAR
STARTCHAR 0438
ENCODING 1080
SWIDTH 668 0
DWIDTH 13 0
BBX 11 15 1 0
BITMAP
A0A0
4040
A0A0
4040
A0A0
4040
A0A0
4140
A2A0
4540
AAA0
5440
A8A0
5040
A0A0
ENDCHAR
STARTCHAR 0439
ENCODING 1081
SWIDTH 668 0
DWIDTH 13 0
BBX 11 20 1 0
BITMAP
5140
2080
7FC0
1500
0000
A0A0
4040
A0A0
4040
A0A0
4040
A0A0
4140
A2A0
4540
AAA0
5440
A8A0
5040
A0A0
ENDCHAR
STARTCHAR 043A
ENCODING 1082
SWIDTH 668 0
DWIDTH 13 0
BBX 11 15 1 0
BITMAP
A0A0
4040
A0A0
4040
A0A0
4140
AA80
5500
AA80
4140
A0A0
4040
A0A0
4040
A0A0
ENDCHAR
STARTCHAR 043B
ENCODING 1083
SWIDTH 771 0
DWIDTH 15 0
BBX 13 15 1 0
BITMAP
0AA0
1550
2AA8
1010
2828
1010
2828
1010
2828
1010
2828
1010
A828
5010
A028
ENDCHAR
STARTCHAR 043C
ENCODING 1084
SWIDTH 874 0
DWIDTH 17 0
BBX 15 15 1 0
BITMAP
A00A
5014
A82A
5454
AAAA
4544
A28A
4104
A00A
4004
A00A
4004
A00A
4004
A00A
ENDCHAR
STARTCHAR 043D
ENCODING 1085
SWIDTH 668 0
DWIDTH 13 0
BBX 11 15 1 0
BITMAP
A0A0
4040
A0A0
4040
A0A0
4040
AAA0
5540
AAA0
4040
A0A0
4040
A0A0
4040
A0A0
ENDCHAR
STARTCHAR 043E
ENCODING 1086
SWIDTH 668 0
DWIDTH 13 0
BBX 11 15 1 0
BITMAP
2A80
5540
AAA0
4040
A0A0
4040
A0A0
4040
A0A0
4040
A0A0
4040
AAA0
5540
2A80
ENDCHAR
STARTCHAR 043F
ENCODING 1087
SWIDTH 668 0
DWIDTH 13 0
BBX 11 15 1 0
BITMAP
2A80
5540
AAA0
4040
A0A0
4040
A0A0
4040
A0A0
4040
A0A0
4040
A0A0
4040
A0A0
ENDCHAR
STARTCHAR 0440
ENCODING 1088
SWIDTH 668 0
DWIDTH 13 0
BBX 11 15 1 0
BITMAP
AA80
5540
AAA0
4040
A0A0
4040
A0A0
4040
AAA0
5540
AA80
4000
A000
4000
A000
ENDCHAR
STARTCHAR 0441
ENCODING 1089
SWIDTH 668 0
DWIDTH 13 0
BBX 11 15 1 0
BITMAP
2A80
5540
AAA0
4040
A0A0
4040
A0A0
4000
A000
4000
A0A0
4040
AAA0
5540
2A80
ENDCHAR
STARTCHAR 0442
ENCODING 1090
SWIDTH 668 0
DWIDTH 13 0
BBX 11 15 1 0
BITMAP
AAA0
5540
AAA0
0400
0A00
0400
0A00
0400
0A00
0400
0A00
0400
0A00
0400
0A00
ENDCHAR
STARTCHAR 0443
ENCODING 1091
SWIDTH 668 0
DWIDTH 13 0
BBX 11 15 1 0
BITMAP
A0A0
4040
A0A0
4040
A0A0
4040
AAA0
5540
2AA0
0040
00A0
0040
AAA0
5540
AA80
ENDCHAR
STARTCHAR 0444
ENCODING 1092
SWIDTH 874 0
DWIDTH 17 0
BBX 15 19 1 -2
BITMAP
0280
0100
2AA8
5554
AAAA
4104
A28A
4104
A28A
4104
A28A
4104
A28A
4104
AAAA
5554
2AA8
0100
0280
ENDCHAR
STARTCHAR 0445
ENCODING 1093
SWIDTH 668 0
DWIDTH 13 0
BBX 11 15 1 0
BITMAP
A0A0
4040
A0A0
4040
A0A0
5140
2A80
1500
2A80
5140
A0A0
4040
A0A0
4040
A0A0
ENDCHAR
STARTCHAR 0446
ENCODING 1094
SWIDTH 720 0
DWIDTH 14 0
BBX 13 17 1 -2
BITMAP
A0A0
4040
A0A0
4040
A0A0
4040
A0A0
4040
A0A0
4040
A0A0
4040
AAA0
5550
2AA8
0010
0028
ENDCHAR
STARTCHAR 0447
ENCODING 1095
SWIDTH 668 0
DWIDTH 13 0
BBX 11 15 1 0
BITMAP
A0A0
4040
A0A0
4040
A0A0
4040
AAA0
5540
2AA0
0040
00A0
0040
00A0
0040
00A0
ENDCHAR
STARTCHAR 0448
ENCODING 1096
SWIDTH 874 0
DWIDTH 17 0
BBX 15 15 1 0
BITMAP
A28A
4104
A28A
4104
A28A
4104
A28A
4104
A28A
4104
A28A
4104
AAAA
5554
2AA8
ENDCHAR
STARTCHAR 0449
ENCODING 1097
SWIDTH 925 0
DWIDTH 18 0
BBX 17 17 1 -2
BITMAP
A28A00
410400
A28A00
410400
A28A00
410400
A28A00
410400
A28A00
410400
A28A00
410400
AAAA00
555500
2AAA80
000100
000280
ENDCHAR
STARTCHAR 044A
ENCODING 1098
SWIDTH 771 0
DWIDTH 15 0
BBX 13 15 1 0
BITMAP
A800
5000
A800
1000
2800
1000
2AA0
1550
2AA8
1010
2828
1010
2AA8
1550
0AA0
ENDCHAR
STARTCHAR 044B
ENCODING 1099
SWIDTH 925 0
DWIDTH 18 0
BBX 16 15 1 0
BITMAP
A005
4002
A005
4002
A005
4002
AA85
5542
AAA5
4042
A0A5
4042
AAA5
5542
2A85
ENDCHAR
STARTCHAR 044C
ENCODING 1100
SWIDTH 668 0
DWIDTH 13 0
BBX 11 15 1 0
BITMAP
A000
4000
A000
4000
A000
4000
AA80
5540
AAA0
4040
A0A0
4040
AAA0
5540
2A80
ENDCHAR
STARTCHAR 044D
ENCODING 1101
SWIDTH 771 0
DWIDTH 15 0
BBX 13 15 1 0
BITMAP
2AA0
5550
AAA8
4010
A028
0010
0AA8
0550
0AA8
0010
A028
4010
AAA8
5550
2AA0
ENDCHAR
STARTCHAR 044E
ENCODING 1102
SWIDTH 977 0
DWIDTH 19 0
BBX 17 15 1 0
BITMAP
A0AA00
415500
A2AA80
410100
A28280
410100
AA8280
550100
AA8280
410100
A28280
410100
A2AA80
415500
A0AA00
ENDCHAR
STARTCHAR 044F
ENCODING 1103
SWIDTH 668 0
DWIDTH 13 0
BBX 11 15 1 0
BITMAP
2AA0
5540
AAA0
4040
A0A0
4040
A0A0
4040
AAA0
5540
2AA0
5040
A0A0
4040
A0A0
ENDCHAR
STARTCHAR 0451
ENCODING 1105
SWIDTH 668 0
DWIDTH 13 0
BBX 11 18 1 0
BITMAP
3B80
2A80
0000
2AA0
5540
AAA0
4000
A000
4000
AA80
5500
AA80
4000
A000
4000
AAA0
5540
2AA0
ENDCHAR
STARTCHAR 1E80
ENCODING 7808
SWIDTH 1080 0
DWIDTH 21 0
BBX 19 20 1 0
BITMAP
0A0000
050000
03C000
00A000
000000
A0A0A0
404040
A0A0A0
404040
A0A0A0
404040
A0A0A0
404040
A0A0A0
404040
A0A0A0
515140
2AAA80
151500
0A0A00
ENDCHAR
STARTCHAR 1E81
ENCODING 7809
SWIDTH 1080 0
DWIDTH 21 0
BBX 19 20 1 0
BITMAP
0A0000
050000
03C000
00A000
000000
A0A0A0
404040
A0A0A0
404040
A0A0A0
404040
A0A0A0
404040
A0A0A0
404040
A0A0A0
415040
AAAAA0
551540
2A0A80
ENDCHAR
STARTCHAR 1E82
ENCODING 7810
SWIDTH 1080 0
DWIDTH 21 0
BBX 19 20 1 0
BITMAP
001400
002800
00F000
014000
000000
A0A0A0
404040
A0A0A0
404040
A0A0A0
404040
A0A0A0
404040
A0A0A0
404040
A0A0A0
515140
2AAA80
151500
0A0A00
ENDCHAR
STARTCHAR 1E83
ENCODING 7811
SWIDTH 1080 0
DWIDTH 21 0
BBX 19 20 1 0
BITMAP
001400
002800
00F000
014000
000000
A0A0A0
404040
A0A0A0
404040
A0A0A0
404040
A0A0A0
404040
A0A0A0
404040
A0A0A0
415040
AAAAA0
551540
2A0A80
ENDCHAR
STARTCHAR 1E84
ENCODING 7812
SWIDTH 1080 0
DWIDTH 21 0
BBX 19 18 1 0
BITMAP
03B800
02A800
000000
A0A0A0
404040
A0A0A0
404040
A0A0A0
404040
A0A0A0
404040
A0A0A0
404040
A0A0A0
515140
2AAA80
151500
0A0A00
ENDCHAR
STARTCHAR 1E85
ENCODING 7813
SWIDTH 1080 0
DWIDTH 21 0
BBX 19 18 1 0
BITMAP
03B800
02A800
000000
A0A0A0
404040
A0A0A0
404040
A0A0A0
404040
A0A0A0
404040
A0A0A0
404040
A0A0A0
415040
AAAAA0
551540
2A0A80
ENDCHAR
STARTCHAR 1E9E
ENCODING 7838
SWIDTH 668 0
DWIDTH 13 0
BBX 11 15 1 0
BITMAP
2A80
5540
AAA0
4040
A0A0
4140
AA80
4540
AAA0
4040
A0A0
4040
AAA0
4540
AA80
ENDCHAR
STARTCHAR 1EA0
ENCODING 7840
SWIDTH 668 0
DWIDTH 13 0
BBX 11 19 1 -4
BITMAP
0A00
1500
2A80
5140
A0A0
4040
A0A0
4040
AAA0
5540
AAA0
4040
A0A0
4040
A0A0
0000
0A00
0400
0A00
ENDCHAR
STARTCHAR 1EA1
ENCODING 7841
SWIDTH 668 0
DWIDTH 13 0
BBX 11 19 1 -4
BITMAP
2A80
5540
AAA0
4040
A0A0
4040
A0A0
4040
AAA0
5540
AAA0
4040
A0A0
4040
A0A0
0000
0A00
0400
0A00
ENDCHAR
STARTCHAR 1EA2
ENCODING 7842
SWIDTH 668 0
DWIDTH 13 0
BBX 11 22 1 0
BITMAP
2A00
1500
2A80
0100
0F80
0A00
0000
0A00
1500
2A80
5140
A0A0
4040
A0A0
4040
AAA0
5540
AAA0
4040
A0A0
4040
A0A0
ENDCHAR
STARTCHAR 1EA3
ENCODING 7843
SWIDTH 668 0
DWIDTH 13 0
BBX 11 22 1 0
BITMAP
2A00
1500
2A80
0100
0F80
0A00
0000
2A80
5540
AAA0
4040
A0A0
4040
A0A0
4040
AAA0
5540
AAA0
4040
A0A0
4040
A0A0
ENDCHAR
STARTCHAR 1EA4
ENCODING 7844
SWIDTH 668 0
DWIDTH 13 0
BBX 11 26 1 0
BITMAP
0140
0280
0500
0A00
1400
0000
0A00
1500
3B80
2A80
0000
0A00
1500
2A80
5140
A0A0
4040
A0A0
4040
AAA0
5540
AAA0
4040
A0A0
4040
A0A0
ENDCHAR
STARTCHAR 1EA5
ENCODING 7845
SWIDTH 668 0
DWIDTH 13 0
BBX 11 26 1 0
BITMAP
0140
0280
0500
0A00
1400
0000
0A00
1500
3B80
2A80
0000
2A80
5540
AAA0
4040
A0A0
4040
A0A0
4040
AAA0
5540
AAA0
4040
A0A0
4040
A0A0
ENDCHAR
STARTCHAR 1EA6
ENCODING 7846
SWIDTH 668 0
DWIDTH 13 0
BBX 11 26 1 0
BITMAP
A000
5000
2800
1400
0A00
0000
0A00
1500
3B80
2A80
0000
0A00
1500
2A80
5140
A0A0
4040
A0A0
4040
AAA0
5540
AAA0
4040
A0A0
4040
A0A0
ENDCHAR
STARTCHAR 1EA7
ENCODING 7847
SWIDTH 668 0
DWIDTH 13 0
BBX 11 26 1 0
BITMAP
A000
5000
2800
1400
0A00
0000
0A00
1500
3B80
2A80
0000
2A80
5540
AAA0
4040
A0A0
4040
A0A0
4040
AAA0
5540
AAA0
4040
A0A0
4040
A0A0
ENDCHAR
STARTCHAR 1EA8
ENCODING 7848
SWIDTH 668 0
DWIDTH 13 0
BBX 11 28 1 0
BITMAP
2A00
1500
2A80
0100
0A80
0500
0A00
0000
0A00
1500
3B80
2A80
0000
0A00
1500
2A80
5140
A0A0
4040
A0A0
4040
AAA0
5540
AAA0
4040
A0A0
4040
A0A0
ENDCHAR
STARTCHAR 1EA9
ENCODING 7849
SWIDTH 668 0
DWIDTH 13 0
BBX 11 28 1 0
BITMAP
2A00
1500
2A80
0100
0A80
0500
0A00
0000
0A00
1500
3B80
2A80
0000
2A80
5540
AAA0
4040
A0A0
4040
A0A0
4040
AAA0
5540
AAA0
4040
A0A0
4040
A0A0
ENDCHAR
STARTCHAR 1EAA
ENCODING 7850
SWIDTH 668 0
DWIDTH 13 0
BBX 11 26 1 0
BITMAP
28A0
5440
AAA0
4540
A280
0000
0A00
1500
3B80
2A80
0000
0A00
1500
2A80
5140
A0A0
4040
A0A0
4040
AAA0
5540
AAA0
4040
A0A0
4040
A0A0
ENDCHAR
STARTCHAR 1EAB
ENCODING 7851
SWIDTH 668 0
DWIDTH 13 0
BBX 11 26 1 0
BITMAP
28A0
5440
AAA0
4540
A280
0000
0A00
1500
3B80
2A80
0000
2A80
5540
AAA0
4040
A0A0
4040
A0A0
4040
AAA0
5540
AAA0
4040
A0A0
4040
A0A0
ENDCHAR
STARTCHAR 1EAC
ENCODING 7852
SWIDTH 668 0
DWIDTH 13 0
BBX 11 24 1 -4
BITMAP
0A00
1500
3B80
2A80
0000
0A00
1500
2A80
5140
A0A0
4040
A0A0
4040
AAA0
5540
AAA0
4040
A0A0
4040
A0A0
0000
0A00
0400
0A00
ENDCHAR
STARTCHAR 1EAD
ENCODING 7853
SWIDTH 668 0
DWIDTH 13 0
BBX 11 24 1 -4
BITMAP
0A00
1500
3B80
2A80
0000
2A80
5540
AAA0
4040
A0A0
4040
A0A0
4040
AAA0
5540
AAA0
4040
A0A0
4040
A0A0
0000
0A00
0400
0A00
ENDCHAR
STARTCHAR 1EAE
ENCODING 7854
SWIDTH 668 0
DWIDTH 13 0
BBX 11 26 1 0
BITMAP
0140
0280
0500
0A00
1400
0000
5140
2080
7FC0
1500
0000
0A00
1500
2A80
5140
A0A0
4040
A0A0
4040
AAA0
5540
AAA0
4040
A0A0
4040
A0A0
ENDCHAR
STARTCHAR 1EAF
ENCODING 7855
SWIDTH 668 0
DWIDTH 13 0
BBX 11 26 1 0
BITMAP
0140
0280
0500
0A00
1400
0000
5140
2080
7FC0
1500
0000
2A80
5540
AAA0
4040
A0A0
4040
A0A0
4040
AAA0
5540
AAA0
4040
A0A0
4040
A0A0
ENDCHAR
STARTCHAR 1EB0
ENCODING 7856
SWIDTH 668 0
DWIDTH 13 0
BBX 11 26 1 0
BITMAP
A000
5000
2800
1400
0A00
0000
5140
2080
7FC0
1500
0000
0A00
1500
2A80
5140
A0A0
4040
A0A0
4040
AAA0
5540
AAA0
4040
A0A0
4040
A0A0
ENDCHAR
STARTCHAR 1EB1
ENCODING 7857
SWIDTH 668 0
DWIDTH 13 0
BBX 11 26 1 0
BITMAP
A000
5000
2800
1400
0A00
0000
5140
2080
7FC0
1500
0000
2A80
5540
AAA0
4040
A0A0
4040
A0A0
4040
AAA0
5540
AAA0
4040
A0A0
4040
A0A0
ENDCHAR
STARTCHAR 1EB2
ENCODING 7858
SWIDTH 668 0
DWIDTH 13 0
BBX 11 28 1 0
BITMAP
2A00
1500
2A80
0100
0A80
0500
0A00
0000
5140
2080
7FC0
1500
0000
0A00
1500
2A80
5140
A0A0
4040
A0A0
4040
AAA0
5540
AAA0
4040
A0A0
4040
A0A0
ENDCHAR
STARTCHAR 1EB3
ENCODING 7859
SWIDTH 668 0
DWIDTH 13 0
BBX 11 28 1 0
BITMAP
2A00
1500
2A80
0100
0A80
0500
0A00
0000
5140
2080
7FC0
1500
0000
2A80
5540
AAA0
4040
A0A0
4040
A0A0
4040
AAA0
5540
AAA0
4040
A0A0
4040
A0A0
ENDCHAR
STARTCHAR 1EB4
ENCODING 7860
SWIDTH 668 0
DWIDTH 13 0
BBX 11 26 1 0
BITMAP
28A0
5440
AAA0
4540
A280
0000
5140
2080
7FC0
1500
0000
0A00
1500
2A80
5140
A0A0
4040
A0A0
4040
AAA0
5540
AAA0
4040
A0A0
4040
A0A0
ENDCHAR
STARTCHAR 1EB5
ENCODING 7861
SWIDTH 668 0
DWIDTH 13 0
BBX 11 26 1 0
BITMAP
28A0
5440
AAA0
4540
A280
0000
5140
2080
7FC0
1500
0000
2A80
5540
AAA0
4040
A0A0
4040
A0A0
4040
AAA0
5540
AAA0
4040
A0A0
4040
A0A0
ENDCHAR
STARTCHAR 1EB6
ENCODING 7862
SWIDTH 668 0
DWIDTH 13 0
BBX 11 24 1 -4
BITMAP
5140
2080
7FC0
1500
0000
0A00
1500
2A80
5140
A0A0
4040
A0A0
4040
AAA0
5540
AAA0
4040
A0A0
4040
A0A0
0000
0A00
0400
0A00
ENDCHAR
STARTCHAR 1EB7
ENCODING 7863
SWIDTH 668 0
DWIDTH 13 0
BBX 11 24 1 -4
BITMAP
5140
2080
7FC0
1500
0000
2A80
5540
AAA0
4040
A0A0
4040
A0A0
4040
AAA0
5540
AAA0
4040
A0A0
4040
A0A0
0000
0A00
0400
0A00
ENDCHAR
STARTCHAR 1EB8
ENCODING 7864
SWIDTH 668 0
DWIDTH 13 0
BBX 11 19 1 -4
BITMAP
0AA0
1540
2AA0
5000
A000
4000
AA80
5500
AA80
4000
A000
5000
2AA0
1540
0AA0
0000
0A00
0400
0A00
ENDCHAR
STARTCHAR 1EB9
ENCODING 7865
SWIDTH 668 0
DWIDTH 13 0
BBX 11 19 1 -4
BITMAP
2AA0
5540
AAA0
4000
A000
4000
AA80
5500
AA80
4000
A000
4000
AAA0
5540
2AA0
0000
0A00
0400
0A00
ENDCHAR
STARTCHAR 1EBA
ENCODING 7866
SWIDTH 668 0
DWIDTH 13 0
BBX 11 22 1 0
BITMAP
2A00
1500
2A80
0100
0F80
0A00
0000
0AA0
1540
2AA0
5000
A000
4000
AA80
5500
AA80
4000
A000
5000
2AA0
1540
0AA0
ENDCHAR
STARTCHAR 1EBB
ENCODING 7867
SWIDTH 668 0
DWIDTH 13 0
BBX 11 22 1 0
BITMAP
2A00
1500
2A80
0100
0F80
0A00
0000
2AA0
5540
AAA0
4000
A000
4000
AA80
5500
AA80
4000
A000
4000
AAA0
5540
2AA0
ENDCHAR
STARTCHAR 1EBC
ENCODING 7868
SWIDTH 668 0
DWIDTH 13 0
BBX 11 20 1 0
BITMAP
28A0
5440
EFE0
A280
0000
0AA0
1540
2AA0
5000
A000
4000
AA80
5500
AA80
4000
A000
5000
2AA0
1540
0AA0
ENDCHAR
STARTCHAR 1EBD
ENCODING 7869
SWIDTH 668 0
DWIDTH 13 0
BBX 11 20 1 0
BITMAP
28A0
5440
EFE0
A280
0000
2AA0
5540
AAA0
4000
A000
4000
AA80
5500
AA80
4000
A000
4000
AAA0
5540
2AA0
ENDCHAR
STARTCHAR 1EBE
ENCODING 7870
SWIDTH 668 0
DWIDTH 13 0
BBX 11 26 1 0
BITMAP
0140
0280
0500
0A00
1400
0000
0A00
1500
3B80
2A80
0000
0AA0
1540
2AA0
5000
A000
4000
AA80
5500
AA80
4000
A000
5000
2AA0
1540
0AA0
ENDCHAR
STARTCHAR 1EBF
ENCODING 7871
SWIDTH 668 0
DWIDTH 13 0
BBX 11 26 1 0
BITMAP
0140
0280
0500
0A00
1400
0000
0A00
1500
3B80
2A80
0000
2AA0
5540
AAA0
4000
A000
4000
AA80
5500
AA80
4000
A000
4000
AAA0
5540
2AA0
ENDCHAR
STARTCHAR 1EC0
ENCODING 7872
SWIDTH 668 0
DWIDTH 13 0
BBX 11 26 1 0
BITMAP
A000
5000
2800
1400
0A00
0000
0A00
1500
3B80
2A80
0000
0AA0
1540
2AA0
5000
A000
4000
AA80
5500
AA80
4000
A000
5000
2AA0
1540
0AA0
ENDCHAR
STARTCHAR 1EC1
ENCODING 7873
SWIDTH 668 0
DWIDTH 13 0
BBX 11 26 1 0
BITMAP
A000
5000
2800
1400
0A00
0000
0A00
1500
3B80
2A80
0000
2AA0
5540
AAA0
4000
A000
4000
AA80
5500
AA80
4000
A000
4000
AAA0
5540
2AA0
ENDCHAR
STARTCHAR 1EC2
ENCODING 7874
SWIDTH 668 0
DWIDTH 13 0
BBX 11 28 1 0
BITMAP
2A00
1500
2A80
0100
0A80
0500
0A00
0000
0A00
1500
3B80
2A80
0000
0AA0
1540
2AA0
5000
A000
4000
AA80
5500
AA80
4000
A000
5000
2AA0
1540
0AA0
ENDCHAR
STARTCHAR 1EC3
ENCODING 7875
SWIDTH 668 0
DWIDTH 13 0
BBX 11 28 1 0
BITMAP
2A00
1500
2A80
0100
0A80
0500
0A00
0000
0A00
1500
3B80
2A80
0000
2AA0
5540
AAA0
4000
A000
4000
AA80
5500
AA80
4000
A000
4000
AAA0
5540
2AA0
ENDCHAR
STARTCHAR 1EC4
ENCODING 7876
SWIDTH 668 0
DWIDTH 13 0
BBX 11 26 1 0
BITMAP
28A0
5440
AAA0
4540
A280
0000
0A00
1500
3B80
2A80
0000
0AA0
1540
2AA0
5000
A000
4000
AA80
5500
AA80
4000
A000
5000
2AA0
1540
0AA0
ENDCHAR
STARTCHAR 1EC5
ENCODING 7877
SWIDTH 668 0
DWIDTH 13 0
BBX 11 26 1 0
BITMAP
28A0
5440
AAA0
4540
A280
0000
0A00
1500
3B80
2A80
0000
2AA0
5540
AAA0
4000
A000
4000
AA80
5500
AA80
4000
A000
4000
AAA0
5540
2AA0
ENDCHAR
STARTCHAR 1EC6
ENCODING 7878
SWIDTH 668 0
DWIDTH 13 0
BBX 11 24 1 -4
BITMAP
0A00
1500
3B80
2A80
0000
0AA0
1540
2AA0
5000
A000
4000
AA80
5500
AA80
4000
A000
5000
2AA0
1540
0AA0
0000
0A00
0400
0A00
ENDCHAR
STARTCHAR 1EC7
ENCODING 7879
SWIDTH 668 0
DWIDTH 13 0
BBX 11 24 1 -4
BITMAP
0A00
1500
3B80
2A80
0000
2AA0
5540
AAA0
4000
A000
4000
AA80
5500
AA80
4000
A000
4000
AAA0
5540
2AA0
0000
0A00
0400
0A00
ENDCHAR
STARTCHAR 1EC8
ENCODING 7880
SWIDTH 462 0
DWIDTH 9 0
BBX 7 22 1 0
BITMAP
A8
54
AA
04
3E
28
00
AA
54
AA
10
28
10
28
10
28
10
28
10
AA
54
AA
ENDCHAR
STARTCHAR 1EC9
ENCODING 7881
SWIDTH 257 0
DWIDTH 5 0
BBX 6 22 0 0
BITMAP
50
A8
54
08
7C
50
00
50
20
50
20
50
20
50
20
50
20
50
20
50
20
50
ENDCHAR
STARTCHAR 1ECA
ENCODING 7882
SWIDTH 462 0
DWIDTH 9 0
BBX 7 19 1 -4
BITMAP
AA
54
AA
10
28
10
28
10
28
10
28
10
AA
54
AA
00
28
10
28
ENDCHAR
STARTCHAR 1ECB
ENCODING 7883
SWIDTH 257 0
DWIDTH 5 0
BBX 3 19 1 -4
BITMAP
A0
40
A0
40
A0
40
A0
40
A0
40
A0
40
A0
40
A0
00
A0
40
A0
ENDCHAR
STARTCHAR 1ECC
ENCODING 7884
SWIDTH 771 0
DWIDTH 15 0
BBX 13 19 1 -4
BITMAP
0A80
1540
2AA0
5050
A028
4010
A028
4010
A028
4010
A028
5050
2AA0
1540
0A80
0000
0500
0200
0500
ENDCHAR
STARTCHAR 1ECD
ENCODING 7885
SWIDTH 668 0
DWIDTH 13 0
BBX 11 19 1 -4
BITMAP
2A80
5540
AAA0
4040
A0A0
4040
A0A0
4040
A0A0
4040
A0A0
4040
AAA0
5540
2A80
0000
0A00
0400
0A00
ENDCHAR
STARTCHAR 1ECE
ENCODING 7886
SWIDTH 771 0
DWIDTH 15 0
BBX 13 22 1 0
BITMAP
1500
0A80
1540
0080
07C0
0500
0000
0A80
1540
2AA0
5050
A028
4010
A028
4010
A028
4010
A028
5050
2AA0
1540
0A80
ENDCHAR
STARTCHAR 1ECF
ENCODING 7887
SWIDTH 668 0
DWIDTH 13 0
BBX 11 22 1 0
BITMAP
2A00
1500
2A80
0100
0F80
0A00
0000
2A80
5540
AAA0
4040
A0A0
4040
A0A0
4040
A0A0
4040
A0A0
4040
AAA0
5540
2A80
ENDCHAR
STARTCHAR 1ED0
ENCODING 7888
SWIDTH 771 0
DWIDTH 15 0
BBX 13 26 1 0
BITMAP
00A0
0140
0280
0500
0A00
0000
0500
0A80
1DC0
1540
0000
0A80
1540
2AA0
5050
A028
4010
A028
4010
A028
4010
A028
5050
2AA0
1540
0A80
ENDCHAR
STARTCHAR 1ED1
ENCODING 7889
SWIDTH 668 0
DWIDTH 13 0
BBX 11 26 1 0
BITMAP
0140
0280
0500
0A00
1400
0000
0A00
1500
3B80
2A80
0000
2A80
5540
AAA0
4040
A0A0
4040
A0A0
4040
A0A0
4040
A0A0
4040
AAA0
5540
2A80
ENDCHAR
STARTCHAR 1ED2
ENCODING 7890
SWIDTH 771 0
DWIDTH 15 0
BBX 13 26 1 0
BITMAP
5000
2800
1400
0A00
0500
0000
0500
0A80
1DC0
1540
0000
0A80
1540
2AA0
5050
A028
4010
A028
4010
A028
4010
A028
5050
2AA0
1540
0A80
ENDCHAR
STARTCHAR 1ED3
ENCODING 7891
SWIDTH 668 0
DWIDTH 13 0
BBX 11 26 1 0
BITMAP
A000
5000
2800
1400
0A00
0000
0A00
1500
3B80
2A80
0000
2A80
5540
AAA0
4040
A0A0
4040
A0A0
4040
A0A0
4040
A0A0
4040
AAA0
5540
2A80
ENDCHAR
STARTCHAR 1ED4
ENCODING 7892
SWIDTH 771 0
DWIDTH 15 0
BBX 13 28 1 0
BITMAP
1500
0A80
1540
0080
0540
0280
0500
0000
0500
0A80
1DC0
1540
0000
0A80
1540
2AA0
5050
A028
4010
A028
4010
A028
4010
A028
5050
2AA0
1540
0A80
ENDCHAR
STARTCHAR 1ED5
ENCODING 7893
SWIDTH 668 0
DWIDTH 13 0
BBX 11 28 1 0
BITMAP
2A00
1500
2A80
0100
0A80
0500
0A00
0000
0A00
1500
3B80
2A80
0000
2A80
5540
AAA0
4040
A0A0
4040
A0A0
4040
A0A0
4040
A0A0
4040
AAA0
5540
2A80
ENDCHAR
STARTCHAR 1ED6
ENCODING 7894
SWIDTH 771 0
DWIDTH 15 0
BBX 13 26 1 0
BITMAP
1450
2A20
5550
22A0
5140
0000
0500
0A80
1DC0
1540
0000
0A80
1540
2AA0
5050
A028
4010
A028
4010
A028
4010
A028
5050
2AA0
1540
0A80
ENDCHAR
STARTCHAR 1ED7
ENCODING 7895
SWIDTH 668 0
DWIDTH 13 0
BBX 11 26 1 0
BITMAP
28A0
5440
AAA0
4540
A280
0000
0A00
1500
3B80
2A80
0000
2A80
5540
AAA0
4040
A0A0
4040
A0A0
4040
A0A0
4040
A0A0
4040
AAA0
5540
2A80
ENDCHAR
STARTCHAR 1ED8
ENCODING 7896
SWIDTH 771 0
DWIDTH 15 0
BBX 13 24 1 -4
BITMAP
0500
0A80
1DC0
1540
0000
0A80
1540
2AA0
5050
A028
4010
A028
4010
A028
4010
A028
5050
2AA0
1540
0A80
0000
0500
0200
0500
ENDCHAR
STARTCHAR 1ED9
ENCODING 7897
SWIDTH 668 0
DWIDTH 13 0
BBX 11 24 1 -4
BITMAP
0A00
1500
3B80
2A80
0000
2A80
5540
AAA0
4040
A0A0
4040
A0A0
4040
A0A0
4040
A0A0
4040
AAA0
5540
2A80
0000
0A00
0400
0A00
ENDCHAR
STARTCHAR 1EDA
ENCODING 7898
SWIDTH 925 0
DWIDTH 18 0
BBX 17 20 1 0
BITMAP
00A000
014000
078000
0A0280
000100
2AAA80
555500
AAAA00
401000
A02800
401000
A02800
401000
A02800
401000
A02800
401000
AAA800
555000
2AA000
ENDCHAR
STARTCHAR 1EDB
ENCODING 7899
SWIDTH 822 0
DWIDTH 16 0
BBX 15 20 1 0
BITMAP
0140
0280
0F00
140A
0004
2AAA
5554
AAA8
4040
A0A0
4040
A0A0
4040
A0A0
4040
A0A0
4040
AAA0
5540
2A80
ENDCHAR
STARTCHAR 1EDC
ENCODING 7900
SWIDTH 925 0
DWIDTH 18 0
BBX 17 20 1 0
BITMAP
500000
280000
1E0000
050280
000100
2AAA80
555500
AAAA00
401000
A02800
401000
A02800
401000
A02800
401000
A02800
401000
AAA800
555000
2AA000
ENDCHAR
STARTCHAR 1EDD
ENCODING 7901
SWIDTH 822 0
DWIDTH 16 0
BBX 15 20 1 0
BITMAP
A000
5000
3C00
0A0A
0004
2AAA
5554
AAA8
4040
A0A0
4040
A0A0
4040
A0A0
4040
A0A0
4040
AAA0
5540
2A80
ENDCHAR
STARTCHAR 1EDE
ENCODING 7902
SWIDTH 925 0
DWIDTH 18 0
BBX 17 22 1 0
BITMAP
150000
0A8000
154000
008000
07C000
050280
000100
2AAA80
555500
AAAA00
401000
A02800
401000
A02800
401000
A02800
401000
A02800
401000
AAA800
555000
2AA000
ENDCHAR
STARTCHAR 1EDF
ENCODING 7903
SWIDTH 822 0
DWIDTH 16 0
BBX 15 22 1 0
BITMAP
2A00
1500
2A80
0100
0F80
0A0A
0004
2AAA
5554
AAA8
4040
A0A0
4040
A0A0
4040
A0A0
4040
A0A0
4040
AAA0
5540
2A80
ENDCHAR
STARTCHAR 1EE0
ENCODING 7904
SWIDTH 925 0
DWIDTH 18 0
BBX 17 20 1 0
BITMAP
145000
2A2000
77F000
514280
000100
2AAA80
555500
AAAA00
401000
A02800
401000
A02800
401000
A02800
401000
A02800
401000
AAA800
555000
2AA000
ENDCHAR
STARTCHAR 1EE1
ENCODING 7905
SWIDTH 822 0
DWIDTH 16 0
BBX 15 20 1 0
BITMAP
28A0
5440
EFE0
A28A
0004
2AAA
5554
AAA8
4040
A0A0
4040
A0A0
4040
A0A0
4040
A0A0
4040
AAA0
5540
2A80
ENDCHAR
STARTCHAR 1EE2
ENCODING 7906
SWIDTH 925 0
DWIDTH 18 0
BBX 17 21 1 -4
BITMAP
000280
000100
2AAA80
555500
AAAA00
401000
A02800
401000
A02800
401000
A02800
401000
A02800
401000
AAA800
555000
2AA000
000000
050000
020000
050000
ENDCHAR
STARTCHAR 1EE3
ENCODING 7907
SWIDTH 822 0
DWIDTH 16 0
BBX 15 21 1 -4
BITMAP
000A
0004
2AAA
5554
AAA8
4040
A0A0
4040
A0A0
4040
A0A0
4040
A0A0
4040
AAA0
5540
2A80
0000
0A00
0400
0A00
ENDCHAR
STARTCHAR 1EE4
ENCODING 7908
SWIDTH 771 0
DWIDTH 15 0
BBX 13 19 1 -4
BITMAP
A028
4010
A028
4010
A028
4010
A028
4010
A028
4010
A028
5050
2AA0
1540
0A80
0000
0500
0200
0500
ENDCHAR
STARTCHAR 1EE5
ENCODING 7909
SWIDTH 668 0
DWIDTH 13 0
BBX 11 19 1 -4
BITMAP
A0A0
4040
A0A0
4040
A0A0
4040
A0A0
4040
A0A0
4040
A0A0
4040
AAA0
5540
2A80
0000
0A00
0400
0A00
ENDCHAR
STARTCHAR 1EE6
ENCODING 7910
SWIDTH 771 0
DWIDTH 15 0
BBX 13 22 1 0
BITMAP
1500
0A80
1540
0080
07C0
0500
0000
A028
4010
A028
4010
A028
4010
A028
4010
A028
4010
A028
5050
2AA0
1540
0A80
ENDCHAR
STARTCHAR 1EE7
ENCODING 7911
SWIDTH 668 0
DWIDTH 13 0
BBX 11 22 1 0
BITMAP
2A00
1500
2A80
0100
0F80
0A00
0000
A0A0
4040
A0A0
4040
A0A0
4040
A0A0
4040
A0A0
4040
A0A0
4040
AAA0
5540
2A80
ENDCHAR
STARTCHAR 1EE8
ENCODING 7912
SWIDTH 925 0
DWIDTH 18 0
BBX 17 20 1 0
BITMAP
00A000
014000
078000
0A0280
000100
A02A80
401500
A02A00
401000
A02800
401000
A02800
401000
A02800
401000
A02800
505000
2AA000
154000
0A8000
ENDCHAR
STARTCHAR 1EE9
ENCODING 7913
SWIDTH 822 0
DWIDTH 16 0
BBX 15 20 1 0
BITMAP
0140
0280
0F00
140A
0004
A0AA
4054
A0A8
4040
A0A0
4040
A0A0
4040
A0A0
4040
A0A0
4040
AAA0
5540
2A80
ENDCHAR
STARTCHAR 1EEA
ENCODING 7914
SWIDTH 925 0
DWIDTH 18 0
BBX 17 20 1 0
BITMAP
500000
280000
1E0000
050280
000100
A02A80
401500
A02A00
401000
A02800
401000
A02800
401000
A02800
401000
A02800
505000
2AA000
154000
0A8000
ENDCHAR
STARTCHAR 1EEB
ENCODING 7915
SWIDTH 822 0
DWIDTH 16 0
BBX 15 20 1 0
BITMAP
A000
5000
3C00
0A0A
0004
A0AA
4054
A0A8
4040
A0A0
4040
A0A0
4040
A0A0
4040
A0A0
4040
AAA0
5540
2A80
ENDCHAR
STARTCHAR 1EEC
ENCODING 7916
SWIDTH 925 0
DWIDTH 18 0
BBX 17 22 1 0
BITMAP
150000
0A8000
154000
008000
07C000
050280
000100
A02A80
401500
A02A00
401000
A02800
401000
A02800
401000
A02800
401000
A02800
505000
2AA000
154000
0A8000
ENDCHAR
STARTCHAR 1EED
ENCODING 7917
SWIDTH 822 0
DWIDTH 16 0
BBX 15 22 1 0
BITMAP
2A00
1500
2A80
0100
0F80
0A0A
0004
A0AA
4054
A0A8
4040
A0A0
4040
A0A0
4040
A0A0
4040
A0A0
4040
AAA0
5540
2A80
ENDCHAR
STARTCHAR 1EEE
ENCODING 7918
SWIDTH 925 0
DWIDTH 18 0
BBX 17 20 1 0
BITMAP
145000
2A2000
77F000
514280
000100
A02A80
401500
A02A00
401000
A02800
401000
A02800
401000
A02800
401000
A02800
505000
2AA000
154000
0A8000
ENDCHAR
STARTCHAR 1EEF
ENCODING 7919
SWIDTH 822 0
DWIDTH 16 0
BBX 15 20 1 0
BITMAP
28A0
5440
EFE0
A28A
0004
A0AA
4054
A0A8
4040
A0A0
4040
A0A0
4040
A0A0
4040
A0A0
4040
AAA0
5540
2A80
ENDCHAR
STARTCHAR 1EF0
ENCODING 7920
SWIDTH 925 0
DWIDTH 18 0
BBX 17 21 1 -4
BITMAP
000280
000100
A02A80
401500
A02A00
401000
A02800
401000
A02800
401000
A02800
401000
A02800
505000
2AA000
154000
0A8000
000000
050000
020000
050000
ENDCHAR
STARTCHAR 1EF1
ENCODING 7921
SWIDTH 822 0
DWIDTH 16 0
BBX 15 21 1 -4
BITMAP
000A
0004
A0AA
4054
A0A8
4040
A0A0
4040
A0A0
4040
A0A0
4040
A0A0
4040
AAA0
5540
2A80
0000
0A00
0400
0A00
ENDCHAR
STARTCHAR 1EF2
ENCODING 7922
SWIDTH 668 0
DWIDTH 13 0
BBX 11 20 1 0
BITMAP
A000
5000
3C00
0A00
0000
A0A0
4040
A0A0
4040
A0A0
4040
A0A0
5140
2A80
1500
0A00
0400
0A00
0400
0A00
ENDCHAR
STARTCHAR 1EF3
ENCODING 7923
SWIDTH 668 0
DWIDTH 13 0
BBX 11 20 1 0
BITMAP
A000
5000
3C00
0A00
0000
A0A0
4040
A0A0
4040
A0A0
4040
A0A0
4040
AAA0
5540
2A80
0400
0A00
0400
0A00
ENDCHAR
STARTCHAR 1EF4
ENCODING 7924
SWIDTH 668 0
DWIDTH 13 0
BBX 11 19 1 -4
BITMAP
A0A0
4040
A0A0
4040
A0A0
4040
A0A0
5140
2A80
1500
0A00
0400
0A00
0400
0A00
0000
0A00
0400
0A00
ENDCHAR
STARTCHAR 1EF5
ENCODING 7925
SWIDTH 668 0
DWIDTH 13 0
BBX 11 19 1 -4
BITMAP
A0A0
4040
A0A0
4040
A0A0
4040
A0A0
4040
AAA0
5540
2A80
0400
0A00
0400
0A00
0000
0A00
0400
0A00
ENDCHAR
STARTCHAR 1EF6
ENCODING 7926
SWIDTH 668 0
DWIDTH 13 0
BBX 11 22 1 0
BITMAP
2A00
1500
2A80
0100
0F80
0A00
0000
A0A0
4040
A0A0
4040
A0A0
4040
A0A0
5140
2A80
1500
0A00
0400
0A00
0400
0A00
ENDCHAR
STARTCHAR 1EF7
ENCODING 7927
SWIDTH 668 0
DWIDTH 13 0
BBX 11 22 1 0
BITMAP
2A00
1500
2A80
0100
0F80
0A00
0000
A0A0
4040
A0A0
4040
A0A0
4040
A0A0
4040
AAA0
5540
2A80
0400
0A00
0400
0A00
ENDCHAR
STARTCHAR 1EF8
ENCODING 7928
SWIDTH 668 0
DWIDTH 13 0
BBX 11 20 1 0
BITMAP
28A0
5440
EFE0
A280
0000
A0A0
4040
A0A0
4040
A0A0
4040
A0A0
5140
2A80
1500
0A00
0400
0A00
0400
0A00
ENDCHAR
STARTCHAR 1EF9
ENCODING 7929
SWIDTH 668 0
DWIDTH 13 0
BBX 11 20 1 0
BITMAP
28A0
5440
EFE0
A280
0000
A0A0
4040
A0A0
4040
A0A0
4040
A0A0
4040
AAA0
5540
2A80
0400
0A00
0400
0A00
ENDCHAR
STARTCHAR 2013
ENCODING 8211
SWIDTH 668 0
DWIDTH 13 0
BBX 13 3 0 6
BITMAP
AAA8
5550
AAA8
ENDCHAR
STARTCHAR 2014
ENCODING 8212
SWIDTH 977 0
DWIDTH 19 0
BBX 19 3 0 6
BITMAP
AAAAA0
555540
AAAAA0
ENDCHAR
STARTCHAR 2018
ENCODING 8216
SWIDTH 154 0
DWIDTH 3 0
BBX 3 5 0 12
BITMAP
20
40
A0
40
A0
ENDCHAR
STARTCHAR 2019
ENCODING 8217
SWIDTH 154 0
DWIDTH 3 0
BBX 3 5 0 12
BITMAP
A0
40
A0
40
80
ENDCHAR
STARTCHAR 201A
ENCODING 8218
SWIDTH 154 0
DWIDTH 3 0
BBX 3 5 0 -2
BITMAP
A0
40
A0
40
80
ENDCHAR
STARTCHAR 201C
ENCODING 8220
SWIDTH 411 0
DWIDTH 8 0
BBX 8 5 0 12
BITMAP
21
42
A5
42
A5
ENDCHAR
STARTCHAR 201D
ENCODING 8221
SWIDTH 411 0
DWIDTH 8 0
BBX 8 5 0 12
BITMAP
A5
42
A5
42
84
ENDCHAR
STARTCHAR 201E
ENCODING 8222
SWIDTH 411 0
DWIDTH 8 0
BBX 8 5 0 -2
BITMAP
A5
42
A5
42
84
ENDCHAR
STARTCHAR 2020
ENCODING 8224
SWIDTH 462 0
DWIDTH 9 0
BBX 7 15 1 0
BITMAP
28
10
AA
54
AA
10
28
10
28
10
28
10
28
10
28
ENDCHAR
STARTCHAR 2021
ENCODING 8225
SWIDTH 462 0
DWIDTH 9 0
BBX 7 15 1 0
BITMAP
28
10
AA
54
AA
10
28
10
AA
54
AA
10
28
10
28
ENDCHAR
STARTCHAR 2022
ENCODING 8226
SWIDTH 360 0
DWIDTH 7 0
BBX 7 7 0 4
BITMAP
28
54
AA
54
AA
54
28
ENDCHAR
STARTCHAR 2026
ENCODING 8230
SWIDTH 565 0
DWIDTH 11 0
BBX 11 3 0 0
BITMAP
AAA0
4440
AAA0
ENDCHAR
STARTCHAR 2030
ENCODING 8240
SWIDTH 1748 0
DWIDTH 34 0
BBX 33 15 1 0
BITMAP
2A0A000000
5504000000
AA8A000000
4114000000
A288000000
4114000000
AAA8A82A00
5511545500
2A2AAAAA80
0051044100
00228AA280
0051044100
00A2AAAA80
0041545500
00A0A82A00
ENDCHAR
STARTCHAR 2039
ENCODING 8249
SWIDTH 514 0
DWIDTH 10 0
BBX 8 11 0 2
BITMAP
05
0A
14
28
50
A0
50
28
14
0A
05
ENDCHAR
STARTCHAR 203A
ENCODING 8250
SWIDTH 514 0
DWIDTH 10 0
BBX 8 11 2 2
BITMAP
A0
50
28
14
0A
05
0A
14
28
50
A0
ENDCHAR
STARTCHAR 2044
ENCODING 8260
SWIDTH 360 0
DWIDTH 7 0
BBX 7 15 0 0
BITMAP
0A
04
0A
14
08
14
28
10
28
50
20
50
A0
40
A0
ENDCHAR
STARTCHAR 20AC
ENCODING 8364
SWIDTH 771 0
DWIDTH 15 0
BBX 13 20 1 -2
BITMAP
07F8
0AA8
1400
2800
1000
AAA0
5540
AAA0
1000
2800
1000
AAA0
5540
AAA0
1000
2800
1400
0AA8
0550
02A8
ENDCHAR
STARTCHAR 2212
ENCODING 8722
SWIDTH 668 0
DWIDTH 13 0
BBX 11 3 1 6
BITMAP
AAA0
5540
AAA0
ENDCHAR
STARTCHAR E000
ENCODING 57344
SWIDTH 668 0
DWIDTH 13 0
BBX 11 15 1 0
BITMAP
AAA0
5540
AAA0
4040
A0A0
4040
A0A0
4040
AAA0
5540
AAA0
4040
A0A0
4040
A0A0
ENDCHAR
STARTCHAR E017
ENCODING 57367
SWIDTH 1080 0
DWIDTH 21 0
BBX 19 15 1 0
BITMAP
AAAAA0
555540
AAAAA0
404000
A0A000
404000
A0AA80
405500
AAAA80
554000
AAA000
404000
A0AAA0
405540
A0AAA0
ENDCHAR
STARTCHAR E018
ENCODING 57368
SWIDTH 668 0
DWIDTH 13 0
BBX 11 15 1 0
BITMAP
AAA0
5540
AAA0
4040
A0A0
4140
AA80
5500
AA80
4140
A0A0
4040
AAA0
5540
AAA0
ENDCHAR
STARTCHAR E019
ENCODING 57369
SWIDTH 771 0
DWIDTH 15 0
BBX 13 15 1 0
BITMAP
AAA8
5550
AAA8
4010
A028
4010
A028
4000
A000
4000
A028
4010
AAA8
5550
AAA8
ENDCHAR
STARTCHAR E01E
ENCODING 57374
SWIDTH 771 0
DWIDTH 15 0
BBX 13 15 1 0
BITMAP
AAA0
5550
AAA8
4010
A028
4010
A028
4010
A028
4010
A028
4010
AAA8
5550
AAA0
ENDCHAR
STARTCHAR E01F
ENCODING 57375
SWIDTH 822 0
DWIDTH 16 0
BBX 15 15 0 0
BITMAP
2AA8
1554
2AAA
1004
280A
1004
AA0A
5404
AA0A
1004
280A
1004
2AAA
1554
2AA8
ENDCHAR
STARTCHAR E021
ENCODING 57377
SWIDTH 822 0
DWIDTH 16 0
BBX 15 15 0 0
BITMAP
2AA8
1554
2AAA
1004
280A
1004
AA0A
5404
AA0A
1004
280A
1004
2AAA
1554
2AA8
ENDCHAR
STARTCHAR E022
ENCODING 57378
SWIDTH 668 0
DWIDTH 13 0
BBX 11 15 1 0
BITMAP
AAA0
5540
AAA0
4000
A000
4000
AA80
5500
AA80
4000
A000
4000
AAA0
5540
AAA0
ENDCHAR
STARTCHAR E033
ENCODING 57395
SWIDTH 668 0
DWIDTH 13 0
BBX 11 15 1 0
BITMAP
AAA0
5540
AAA0
4000
A000
4000
AA80
5500
AA80
4000
A000
4000
A000
4000
A000
ENDCHAR
STARTCHAR E034
ENCODING 57396
SWIDTH 771 0
DWIDTH 15 0
BBX 13 15 1 0
BITMAP
AAA8
5550
AAA8
4000
A000
4000
A2A8
4150
A2A8
4010
A028
4010
AAA8
5550
AAA8
ENDCHAR
STARTCHAR E038
ENCODING 57400
SWIDTH 565 0
DWIDTH 11 0
BBX 9 15 1 0
BITMAP
AA80
5500
AA80
0100
0280
0100
0280
0100
A280
4100
A280
4100
AA80
5500
AA00
ENDCHAR
STARTCHAR E039
ENCODING 57401
SWIDTH 668 0
DWIDTH 13 0
BBX 11 15 1 0
BITMAP
A0A0
4040
A0A0
4140
A280
4500
AAA0
5540
AAA0
4040
A0A0
4040
A0A0
4040
A0A0
ENDCHAR
STARTCHAR E03B
ENCODING 57403
SWIDTH 668 0
DWIDTH 13 0
BBX 11 15 1 0
BITMAP
A000
4000
A000
4000
A000
4000
A000
4000
A000
4000
A000
4000
AAA0
5540
AAA0
ENDCHAR
STARTCHAR E040
ENCODING 57408
SWIDTH 1080 0
DWIDTH 21 0
BBX 19 15 1 0
BITMAP
AAAAA0
555540
AAAAA0
404040
A0A0A0
404040
A0A0A0
404040
A0A0A0
404040
A0A0A0
404040
A0A0A0
404040
A0A0A0
ENDCHAR
STARTCHAR E041
ENCODING 57409
SWIDTH 771 0
DWIDTH 15 0
BBX 13 15 1 0
BITMAP
AAA8
5550
AAA8
4010
A028
4010
A028
4010
A028
4010
A028
4010
A028
4010
A028
ENDCHAR
STARTCHAR E045
ENCODING 57413
SWIDTH 771 0
DWIDTH 15 0
BBX 13 19 1 -4
BITMAP
AAA8
5550
AAA8
4010
A028
4010
A028
4010
A028
4010
A028
4010
A028
4010
A028
0010
00A8
0050
00A0
ENDCHAR
STARTCHAR E047
ENCODING 57415
SWIDTH 771 0
DWIDTH 15 0
BBX 13 15 1 0
BITMAP
AAA8
5550
AAA8
4010
A028
4010
A028
4010
A028
4010
A028
4010
AAA8
5550
AAA8
ENDCHAR
STARTCHAR E054
ENCODING 57428
SWIDTH 925 0
DWIDTH 18 0
BBX 17 17 1 0
BITMAP
000280
000100
AAAA80
555500
AAAA00
401000
A02800
401000
A02800
401000
A02800
401000
A02800
401000
AAA800
555000
AAA800
ENDCHAR
STARTCHAR E05E
ENCODING 57438
SWIDTH 1182 0
DWIDTH 23 0
BBX 21 15 1 0
BITMAP
AAAAA8
555550
AAAAA8
401000
A02800
401000
A02AA0
401540
A02AA0
401000
A02800
401000
AAAAA8
555550
AAAAA8
ENDCHAR
STARTCHAR E05F
ENCODING 57439
SWIDTH 668 0
DWIDTH 13 0
BBX 11 15 1 0
BITMAP
AAA0
5540
AAA0
4040
A0A0
4040
A0A0
4040
A0A0
4040
AAA0
5540
AAA0
4000
A000
ENDCHAR
STARTCHAR E060
ENCODING 57440
SWIDTH 668 0
DWIDTH 13 0
BBX 11 15 1 0
BITMAP
A000
4000
AAA0
5540
AAA0
4040
A0A0
4040
A0A0
4040
AAA0
5540
AAA0
4000
A000
ENDCHAR
STARTCHAR E061
ENCODING 57441
SWIDTH 771 0
DWIDTH 15 0
BBX 13 17 1 -2
BITMAP
AAA8
5550
AAA8
4010
A028
4010
A028
4010
A028
4010
A2A8
4110
AAA8
5550
AAA8
0100
0280
ENDCHAR
STARTCHAR E062
ENCODING 57442
SWIDTH 668 0
DWIDTH 13 0
BBX 11 15 1 0
BITMAP
AAA0
5540
AAA0
4040
A0A0
4040
A0A0
4040
A0A0
4040
AAA0
5540
AA80
4140
A0A0
ENDCHAR
STARTCHAR E066
ENCODING 57446
SWIDTH 668 0
DWIDTH 13 0
BBX 11 15 1 0
BITMAP
AAA0
5540
AAA0
4040
A0A0
4000
AA80
5540
2AA0
0040
A0A0
4040
AAA0
5540
AAA0
ENDCHAR
STARTCHAR E06C
ENCODING 57452
SWIDTH 771 0
DWIDTH 15 0
BBX 13 15 1 0
BITMAP
A028
4010
A028
4010
A028
4010
A028
4010
A028
4010
A028
4010
AAA8
5550
AAA8
ENDCHAR
STARTCHAR E078
ENCODING 57464
SWIDTH 925 0
DWIDTH 18 0
BBX 17 17 1 0
BITMAP
000280
000100
A02A80
401500
A02A00
401000
A02800
401000
A02800
401000
A02800
401000
A02800
401000
AAA800
555000
AAA800
ENDCHAR
STARTCHAR E083
ENCODING 57475
SWIDTH 1080 0
DWIDTH 21 0
BBX 19 15 1 0
BITMAP
A0A0A0
404040
A0A0A0
404040
A0A0A0
404040
A0A0A0
404040
A0A0A0
404040
A0A0A0
404040
AAAAA0
555540
AAAAA0
ENDCHAR
STARTCHAR E088
ENCODING 57480
SWIDTH 771 0
DWIDTH 15 0
BBX 13 15 1 0
BITMAP
A028
4010
A028
4010
A028
5050
2AA0
1540
2AA0
5050
A028
4010
A028
4010
A028
ENDCHAR
STARTCHAR E089
ENCODING 57481
SWIDTH 668 0
DWIDTH 13 0
BBX 11 15 1 0
BITMAP
A0A0
4040
A0A0
4040
A0A0
4040
A0A0
4040
AAA0
5540
AAA0
0400
0A00
0400
0A00
ENDCHAR
STARTCHAR E091
ENCODING 57489
SWIDTH 668 0
DWIDTH 13 0
BBX 11 15 1 0
BITMAP
AAA0
5540
AAA0
0040
00A0
0040
AAA0
5540
AAA0
4000
A000
4000
AAA0
5540
AAA0
ENDCHAR
STARTCHAR E095
ENCODING 57493
SWIDTH 771 0
DWIDTH 15 0
BBX 13 15 1 0
BITMAP
2AA0
5550
AAA8
4010
A028
0010
2AA8
5550
AAA8
4010
A028
4010
AAA8
5550
2AA0
ENDCHAR
STARTCHAR E0AC
ENCODING 57516
SWIDTH 1285 0
DWIDTH 25 0
BBX 23 15 1 0
BITMAP
2AAAA8
555554
AAAAAA
401004
A0280A
001004
2AAAAA
555554
AAAAAA
401000
A02800
401000
AAAAAA
555554
2AAAAA
ENDCHAR
STARTCHAR E0AD
ENCODING 57517
SWIDTH 668 0
DWIDTH 13 0
BBX 11 15 1 0
BITMAP
0AA0
1540
2AA0
5000
A000
4000
A000
4000
A000
4000
A000
5000
2AA0
1540
0AA0
ENDCHAR
STARTCHAR E0B2
ENCODING 57522
SWIDTH 771 0
DWIDTH 15 0
BBX 13 15 1 0
BITMAP
0A80
1540
2AA0
5050
A028
4010
AAA8
5550
AAA8
4000
A000
5000
2AA8
1550
0AA8
ENDCHAR
STARTCHAR E0C3
ENCODING 57539
SWIDTH 565 0
DWIDTH 11 0
BBX 9 15 1 0
BITMAP
0280
0100
0280
0100
0280
0100
0280
0100
0280
0100
0280
0500
AA00
5400
A800
ENDCHAR
STARTCHAR E0C4
ENCODING 57540
SWIDTH 1285 0
DWIDTH 25 0
BBX 23 15 1 0
BITMAP
0A82A0
154550
2AAAA8
505414
A0280A
401004
A0280A
401004
A0280A
401004
A0280A
401004
A0280A
401004
A0280A
ENDCHAR
STARTCHAR E0C5
ENCODING 57541
SWIDTH 771 0
DWIDTH 15 0
BBX 13 15 1 0
BITMAP
0A80
1540
2AA0
5050
A028
4010
A028
4010
A028
4010
A028
4010
A028
4010
A028
ENDCHAR
STARTCHAR E0C9
ENCODING 57545
SWIDTH 771 0
DWIDTH 15 0
BBX 13 19 1 -4
BITMAP
0A80
1540
2AA0
5050
A028
4010
A028
4010
A028
4010
A028
4010
A028
4010
A028
0010
00A8
0050
00A0
ENDCHAR
STARTCHAR E0CB
ENCODING 57547
SWIDTH 1285 0
DWIDTH 25 0
BBX 23 15 1 0
BITMAP
0A82A0
154550
2AAAA8
505414
A0280A
401004
A02AAA
401554
A02AAA
401000
A02800
505400
2AAAAA
154554
0A82AA
ENDCHAR
STARTCHAR E0CC
ENCODING 57548
SWIDTH 565 0
DWIDTH 11 0
BBX 9 15 1 0
BITMAP
0A80
1500
2A80
5000
A000
4000
A000
4000
A000
4000
A000
4000
A000
4000
A000
ENDCHAR
STARTCHAR E0D0
ENCODING 57552
SWIDTH 668 0
DWIDTH 13 0
BBX 11 15 1 0
BITMAP
2AA0
5540
AAA0
4000
A000
4000
AA80
5540
2AA0
0040
00A0
0040
AAA0
5540
AA80
ENDCHAR
STARTCHAR E0D5
ENCODING 57557
SWIDTH 1285 0
DWIDTH 25 0
BBX 23 15 1 0
BITMAP
A0280A
401004
A0280A
401004
A0280A
401004
A0280A
401004
A0280A
401004
A0280A
505414
2AAAA8
154550
0A82A0
ENDCHAR
STARTCHAR E0DA
ENCODING 57562
SWIDTH 668 0
DWIDTH 13 0
BBX 11 15 1 0
BITMAP
A0A0
4040
A0A0
4040
A0A0
5040
2AA0
1540
0AA0
0040
00A0
0040
AAA0
5540
AA80
ENDCHAR
STARTCHAR E0E2
ENCODING 57570
SWIDTH 668 0
DWIDTH 13 0
BBX 11 15 1 0
BITMAP
02A0
0540
0AA0
1440
28A0
5040
A0A0
4040
AAA0
5540
AAA0
4040
A0A0
4040
A0A0
ENDCHAR
STARTCHAR E0FA
ENCODING 57594
SWIDTH 668 0
DWIDTH 13 0
BBX 11 15 1 0
BITMAP
AAA0
5540
AAA0
4040
A0A0
4140
AAA0
5540
AAA0
4040
A0A0
4140
AA80
5500
AA00
ENDCHAR
STARTCHAR E0FB
ENCODING 57595
SWIDTH 668 0
DWIDTH 13 0
BBX 11 15 1 0
BITMAP
02A0
0540
0AA0
1400
2800
5000
A000
4000
A000
4000
A000
4000
AAA0
5540
AAA0
ENDCHAR
STARTCHAR E100
ENCODING 57600
SWIDTH 771 0
DWIDTH 15 0
BBX 13 15 1 0
BITMAP
AA00
5500
AA80
4140
A0A0
4050
A028
4010
A028
4010
A028
4010
AAA8
5550
AAA8
ENDCHAR
STARTCHAR E101
ENCODING 57601
SWIDTH 822 0
DWIDTH 16 0
BBX 15 15 0 0
BITMAP
2A80
1540
2AA0
1050
2828
1014
AA0A
5404
AA0A
1004
280A
1004
2AAA
1554
2AAA
ENDCHAR
STARTCHAR E103
ENCODING 57603
SWIDTH 822 0
DWIDTH 16 0
BBX 15 15 0 0
BITMAP
2A80
1540
2AA0
1050
2828
1014
AA0A
5404
AA0A
1004
280A
1004
2AAA
1554
2AAA
ENDCHAR
STARTCHAR E104
ENCODING 57604
SWIDTH 668 0
DWIDTH 13 0
BBX 11 15 1 0
BITMAP
AAA0
5540
AAA0
4000
A000
4000
AA80
5500
AA80
4000
A000
5000
2AA0
1540
0AA0
ENDCHAR
STARTCHAR E115
ENCODING 57621
SWIDTH 771 0
DWIDTH 15 0
BBX 13 15 1 0
BITMAP
0AA8
1550
2AA8
5000
A000
4000
A2A8
4150
A2A8
4010
A028
4010
AAA8
5550
AAA8
ENDCHAR
STARTCHAR E119
ENCODING 57625
SWIDTH 668 0
DWIDTH 13 0
BBX 11 15 1 0
BITMAP
A000
4000
A000
4000
A000
4000
A000
4000
A000
4000
A000
5000
2AA0
1540
0AA0
ENDCHAR
STARTCHAR E11E
ENCODING 57630
SWIDTH 1080 0
DWIDTH 21 0
BBX 19 15 1 0
BITMAP
A8A800
545400
AAAA00
454500
A2A280
414140
A0A0A0
404040
A0A0A0
404040
A0A0A0
404040
A0A0A0
404040
A0A0A0
ENDCHAR
STARTCHAR E11F
ENCODING 57631
SWIDTH 668 0
DWIDTH 13 0
BBX 11 15 1 0
BITMAP
A800
5400
AA00
4500
A280
4140
A0A0
4040
A0A0
4040
A0A0
4040
A0A0
4040
A0A0
ENDCHAR
STARTCHAR E123
ENCODING 57635
SWIDTH 668 0
DWIDTH 13 0
BBX 11 19 1 -4
BITMAP
A800
5400
AA00
4500
A280
4140
A0A0
4040
A0A0
4040
A0A0
4040
A0A0
4040
A0A0
0040
02A0
0140
0280
ENDCHAR
STARTCHAR E125
ENCODING 57637
SWIDTH 771 0
DWIDTH 15 0
BBX 13 15 1 0
BITMAP
AA80
5540
AAA0
4050
A028
4010
A028
4010
A028
4010
A028
5010
2AA8
1550
0AA8
ENDCHAR
STARTCHAR E136
ENCODING 57654
SWIDTH 668 0
DWIDTH 13 0
BBX 11 15 1 0
BITMAP
AAA0
5540
AAA0
4040
A0A0
4040
A0A0
4040
A0A0
4140
AA80
5500
AA00
4000
A000
ENDCHAR
STARTCHAR E137
ENCODING 57655
SWIDTH 668 0
DWIDTH 13 0
BBX 11 15 1 0
BITMAP
A000
4000
AAA0
5540
AAA0
4040
A0A0
4040
A0A0
4140
AA80
5500
AA00
4000
A000
ENDCHAR
STARTCHAR E138
ENCODING 57656
SWIDTH 771 0
DWIDTH 15 0
BBX 13 17 1 -2
BITMAP
AA80
5540
AAA0
4050
A028
4010
A028
4010
A028
4010
A2A8
5110
2AA8
1550
0AA8
0100
0280
ENDCHAR
STARTCHAR E139
ENCODING 57657
SWIDTH 668 0
DWIDTH 13 0
BBX 11 15 1 0
BITMAP
AAA0
5540
AAA0
4040
A0A0
4040
A0A0
4040
A0A0
4140
AA80
5500
AA80
4140
A0A0
ENDCHAR
STARTCHAR E13D
ENCODING 57661
SWIDTH 668 0
DWIDTH 13 0
BBX 11 15 1 0
BITMAP
0AA0
1540
2AA0
5000
A000
4000
AAA0
5540
AAA0
0040
00A0
0140
AA80
5500
AA00
ENDCHAR
STARTCHAR E141
ENCODING 57665
SWIDTH 668 0
DWIDTH 13 0
BBX 11 15 1 0
BITMAP
A0A0
4040
A0A0
4040
A0A0
4040
A0A0
4040
A0A0
4140
A280
4500
AA00
5400
A800
ENDCHAR
STARTCHAR E142
ENCODING 57666
SWIDTH 1080 0
DWIDTH 21 0
BBX 19 15 1 0
BITMAP
A0A0A0
404040
A0A0A0
404040
A0A0A0
404040
A0A0A0
404040
A0A0A0
414140
A2A280
454500
AAAA00
545400
A8A800
ENDCHAR
STARTCHAR E147
ENCODING 57671
SWIDTH 257 0
DWIDTH 5 0
BBX 3 18 1 0
BITMAP
E0
A0
00
A0
40
A0
40
A0
40
A0
40
A0
40
A0
40
A0
40
A0
ENDCHAR
STARTCHAR E148
ENCODING 57672
SWIDTH 668 0
DWIDTH 13 0
BBX 11 15 1 0
BITMAP
AAA0
5540
AAA0
0040
00A0
0040
AAA0
5540
AAA0
4040
A0A0
4040
AAA0
5540
AAA0
ENDCHAR
STARTCHAR E15F
ENCODING 57695
SWIDTH 1080 0
DWIDTH 21 0
BBX 19 15 1 0
BITMAP
AAAAA0
555540
AAAAA0
004040
00A0A0
004040
AAAAA0
555540
AAAAA0
404000
A0A000
404000
AAAAA0
555540
AAAAA0
ENDCHAR
STARTCHAR E160
ENCODING 57696
SWIDTH 668 0
DWIDTH 13 0
BBX 11 15 1 0
BITMAP
AAA0
5540
AAA0
4040
A0A0
4140
AA80
5500
AA80
4140
A0A0
4040
AAA0
5540
AAA0
ENDCHAR
STARTCHAR E161
ENCODING 57697
SWIDTH 668 0
DWIDTH 13 0
BBX 11 15 1 0
BITMAP
AAA0
5540
AAA0
4040
A0A0
4040
A0A0
4000
A000
4000
A0A0
4040
AAA0
5540
AAA0
ENDCHAR
STARTCHAR E166
ENCODING 57702
SWIDTH 668 0
DWIDTH 13 0
BBX 11 15 1 0
BITMAP
AAA0
5540
AAA0
4040
A0A0
4040
AAA0
5540
AAA0
4000
A000
4000
AAA0
5540
AAA0
ENDCHAR
STARTCHAR E177
ENCODING 57719
SWIDTH 668 0
DWIDTH 13 0
BBX 11 15 1 0
BITMAP
AAA0
5540
AAA0
4000
A000
4000
AA80
5500
AA80
4000
A000
4000
A000
4000
A000
ENDCHAR
STARTCHAR E178
ENCODING 57720
SWIDTH 668 0
DWIDTH 13 0
BBX 11 15 1 0
BITMAP
AAA0
5540
AAA0
4000
A000
4000
A2A0
4140
A2A0
4040
A0A0
4040
AAA0
5540
AAA0
ENDCHAR
STARTCHAR E17C
ENCODING 57724
SWIDTH 462 0
DWIDTH 9 0
BBX 7 15 1 0
BITMAP
0A
04
0A
04
0A
04
0A
04
0A
04
0A
04
AA
54
AA
ENDCHAR
STARTCHAR E17D
ENCODING 57725
SWIDTH 668 0
DWIDTH 13 0
BBX 11 15 1 0
BITMAP
A0A0
4040
A0A0
4140
A280
4500
AAA0
5540
AAA0
4040
A0A0
4040
A0A0
4040
A0A0
ENDCHAR
STARTCHAR E17F
ENCODING 57727
SWIDTH 565 0
DWIDTH 11 0
BBX 9 15 1 0
BITMAP
A000
4000
A000
4000
A000
4000
A000
4000
A000
4000
A000
4000
AA80
5500
AA80
ENDCHAR
STARTCHAR E184
ENCODING 57732
SWIDTH 874 0
DWIDTH 17 0
BBX 15 15 1 0
BITMAP
AAAA
5554
AAAA
4104
A28A
4104
A28A
4104
A28A
4104
A28A
4104
A28A
4104
A28A
ENDCHAR
STARTCHAR E185
ENCODING 57733
SWIDTH 668 0
DWIDTH 13 0
BBX 11 15 1 0
BITMAP
AAA0
5540
AAA0
4040
A0A0
4040
A0A0
4040
A0A0
4040
A0A0
4040
A0A0
4040
A0A0
ENDCHAR
STARTCHAR E189
ENCODING 57737
SWIDTH 668 0
DWIDTH 13 0
BBX 11 19 1 -4
BITMAP
AAA0
5540
AAA0
4040
A0A0
4040
A0A0
4040
A0A0
4040
A0A0
4040
A0A0
4040
A0A0
0040
02A0
0140
0280
ENDCHAR
STARTCHAR E18B
ENCODING 57739
SWIDTH 668 0
DWIDTH 13 0
BBX 11 15 1 0
BITMAP
AAA0
5540
AAA0
4040
A0A0
4040
A0A0
4040
A0A0
4040
A0A0
4040
AAA0
5540
AAA0
ENDCHAR
STARTCHAR E198
ENCODING 57752
SWIDTH 822 0
DWIDTH 16 0
BBX 15 17 1 0
BITMAP
000A
0004
AAAA
5554
AAA8
4040
A0A0
4040
A0A0
4040
A0A0
4040
A0A0
4040
AAA0
5540
AAA0
ENDCHAR
STARTCHAR E1A2
ENCODING 57762
SWIDTH 1080 0
DWIDTH 21 0
BBX 19 15 1 0
BITMAP
AAAAA0
555540
AAAAA0
404040
A0A0A0
404040
A0AAA0
405540
A0AAA0
404000
A0A000
404000
AAAAA0
555540
AAAAA0
ENDCHAR
STARTCHAR E1A3
ENCODING 57763
SWIDTH 668 0
DWIDTH 13 0
BBX 11 15 1 0
BITMAP
AAA0
5540
AAA0
4040
A0A0
4040
A0A0
4040
AAA0
5540
AAA0
4000
A000
4000
A000
ENDCHAR
STARTCHAR E1A4
ENCODING 57764
SWIDTH 668 0
DWIDTH 13 0
BBX 11 15 1 0
BITMAP
A000
4000
AAA0
5540
AAA0
4040
A0A0
4040
A0A0
4040
AAA0
5540
AAA0
4000
A000
ENDCHAR
STARTCHAR E1A5
ENCODING 57765
SWIDTH 668 0
DWIDTH 13 0
BBX 11 17 1 -2
BITMAP
AAA0
5540
AAA0
4040
A0A0
4040
A0A0
4040
A0A0
4040
AAA0
4440
AAA0
5540
AAA0
0400
0A00
ENDCHAR
STARTCHAR E1A6
ENCODING 57766
SWIDTH 668 0
DWIDTH 13 0
BBX 11 15 1 0
BITMAP
AAA0
5540
AAA0
4040
A0A0
4040
A0A0
4040
AAA0
5540
AA80
4140
A0A0
4040
A0A0
ENDCHAR
STARTCHAR E1AA
ENCODING 57770
SWIDTH 668 0
DWIDTH 13 0
BBX 11 15 1 0
BITMAP
AAA0
5540
AAA0
4000
A000
4000
AAA0
5540
AAA0
0040
00A0
0040
AAA0
5540
AAA0
ENDCHAR
STARTCHAR E1B0
ENCODING 57776
SWIDTH 668 0
DWIDTH 13 0
BBX 11 15 1 0
BITMAP
A0A0
4040
A0A0
4040
A0A0
4040
A0A0
4040
A0A0
4040
A0A0
4040
AAA0
5540
AAA0
ENDCHAR
STARTCHAR E1BC
ENCODING 57788
SWIDTH 822 0
DWIDTH 16 0
BBX 15 17 1 0
BITMAP
000A
0004
A0AA
4054
A0A8
4040
A0A0
4040
A0A0
4040
A0A0
4040
A0A0
4040
AAA0
5540
AAA0
ENDCHAR
STARTCHAR E1C7
ENCODING 57799
SWIDTH 874 0
DWIDTH 17 0
BBX 15 15 1 0
BITMAP
A28A
4104
A28A
4104
A28A
4104
A28A
4104
A28A
4104
A28A
4104
AAAA
5554
AAAA
ENDCHAR
STARTCHAR E1CC
ENCODING 57804
SWIDTH 668 0
DWIDTH 13 0
BBX 11 15 1 0
BITMAP
A0A0
4040
A0A0
4040
A0A0
4040
AAA0
5540
AAA0
0040
00A0
0040
AAA0
5540
AAA0
ENDCHAR
STARTCHAR E1D4
ENCODING 57812
SWIDTH 668 0
DWIDTH 13 0
BBX 11 15 1 0
BITMAP
AAA0
5540
AAA0
0040
00A0
0040
AAA0
5540
AAA0
4000
A000
4000
AAA0
5540
AAA0
ENDCHAR
STARTCHAR E1D8
ENCODING 57816
SWIDTH 668 0
DWIDTH 13 0
BBX 11 15 1 0
BITMAP
AA80
5540
AAA0
0040
00A0
0040
2AA0
5540
AAA0
4040
A0A0
4040
AAA0
5540
2A80
ENDCHAR
STARTCHAR E1EF
ENCODING 57839
SWIDTH 1080 0
DWIDTH 21 0
BBX 19 15 1 0
BITMAP
AAAA80
555540
AAAAA0
004040
00A0A0
004040
2AAAA0
555540
AAAAA0
404000
A0A000
404000
AAAAA0
555540
2AAAA0
ENDCHAR
STARTCHAR E1F0
ENCODING 57840
SWIDTH 668 0
DWIDTH 13 0
BBX 11 15 1 0
BITMAP
2AA0
5540
AAA0
4000
A000
4000
A000
4000
A000
4000
A000
4000
AAA0
5540
2AA0
ENDCHAR
STARTCHAR E1F5
ENCODING 57845
SWIDTH 668 0
DWIDTH 13 0
BBX 11 15 1 0
BITMAP
2A80
5540
AAA0
4040
A0A0
4040
AAA0
5540
AAA0
4000
A000
4000
AAA0
5540
2AA0
ENDCHAR
STARTCHAR E206
ENCODING 57862
SWIDTH 668 0
DWIDTH 13 0
BBX 11 15 1 0
BITMAP
2A80
5540
AAA0
4040
A0A0
4000
AA00
5400
AA00
4000
A000
4000
A000
4000
A000
ENDCHAR
STARTCHAR E207
ENCODING 57863
SWIDTH 668 0
DWIDTH 13 0
BBX 11 15 1 0
BITMAP
2AA0
5540
AAA0
4040
A0A0
4040
AAA0
5540
2AA0
0040
00A0
0040
AAA0
5540
AA80
ENDCHAR
STARTCHAR E20B
ENCODING 57867
SWIDTH 565 0
DWIDTH 11 0
BBX 9 15 1 0
BITMAP
0280
0100
0280
0100
0280
0100
0280
0100
0280
0100
A280
4100
AA80
5500
2A00
ENDCHAR
STARTCHAR E20C
ENCODING 57868
SWIDTH 1080 0
DWIDTH 21 0
BBX 19 15 1 0
BITMAP
2AAA80
555540
AAAAA0
404040
A0A0A0
404040
A0A0A0
404040
A0A0A0
404040
A0A0A0
404040
A0A0A0
404040
A0A0A0
ENDCHAR
STARTCHAR E20D
ENCODING 57869
SWIDTH 668 0
DWIDTH 13 0
BBX 11 15 1 0
BITMAP
2A80
5540
AAA0
4040
A0A0
4040
A0A0
4040
A0A0
4040
A0A0
4040
A0A0
4040
A0A0
ENDCHAR
STARTCHAR E211
ENCODING 57873
SWIDTH 668 0
DWIDTH 13 0
BBX 11 19 1 -4
BITMAP
2A80
5540
AAA0
4040
A0A0
4040
A0A0
4040
A0A0
4040
A0A0
4040
A0A0
4040
A0A0
0040
02A0
0140
0280
ENDCHAR
STARTCHAR E213
ENCODING 57875
SWIDTH 1080 0
DWIDTH 21 0
BBX 19 15 1 0
BITMAP
2AAA80
555540
AAAAA0
404040
A0A0A0
404040
A0AAA0
405540
A0AAA0
404000
A0A000
404000
AAAAA0
555540
2AAAA0
ENDCHAR
STARTCHAR E214
ENCODING 57876
SWIDTH 565 0
DWIDTH 11 0
BBX 9 15 1 0
BITMAP
2A80
5500
AA80
4000
A000
4000
A000
4000
A000
4000
A000
4000
A000
4000
A000
ENDCHAR
STARTCHAR E218
ENCODING 57880
SWIDTH 668 0
DWIDTH 13 0
BBX 11 15 1 0
BITMAP
2AA0
5540
AAA0
4000
A000
4000
AA80
5540
2AA0
0040
00A0
0040
AAA0
5540
AA80
ENDCHAR
STARTCHAR E21D
ENCODING 57885
SWIDTH 1080 0
DWIDTH 21 0
BBX 19 15 1 0
BITMAP
A0A0A0
404040
A0A0A0
404040
A0A0A0
404040
A0A0A0
404040
A0A0A0
404040
A0A0A0
404040
AAAAA0
555540
2AAA80
ENDCHAR
STARTCHAR E222
ENCODING 57890
SWIDTH 668 0
DWIDTH 13 0
BBX 11 15 1 0
BITMAP
A0A0
4040
A0A0
4040
A0A0
4040
AAA0
5540
2AA0
0040
00A0
0040
AAA0
5540
AA80
ENDCHAR
STARTCHAR E22A
ENCODING 57898
SWIDTH 668 0
DWIDTH 13 0
BBX 11 15 1 0
BITMAP
A800
5400
AA00
4500
A280
4140
A0A0
4040
AAA0
5540
AAA0
4040
A0A0
4040
A0A0
ENDCHAR
STARTCHAR E242
ENCODING 57922
SWIDTH 668 0
DWIDTH 13 0
BBX 11 15 1 0
BITMAP
AAA0
5540
AAA0
4040
A0A0
4140
AAA0
5540
AAA0
4040
A0A0
4140
AA80
5500
AA00
ENDCHAR
STARTCHAR E243
ENCODING 57923
SWIDTH 668 0
DWIDTH 13 0
BBX 11 15 1 0
BITMAP
AAA0
5540
AAA0
4000
A000
4000
A000
4000
A000
5000
2800
1400
0AA0
0540
02A0
ENDCHAR
STARTCHAR E248
ENCODING 57928
SWIDTH 771 0
DWIDTH 15 0
BBX 13 15 1 0
BITMAP
AAA8
5550
AAA8
4010
A028
4010
A028
4010
A028
4050
A0A0
4140
AA80
5500
AA00
ENDCHAR
STARTCHAR E249
ENCODING 57929
SWIDTH 822 0
DWIDTH 16 0
BBX 15 15 0 0
BITMAP
2AAA
1554
2AAA
1004
280A
1004
AA0A
5404
AA0A
1014
2828
1050
2AA0
1540
2A80
ENDCHAR
STARTCHAR E24B
ENCODING 57931
SWIDTH 822 0
DWIDTH 16 0
BBX 15 15 0 0
BITMAP
2AAA
1554
2AAA
1004
280A
1004
AA0A
5404
AA0A
1014
2828
1050
2AA0
1540
2A80
ENDCHAR
STARTCHAR E24C
ENCODING 57932
SWIDTH 668 0
DWIDTH 13 0
BBX 11 15 1 0
BITMAP
0AA0
1540
2AA0
5000
A000
4000
AA80
5500
AA80
4000
A000
4000
AAA0
5540
AAA0
ENDCHAR
STARTCHAR E25D
ENCODING 57949
SWIDTH 771 0
DWIDTH 15 0
BBX 13 15 1 0
BITMAP
AAA8
5550
AAA8
4000
A000
4000
A2A8
4150
A2A8
4010
A028
5010
2AA8
1550
0AA8
ENDCHAR
STARTCHAR E261
ENCODING 57953
SWIDTH 565 0
DWIDTH 11 0
BBX 9 15 1 0
BITMAP
AA80
5500
AA80
0100
0280
0100
0280
0100
0280
0100
A280
4500
AA00
5400
A800
ENDCHAR
STARTCHAR E262
ENCODING 57954
SWIDTH 565 0
DWIDTH 11 0
BBX 9 15 1 0
BITMAP
A000
4000
A000
4000
A000
4000
A000
4000
A000
4000
A000
5000
2A80
1500
0A80
ENDCHAR
STARTCHAR E267
ENCODING 57959
SWIDTH 1080 0
DWIDTH 21 0
BBX 19 15 1 0
BITMAP
02A2A0
054540
0AAAA0
145440
28A8A0
505040
A0A0A0
404040
A0A0A0
404040
A0A0A0
404040
A0A0A0
404040
A0A0A0
ENDCHAR
STARTCHAR E268
ENCODING 57960
SWIDTH 668 0
DWIDTH 13 0
BBX 11 15 1 0
BITMAP
02A0
0540
0AA0
1440
28A0
5040
A0A0
4040
A0A0
4040
A0A0
4040
A0A0
4040
A0A0
ENDCHAR
STARTCHAR E26C
ENCODING 57964
SWIDTH 668 0
DWIDTH 13 0
BBX 11 19 1 -4
BITMAP
02A0
0540
0AA0
1440
28A0
5040
A0A0
4040
A0A0
4040
A0A0
4040
A0A0
4040
A0A0
0040
02A0
0140
0280
ENDCHAR
STARTCHAR E26E
ENCODING 57966
SWIDTH 771 0
DWIDTH 15 0
BBX 13 15 1 0
BITMAP
0AA8
1550
2AA8
5010
A028
4010
A028
4010
A028
4010
A028
4050
AAA0
5540
AA80
ENDCHAR
STARTCHAR E27F
ENCODING 57983
SWIDTH 668 0
DWIDTH 13 0
BBX 11 15 1 0
BITMAP
AAA0
5540
AAA0
4040
A0A0
4040
A0A0
4140
AA80
5500
AA00
4000
A000
4000
A000
ENDCHAR
STARTCHAR E280
ENCODING 57984
SWIDTH 668 0
DWIDTH 13 0
BBX 11 15 1 0
BITMAP
A000
4000
AAA0
5540
AAA0
4040
A0A0
4040
A0A0
4140
AA80
5500
AA00
4000
A000
ENDCHAR
STARTCHAR E281
ENCODING 57985
SWIDTH 771 0
DWIDTH 15 0
BBX 13 17 1 -2
BITMAP
0AA8
1550
2AA8
5010
A028
4010
A028
4010
A028
4010
AA28
4450
AAA0
5540
AA80
0400
0A00
ENDCHAR
STARTCHAR E282
ENCODING 57986
SWIDTH 668 0
DWIDTH 13 0
BBX 11 15 1 0
BITMAP
AAA0
5540
AAA0
4040
A0A0
4040
A0A0
4140
AA80
5500
AA80
4140
A0A0
4040
A0A0
ENDCHAR
STARTCHAR E286
ENCODING 57990
SWIDTH 668 0
DWIDTH 13 0
BBX 11 15 1 0
BITMAP
0AA0
1540
2AA0
5000
A000
4000
AAA0
5540
AAA0
0040
00A0
0140
AA80
5500
AA00
ENDCHAR
STARTCHAR E28A
ENCODING 57994
SWIDTH 668 0
DWIDTH 13 0
BBX 11 15 1 0
BITMAP
A0A0
4040
A0A0
4040
A0A0
4040
A0A0
4040
A0A0
5040
28A0
1440
0AA0
0540
02A0
ENDCHAR
STARTCHAR E28B
ENCODING 57995
SWIDTH 1080 0
DWIDTH 21 0
BBX 19 15 1 0
BITMAP
A0A0A0
404040
A0A0A0
404040
A0A0A0
404040
A0A0A0
404040
A0A0A0
505040
28A8A0
145440
0AAAA0
054540
02A2A0
ENDCHAR
STARTCHAR E290
ENCODING 58000
SWIDTH 668 0
DWIDTH 13 0
BBX 11 15 1 0
BITMAP
A0A0
4040
A0A0
4040
A0A0
4040
A0A0
5040
2AA0
1540
0AA0
0040
00A0
0040
00A0
ENDCHAR
STARTCHAR E298
ENCODING 58008
SWIDTH 668 0
DWIDTH 13 0
BBX 11 15 1 0
BITMAP
AAA0
5540
AAA0
0140
0280
0500
0A00
1400
2800
5000
A000
4000
AAA0
5540
AAA0
ENDCHAR
STARTCHAR E29C
ENCODING 58012
SWIDTH 771 0
DWIDTH 15 0
BBX 13 15 1 0
BITMAP
AA80
5540
AAA0
4050
A000
4000
A2A8
4150
A2A8
4010
A028
4050
AAA0
5540
AA80
ENDCHAR
STARTCHAR E29D
ENCODING 58013
SWIDTH 668 0
DWIDTH 13 0
BBX 11 15 1 0
BITMAP
AAA0
5540
AAA0
4040
A0A0
4040
A0A0
4040
AAA0
5540
AAA0
4040
A0A0
4040
A0A0
ENDCHAR
STARTCHAR E29E
ENCODING 58014
SWIDTH 668 0
DWIDTH 13 0
BBX 11 15 1 0
BITMAP
AAA0
5540
AAA0
4000
A000
4000
AA80
5540
AAA0
4040
A0A0
4040
AAA0
5540
AA80
ENDCHAR
STARTCHAR E29F
ENCODING 58015
SWIDTH 668 0
DWIDTH 13 0
BBX 11 15 1 0
BITMAP
AAA0
5540
AAA0
4040
A0A0
4140
AA80
5500
AA80
4140
A0A0
4040
AAA0
5540
AAA0
ENDCHAR
STARTCHAR E2A0
ENCODING 58016
SWIDTH 668 0
DWIDTH 13 0
BBX 11 15 1 0
BITMAP
AAA0
5540
AAA0
4000
A000
4000
A000
4000
A000
4000
A000
4000
A000
4000
A000
ENDCHAR
STARTCHAR E2A2
ENCODING 58018
SWIDTH 668 0
DWIDTH 13 0
BBX 11 15 1 0
BITMAP
AAA0
5540
AAA0
4000
A000
4000
AA80
5500
AA80
4000
A000
4000
AAA0
5540
AAA0
ENDCHAR
STARTCHAR E2A4
ENCODING 58020
SWIDTH 1080 0
DWIDTH 21 0
BBX 19 15 1 0
BITMAP
A0A0A0
404040
A0A0A0
504140
28A280
144500
AAAAA0
555540
AAAAA0
404040
A0A0A0
404040
A0A0A0
404040
A0A0A0
ENDCHAR
STARTCHAR E2A5
ENCODING 58021
SWIDTH 771 0
DWIDTH 15 0
BBX 13 15 1 0
BITMAP
AAA8
5550
AAA8
4010
A028
0050
0AA0
0540
0AA0
0050
A028
4010
AAA8
5550
AAA8
ENDCHAR
STARTCHAR E2A6
ENCODING 58022
SWIDTH 668 0
DWIDTH 13 0
BBX 11 15 1 0
BITMAP
A0A0
4040
A0A0
4140
A280
4500
AAA0
5540
AAA0
4040
A0A0
4040
A0A0
4040
A0A0
ENDCHAR
STARTCHAR E2A8
ENCODING 58024
SWIDTH 1080 0
DWIDTH 21 0
BBX 19 15 1 0
BITMAP
AAAAA0
555540
AAAAA0
404040
A0A0A0
404040
A0A0A0
404040
A0A0A0
404040
A0A0A0
404040
A0A0A0
404040
A0A0A0
ENDCHAR
STARTCHAR E2A9
ENCODING 58025
SWIDTH 771 0
DWIDTH 15 0
BBX 13 15 1 0
BITMAP
AAA8
5550
AAA8
4010
A028
4010
A028
4010
A028
4010
A028
4010
AAA8
5550
AAA8
ENDCHAR
STARTCHAR E2AA
ENCODING 58026
SWIDTH 771 0
DWIDTH 15 0
BBX 13 15 1 0
BITMAP
AAA8
5550
AAA8
4010
A028
4010
A028
4010
A028
4010
A028
4010
A028
4010
A028
ENDCHAR
STARTCHAR E2AB
ENCODING 58027
SWIDTH 668 0
DWIDTH 13 0
BBX 11 15 1 0
BITMAP
AAA0
5540
AAA0
4040
A0A0
4040
A0A0
4040
A0A0
4040
AAA0
5540
AAA0
4000
A000
ENDCHAR
STARTCHAR E2AC
ENCODING 58028
SWIDTH 771 0
DWIDTH 15 0
BBX 13 15 1 0
BITMAP
AAA8
5550
AAA8
4010
A028
4010
A028
4000
A000
4000
A028
4010
AAA8
5550
AAA8
ENDCHAR
STARTCHAR E2AD
ENCODING 58029
SWIDTH 668 0
DWIDTH 13 0
BBX 11 15 1 0
BITMAP
A0A0
4040
A0A0
4040
A0A0
4040
AAA0
5540
AAA0
0040
00A0
0040
AAA0
5540
AAA0
ENDCHAR
STARTCHAR E2AE
ENCODING 58030
SWIDTH 874 0
DWIDTH 17 0
BBX 15 19 1 -2
BITMAP
0280
0100
AAAA
5554
AAAA
4104
A28A
4104
A28A
4104
A28A
4104
A28A
4104
AAAA
5554
AAAA
0100
0280
ENDCHAR
STARTCHAR E2AF
ENCODING 58031
SWIDTH 771 0
DWIDTH 15 0
BBX 13 15 1 0
BITMAP
A028
4010
A028
4010
A028
5050
2AA0
1540
2AA0
5050
A028
4010
A028
4010
A028
ENDCHAR
STARTCHAR E2B0
ENCODING 58032
SWIDTH 668 0
DWIDTH 13 0
BBX 11 15 1 0
BITMAP
A0A0
4040
A0A0
4040
A0A0
4040
AAA0
5540
AAA0
0040
00A0
0040
00A0
0040
00A0
ENDCHAR
STARTCHAR E2B1
ENCODING 58033
SWIDTH 822 0
DWIDTH 16 0
BBX 15 17 1 -2
BITMAP
A028
4010
A028
4010
A028
4010
A028
4010
A028
4010
A028
4010
AAA8
5554
AAAA
0004
000A
ENDCHAR
STARTCHAR E2B2
ENCODING 58034
SWIDTH 1080 0
DWIDTH 21 0
BBX 19 15 1 0
BITMAP
A0A0A0
404040
A0A0A0
404040
A0A0A0
404040
A0A0A0
404040
A0A0A0
404040
A0A0A0
404040
AAAAA0
555540
AAAAA0
ENDCHAR
STARTCHAR E2B3
ENCODING 58035
SWIDTH 1131 0
DWIDTH 22 0
BBX 21 17 1 -2
BITMAP
A0A0A0
404040
A0A0A0
404040
A0A0A0
404040
A0A0A0
404040
A0A0A0
404040
A0A0A0
404040
AAAAA0
555550
AAAAA8
000010
000028
ENDCHAR
STARTCHAR E2B4
ENCODING 58036
SWIDTH 668 0
DWIDTH 13 0
BBX 11 15 1 0
BITMAP
A000
4000
A000
4000
A000
4000
AAA0
5540
AAA0
4040
A0A0
4040
AAA0
5540
AAA0
ENDCHAR
STARTCHAR E2B5
ENCODING 58037
SWIDTH 771 0
DWIDTH 15 0
BBX 13 15 1 0
BITMAP
A800
5000
A800
1000
2800
1000
2AA8
1550
2AA8
1010
2828
1010
2AA8
1550
2AA8
ENDCHAR
STARTCHAR E2B6
ENCODING 58038
SWIDTH 925 0
DWIDTH 18 0
BBX 16 15 1 0
BITMAP
A005
4002
A005
4002
A005
4002
AAA5
5542
AAA5
4042
A0A5
4042
AAA5
5542
AAA5
ENDCHAR
STARTCHAR E2B7
ENCODING 58039
SWIDTH 771 0
DWIDTH 15 0
BBX 13 15 1 0
BITMAP
AAA8
5550
AAA8
4010
A028
0010
0AA8
0550
0AA8
0010
A028
4010
AAA8
5550
AAA8
ENDCHAR
STARTCHAR E2B8
ENCODING 58040
SWIDTH 1080 0
DWIDTH 21 0
BBX 19 15 1 0
BITMAP
A2AAA0
415540
A2AAA0
410040
A280A0
410040
AA80A0
550040
AA80A0
410040
A280A0
410040
A2AAA0
415540
A2AAA0
ENDCHAR
STARTCHAR E2B9
ENCODING 58041
SWIDTH 668 0
DWIDTH 13 0
BBX 11 15 1 0
BITMAP
AAA0
5540
AAA0
4040
A0A0
4040
A0A0
4040
A0A0
4040
AAA0
5540
2AA0
5040
A0A0
ENDCHAR
STARTCHAR E2BE
ENCODING 58046
SWIDTH 668 0
DWIDTH 13 0
BBX 11 15 1 0
BITMAP
02A0
0540
0AA0
1440
28A0
5040
A0A0
4040
AAA0
5540
AAA0
4040
A0A0
4040
A0A0
ENDCHAR
STARTCHAR E2BF
ENCODING 58047
SWIDTH 668 0
DWIDTH 13 0
BBX 11 15 1 0
BITMAP
AAA0
5540
AAA0
4000
A000
4000
AAA0
5540
AAA0
4040
A0A0
4140
AA80
5500
AA00
ENDCHAR
STARTCHAR E2C0
ENCODING 58048
SWIDTH 668 0
DWIDTH 13 0
BBX 11 15 1 0
BITMAP
AAA0
5540
AAA0
4040
A0A0
4140
AAA0
5540
AAA0
4040
A0A0
4140
AA80
5500
AA00
ENDCHAR
STARTCHAR E2C1
ENCODING 58049
SWIDTH 668 0
DWIDTH 13 0
BBX 11 15 1 0
BITMAP
0AA0
1540
2AA0
5000
A000
4000
A000
4000
A000
4000
A000
4000
A000
4000
A000
ENDCHAR
STARTCHAR E2C2
ENCODING 58050
SWIDTH 668 0
DWIDTH 13 0
BBX 11 15 1 0
BITMAP
AAA0
5540
AAA0
4000
A000
4000
AA80
5500
AA80
4000
A000
5000
2AA0
1540
0AA0
ENDCHAR
STARTCHAR E2C5
ENCODING 58053
SWIDTH 771 0
DWIDTH 15 0
BBX 13 15 1 0
BITMAP
2AA8
1550
2AA8
1010
2828
1010
2828
1010
2828
1010
2828
1010
A828
5010
A028
ENDCHAR
STARTCHAR E2C6
ENCODING 58054
SWIDTH 1080 0
DWIDTH 21 0
BBX 19 15 1 0
BITMAP
A8A800
545400
AAAA00
454500
A2A280
414140
A0A0A0
404040
A0A0A0
404040
A0A0A0
404040
A0A0A0
404040
A0A0A0
ENDCHAR
STARTCHAR E2C7
ENCODING 58055
SWIDTH 771 0
DWIDTH 15 0
BBX 13 15 1 0
BITMAP
AA80
5540
AAA0
4050
A028
4010
A028
4010
A028
4010
A028
5010
2AA8
1550
0AA8
ENDCHAR
STARTCHAR E2C8
ENCODING 58056
SWIDTH 668 0
DWIDTH 13 0
BBX 11 15 1 0
BITMAP
AAA0
5540
AAA0
4040
A0A0
4040
A0A0
4040
A0A0
4140
AA80
5500
AA00
4000
A000
ENDCHAR
STARTCHAR E2C9
ENCODING 58057
SWIDTH 668 0
DWIDTH 13 0
BBX 11 15 1 0
BITMAP
02A0
0540
0AA0
1400
2800
5000
A000
4000
A000
4000
A000
4000
AAA0
5540
AAA0
ENDCHAR
STARTCHAR E2CA
ENCODING 58058
SWIDTH 874 0
DWIDTH 17 0
BBX 15 19 1 -2
BITMAP
0280
0100
AAA0
5550
AAA8
4114
A28A
4104
A28A
4104
A28A
4104
A28A
5104
2AAA
1554
0AAA
0100
0280
ENDCHAR
STARTCHAR E2CB
ENCODING 58059
SWIDTH 668 0
DWIDTH 13 0
BBX 11 15 1 0
BITMAP
A000
4000
A000
4000
A000
4000
AAA0
5540
AAA0
4040
A0A0
4140
AA80
5500
AA00
ENDCHAR
STARTCHAR E2CC
ENCODING 58060
SWIDTH 771 0
DWIDTH 15 0
BBX 13 15 1 0
BITMAP
A800
5000
A800
1000
2800
1000
2AA8
1550
2AA8
1010
2828
1050
2AA0
1540
2A80
ENDCHAR
STARTCHAR E2CD
ENCODING 58061
SWIDTH 925 0
DWIDTH 18 0
BBX 16 15 1 0
BITMAP
A005
4002
A005
4002
A005
4002
AAA5
5542
AAA5
4042
A0A5
4142
AA85
5502
AA05
ENDCHAR
STARTCHAR E2CF
ENCODING 58063
SWIDTH 1080 0
DWIDTH 21 0
BBX 19 15 1 0
BITMAP
A2AA00
415500
A2AA80
410140
A280A0
410040
AA80A0
550040
AA80A0
410040
A280A0
414040
A0AAA0
405540
A02AA0
ENDCHAR
STARTCHAR E2D0
ENCODING 58064
SWIDTH 668 0
DWIDTH 13 0
BBX 11 15 1 0
BITMAP
AAA0
5540
AAA0
4040
A0A0
4040
A0A0
4040
A0A0
5040
2AA0
1540
2AA0
5040
A0A0
ENDCHAR
STARTCHAR E2D1
ENCODING 58065
SWIDTH 668 0
DWIDTH 13 0
BBX 11 15 1 0
BITMAP
AAA0
5540
AAA0
0040
00A0
0040
AAA0
5540
AAA0
4040
A0A0
4040
AAA0
5540
AAA0
ENDCHAR
STARTCHAR E2D2
ENCODING 58066
SWIDTH 668 0
DWIDTH 13 0
BBX 11 15 1 0
BITMAP
AAA0
5540
AAA0
4000
A000
4000
AA80
5540
AAA0
4040
A0A0
4040
AAA0
5540
AA80
ENDCHAR
STARTCHAR E2D3
ENCODING 58067
SWIDTH 668 0
DWIDTH 13 0
BBX 11 15 1 0
BITMAP
AAA0
5540
AAA0
4040
A0A0
4140
AA80
5500
AA80
4140
A0A0
4040
AAA0
5540
AAA0
ENDCHAR
STARTCHAR E2D4
ENCODING 58068
SWIDTH 565 0
DWIDTH 11 0
BBX 9 15 1 0
BITMAP
AA80
5500
AA80
4000
A000
4000
A000
4000
A000
4000
A000
4000
A000
4000
A000
ENDCHAR
STARTCHAR E2D6
ENCODING 58070
SWIDTH 668 0
DWIDTH 13 0
BBX 11 15 1 0
BITMAP
AAA0
5540
AAA0
4040
A0A0
4040
AAA0
5540
AAA0
4000
A000
4000
AAA0
5540
AAA0
ENDCHAR
STARTCHAR E2D8
ENCODING 58072
SWIDTH 1080 0
DWIDTH 21 0
BBX 19 15 1 0
BITMAP
A0A0A0
404040
A0A0A0
504140
28A280
144500
AAAAA0
555540
AAAAA0
404040
A0A0A0
404040
A0A0A0
404040
A0A0A0
ENDCHAR
STARTCHAR E2D9
ENCODING 58073
SWIDTH 668 0
DWIDTH 13 0
BBX 11 15 1 0
BITMAP
AAA0
5540
AAA0
4040
A0A0
0140
0A80
0500
0A80
0140
A0A0
4040
AAA0
5540
AAA0
ENDCHAR
STARTCHAR E2DA
ENCODING 58074
SWIDTH 668 0
DWIDTH 13 0
BBX 11 15 1 0
BITMAP
A0A0
4040
A0A0
4140
A280
4500
AAA0
5540
AAA0
4040
A0A0
4040
A0A0
4040
A0A0
ENDCHAR
STARTCHAR E2DC
ENCODING 58076
SWIDTH 874 0
DWIDTH 17 0
BBX 15 15 1 0
BITMAP
AAAA
5554
AAAA
4104
A28A
4104
A28A
4104
A28A
4104
A28A
4104
A28A
4104
A28A
ENDCHAR
STARTCHAR E2DD
ENCODING 58077
SWIDTH 668 0
DWIDTH 13 0
BBX 11 15 1 0
BITMAP
AAA0
5540
AAA0
4040
A0A0
4040
A0A0
4040
A0A0
4040
A0A0
4040
AAA0
5540
AAA0
ENDCHAR
STARTCHAR E2DE
ENCODING 58078
SWIDTH 668 0
DWIDTH 13 0
BBX 11 15 1 0
BITMAP
AAA0
5540
AAA0
4040
A0A0
4040
A0A0
4040
A0A0
4040
A0A0
4040
A0A0
4040
A0A0
ENDCHAR
STARTCHAR E2DF
ENCODING 58079
SWIDTH 668 0
DWIDTH 13 0
BBX 11 15 1 0
BITMAP
AAA0
5540
AAA0
4040
A0A0
4040
A0A0
4040
AAA0
5540
AAA0
4000
A000
4000
A000
ENDCHAR
STARTCHAR E2E0
ENCODING 58080
SWIDTH 668 0
DWIDTH 13 0
BBX 11 15 1 0
BITMAP
AAA0
5540
AAA0
4040
A0A0
4040
A0A0
4000
A000
4000
A0A0
4040
AAA0
5540
AAA0
ENDCHAR
STARTCHAR E2E1
ENCODING 58081
SWIDTH 668 0
DWIDTH 13 0
BBX 11 15 1 0
BITMAP
A0A0
4040
A0A0
4040
A0A0
4040
AAA0
5540
AAA0
0040
00A0
0040
AAA0
5540
AAA0
ENDCHAR
STARTCHAR E2E2
ENCODING 58082
SWIDTH 874 0
DWIDTH 17 0
BBX 15 19 1 -2
BITMAP
0280
0100
AAAA
5554
AAAA
4104
A28A
4104
A28A
4104
A28A
4104
A28A
4104
AAAA
5554
AAAA
0100
0280
ENDCHAR
STARTCHAR E2E3
ENCODING 58083
SWIDTH 668 0
DWIDTH 13 0
BBX 11 15 1 0
BITMAP
A0A0
4040
A0A0
4040
A0A0
4040
AAA0
5540
AAA0
0040
00A0
0040
00A0
0040
00A0
ENDCHAR
STARTCHAR E2E4
ENCODING 58084
SWIDTH 720 0
DWIDTH 14 0
BBX 13 17 1 -2
BITMAP
A0A0
4040
A0A0
4040
A0A0
4040
A0A0
4040
A0A0
4040
A0A0
4040
AAA0
5550
AAA8
0010
0028
ENDCHAR
STARTCHAR E2E5
ENCODING 58085
SWIDTH 874 0
DWIDTH 17 0
BBX 15 15 1 0
BITMAP
A28A
4104
A28A
4104
A28A
4104
A28A
4104
A28A
4104
A28A
4104
AAAA
5554
AAAA
ENDCHAR
STARTCHAR E2E6
ENCODING 58086
SWIDTH 925 0
DWIDTH 18 0
BBX 17 17 1 -2
BITMAP
A28A00
410400
A28A00
410400
A28A00
410400
A28A00
410400
A28A00
410400
A28A00
410400
AAAA00
555500
AAAA80
000100
000280
ENDCHAR
STARTCHAR E2E7
ENCODING 58087
SWIDTH 668 0
DWIDTH 13 0
BBX 11 15 1 0
BITMAP
A000
4000
A000
4000
A000
4000
AAA0
5540
AAA0
4040
A0A0
4040
AAA0
5540
AAA0
ENDCHAR
STARTCHAR E2E8
ENCODING 58088
SWIDTH 771 0
DWIDTH 15 0
BBX 13 15 1 0
BITMAP
A800
5000
A800
1000
2800
1000
2AA8
1550
2AA8
1010
2828
1010
2AA8
1550
2AA8
ENDCHAR
STARTCHAR E2E9
ENCODING 58089
SWIDTH 925 0
DWIDTH 18 0
BBX 16 15 1 0
BITMAP
A005
4002
A005
4002
A005
4002
AAA5
5542
AAA5
4042
A0A5
4042
AAA5
5542
AAA5
ENDCHAR
STARTCHAR E2EA
ENCODING 58090
SWIDTH 771 0
DWIDTH 15 0
BBX 13 15 1 0
BITMAP
AAA8
5550
AAA8
4010
A028
0010
0AA8
0550
0AA8
0010
A028
4010
AAA8
5550
AAA8
ENDCHAR
STARTCHAR E2EB
ENCODING 58091
SWIDTH 977 0
DWIDTH 19 0
BBX 17 15 1 0
BITMAP
A2AA80
415500
A2AA80
410100
A28280
410100
AA8280
550100
AA8280
410100
A28280
410100
A2AA80
415500
A2AA80
ENDCHAR
STARTCHAR E2EC
ENCODING 58092
SWIDTH 668 0
DWIDTH 13 0
BBX 11 15 1 0
BITMAP
AAA0
5540
AAA0
4040
A0A0
4040
A0A0
4040
AAA0
5540
2AA0
5040
A0A0
4040
A0A0
ENDCHAR
STARTCHAR E2F1
ENCODING 58097
SWIDTH 668 0
DWIDTH 13 0
BBX 11 15 1 0
BITMAP
A800
5400
AA00
4500
A280
4140
A0A0
4040
AAA0
5540
AAA0
4040
A0A0
4040
A0A0
ENDCHAR
STARTCHAR E2F2
ENCODING 58098
SWIDTH 668 0
DWIDTH 13 0
BBX 11 15 1 0
BITMAP
AAA0
5540
AAA0
4000
A000
4000
AA00
5500
AA80
4140
A0A0
4040
AAA0
5540
AAA0
ENDCHAR
STARTCHAR E2F3
ENCODING 58099
SWIDTH 668 0
DWIDTH 13 0
BBX 11 15 1 0
BITMAP
AAA0
5540
AAA0
4040
A0A0
4140
AAA0
5540
AAA0
4040
A0A0
4140
AA80
5500
AA00
ENDCHAR
STARTCHAR E2F4
ENCODING 58100
SWIDTH 565 0
DWIDTH 11 0
BBX 9 15 1 0
BITMAP
0A80
1500
2A80
5000
A000
4000
A000
4000
A000
4000
A000
4000
A000
4000
A000
ENDCHAR
STARTCHAR E2F5
ENCODING 58101
SWIDTH 668 0
DWIDTH 13 0
BBX 11 15 1 0
BITMAP
0AA0
1540
2AA0
5000
A000
4000
AA80
5500
AA80
4000
A000
4000
AAA0
5540
AAA0
ENDCHAR
STARTCHAR E2F8
ENCODING 58104
SWIDTH 771 0
DWIDTH 15 0
BBX 13 15 1 0
BITMAP
2AA8
1550
2AA8
1010
2828
1010
2828
1010
2828
1010
2828
1010
A828
5010
A028
ENDCHAR
STARTCHAR E2F9
ENCODING 58105
SWIDTH 1080 0
DWIDTH 21 0
BBX 19 15 1 0
BITMAP
02A2A0
054540
0AAAA0
145440
28A8A0
505040
A0A0A0
404040
A0A0A0
404040
A0A0A0
404040
A0A0A0
404040
A0A0A0
ENDCHAR
STARTCHAR E2FA
ENCODING 58106
SWIDTH 771 0
DWIDTH 15 0
BBX 13 15 1 0
BITMAP
0AA8
1550
2AA8
5010
A028
4010
A028
4010
A028
4010
A028
4050
AAA0
5540
AA80
ENDCHAR
STARTCHAR E2FB
ENCODING 58107
SWIDTH 668 0
DWIDTH 13 0
BBX 11 15 1 0
BITMAP
AAA0
5540
AAA0
4040
A0A0
4040
A0A0
4140
AA80
5500
AA00
4000
A000
4000
A000
ENDCHAR
STARTCHAR E2FC
ENCODING 58108
SWIDTH 668 0
DWIDTH 13 0
BBX 11 15 1 0
BITMAP
AAA0
5540
AAA0
4000
A000
4000
A000
4000
A000
5000
2800
1400
0AA0
0540
02A0
ENDCHAR
STARTCHAR E2FD
ENCODING 58109
SWIDTH 874 0
DWIDTH 17 0
BBX 15 19 1 -2
BITMAP
0280
0100
0AAA
1554
2AAA
5104
A28A
4104
A28A
4104
A28A
4104
A28A
4114
AAA8
5550
AAA0
0100
0280
ENDCHAR
STARTCHAR E2FE
ENCODING 58110
SWIDTH 668 0
DWIDTH 13 0
BBX 11 15 1 0
BITMAP
A000
4000
A000
4000
A000
4000
AA00
5500
AA80
4140
A0A0
4040
AAA0
5540
AAA0
ENDCHAR
STARTCHAR E2FF
ENCODING 58111
SWIDTH 771 0
DWIDTH 15 0
BBX 13 15 1 0
BITMAP
A800
5000
A800
1000
2800
1000
2A80
1540
2AA0
1050
2828
1010
2AA8
1550
2AA8
ENDCHAR
STARTCHAR E300
ENCODING 58112
SWIDTH 925 0
DWIDTH 18 0
BBX 16 15 1 0
BITMAP
A005
4002
A005
4002
A005
4002
AA05
5502
AA85
4142
A0A5
4042
AAA5
5542
AAA5
ENDCHAR
STARTCHAR E302
ENCODING 58114
SWIDTH 1080 0
DWIDTH 21 0
BBX 19 15 1 0
BITMAP
A02AA0
405540
A0AAA0
414040
A280A0
410040
AA80A0
550040
AA80A0
410040
A280A0
410140
A2AA80
415500
A2AA00
ENDCHAR
STARTCHAR E303
ENCODING 58115
SWIDTH 668 0
DWIDTH 13 0
BBX 11 15 1 0
BITMAP
AAA0
5540
AAA0
4040
A0A0
4040
A0A0
5040
2AA0
1540
2AA0
5040
A0A0
4040
A0A0
ENDCHAR
STARTCHAR E304
ENCODING 58116
SWIDTH 668 0
DWIDTH 13 0
BBX 11 15 1 0
BITMAP
2AA0
5540
AAA0
4040
A0A0
4040
A0A0
4040
A0A0
4040
A0A0
4040
AAA0
5540
AA80
ENDCHAR
STARTCHAR E305
ENCODING 58117
SWIDTH 668 0
DWIDTH 13 0
BBX 11 15 1 0
BITMAP
AAA0
5540
AAA0
4040
A0A0
0040
2AA0
5540
AA80
4000
A000
4000
AAA0
5540
AAA0
ENDCHAR
STARTCHAR E306
ENCODING 58118
SWIDTH 668 0
DWIDTH 13 0
BBX 11 15 1 0
BITMAP
AAA0
5540
AAA0
4040
A0A0
0040
0AA0
0540
0AA0
0040
A0A0
4040
AAA0
5540
AAA0
ENDCHAR
STARTCHAR E307
ENCODING 58119
SWIDTH 668 0
DWIDTH 13 0
BBX 11 15 1 0
BITMAP
A0A0
4040
A0A0
4040
A0A0
4040
A0A0
4040
AAA0
5540
AAA0
0040
00A0
0040
00A0
ENDCHAR
STARTCHAR E308
ENCODING 58120
SWIDTH 668 0
DWIDTH 13 0
BBX 11 15 1 0
BITMAP
AAA0
5540
AAA0
4000
A000
4000
AAA0
5540
AAA0
4040
A0A0
4040
AAA0
5540
AAA0
ENDCHAR
STARTCHAR E309
ENCODING 58121
SWIDTH 668 0
DWIDTH 13 0
BBX 11 15 1 0
BITMAP
AAA0
5540
AAA0
0040
00A0
0040
2AA0
1540
2AA0
0040
00A0
0040
00A0
0040
00A0
ENDCHAR
STARTCHAR E30A
ENCODING 58122
SWIDTH 668 0
DWIDTH 13 0
BBX 11 15 1 0
BITMAP
AAA0
5540
AAA0
4040
A0A0
4040
AAA0
5540
AAA0
4040
A0A0
4040
AAA0
5540
AAA0
ENDCHAR
STARTCHAR E30B
ENCODING 58123
SWIDTH 668 0
DWIDTH 13 0
BBX 11 15 1 0
BITMAP
AAA0
5540
AAA0
4040
A0A0
4040
AAA0
5540
AAA0
0040
00A0
0040
AAA0
5540
AAA0
ENDCHAR
STARTCHAR E30C
ENCODING 58124
SWIDTH 668 0
DWIDTH 13 0
BBX 11 15 1 0
BITMAP
2A80
5540
AAA0
4040
A0A0
0040
2AA0
5540
AA80
4000
A000
4000
AAA0
5540
AAA0
ENDCHAR
STARTCHAR E30D
ENCODING 58125
SWIDTH 668 0
DWIDTH 13 0
BBX 11 15 1 0
BITMAP
2A80
5540
AAA0
4040
A0A0
0040
0AA0
0540
0AA0
0040
A0A0
4040
AAA0
5540
2A80
ENDCHAR
STARTCHAR E30E
ENCODING 58126
SWIDTH 668 0
DWIDTH 13 0
BBX 11 15 1 0
BITMAP
0A80
1500
2A80
5100
A280
4100
A280
4100
AAA0
5540
AAA0
0100
0280
0100
0280
ENDCHAR
STARTCHAR E30F
ENCODING 58127
SWIDTH 668 0
DWIDTH 13 0
BBX 11 15 1 0
BITMAP
A000
4000
A000
4000
AA80
5540
AAA0
4040
A0A0
4040
A0A0
4040
AAA0
5540
2A80
ENDCHAR
STARTCHAR E310
ENCODING 58128
SWIDTH 668 0
DWIDTH 13 0
BBX 11 15 1 0
BITMAP
AAA0
5540
AAA0
0040
00A0
0040
0AA0
1540
2A80
1000
2800
1000
2800
1000
2800
ENDCHAR
STARTCHAR E311
ENCODING 58129
SWIDTH 668 0
DWIDTH 13 0
BBX 11 15 1 0
BITMAP
2A80
5540
AAA0
4040
A0A0
4040
AAA0
5540
AAA0
4040
A0A0
4040
AAA0
5540
2A80
ENDCHAR
STARTCHAR E312
ENCODING 58130
SWIDTH 668 0
DWIDTH 13 0
BBX 11 15 1 0
BITMAP
2A80
5540
AAA0
4040
A0A0
4040
A0A0
4040
AAA0
5540
2AA0
0040
00A0
0040
00A0
ENDCHAR
STARTCHAR E313
ENCODING 58131
SWIDTH 668 0
DWIDTH 13 0
BBX 11 15 1 0
BITMAP
AA80
5540
AAA0
4040
A0A0
4040
A0A0
4040
A0A0
4040
A0A0
4040
AAA0
5540
2AA0
ENDCHAR
STARTCHAR E314
ENCODING 58132
SWIDTH 668 0
DWIDTH 13 0
BBX 11 15 1 0
BITMAP
AAA0
5540
AAA0
4040
A0A0
0140
0280
0500
0A00
1400
2800
5000
AAA0
5540
AAA0
ENDCHAR
STARTCHAR E315
ENCODING 58133
SWIDTH 668 0
DWIDTH 13 0
BBX 11 15 1 0
BITMAP
AAA0
5540
AAA0
4040
A0A0
0140
0A80
0540
0AA0
0040
A0A0
4040
AAA0
5540
AAA0
ENDCHAR
STARTCHAR E316
ENCODING 58134
SWIDTH 668 0
DWIDTH 13 0
BBX 11 15 1 0
BITMAP
0AA0
1540
2AA0
5000
A000
4000
AAA0
5540
AAA0
4040
A0A0
4040
AAA0
5540
AAA0
ENDCHAR
STARTCHAR E317
ENCODING 58135
SWIDTH 668 0
DWIDTH 13 0
BBX 11 15 1 0
BITMAP
AAA0
5540
AAA0
4040
A0A0
5140
2A80
1500
2A80
5140
A0A0
4040
AAA0
5540
AAA0
ENDCHAR
STARTCHAR E318
ENCODING 58136
SWIDTH 668 0
DWIDTH 13 0
BBX 11 15 1 0
BITMAP
AAA0
5540
AAA0
4040
A0A0
4040
AAA0
5540
AAA0
0040
00A0
0140
AA80
5500
AA00
ENDCHAR
STARTCHAR E338
ENCODING 58168
SWIDTH 668 0
DWIDTH 13 0
BBX 11 15 1 0
BITMAP
AAA0
5540
AAA0
4040
A0A0
0040
0AA0
0540
0AA0
0400
0A00
0000
0A00
0400
0A00
ENDCHAR
STARTCHAR E339
ENCODING 58169
SWIDTH 668 0
DWIDTH 13 0
BBX 11 15 1 0
BITMAP
0A00
0400
0A00
0000
0A00
0400
AA00
5400
AA00
4000
A0A0
4040
AAA0
5540
AAA0
ENDCHAR
STARTCHAR E33C
ENCODING 58172
SWIDTH 0 0
DWIDTH 0 0
BBX 9 4 -9 16
BITMAP
A280
4100
FF80
2A00
ENDCHAR
STARTCHAR E33D
ENCODING 58173
SWIDTH 0 0
DWIDTH 0 0
BBX 9 10 -9 16
BITMAP
0280
0500
0A00
1400
2800
0000
A280
4100
FF80
2A00
ENDCHAR
STARTCHAR E33E
ENCODING 58174
SWIDTH 0 0
DWIDTH 0 0
BBX 10 10 -10 16
BITMAP
A000
4000
3000
0800
1400
0000
5140
2080
7FC0
1500
ENDCHAR
STARTCHAR E33F
ENCODING 58175
SWIDTH 0 0
DWIDTH 0 0
BBX 9 12 -9 16
BITMAP
5400
2A00
5500
0200
1500
0A00
1400
0000
A280
4100
FF80
2A00
ENDCHAR
STARTCHAR E340
ENCODING 58176
SWIDTH 0 0
DWIDTH 0 0
BBX 10 10 -10 16
BITMAP
2880
5440
AA80
4540
A280
0000
5140
2080
7FC0
1500
ENDCHAR
STARTCHAR E341
ENCODING 58177
SWIDTH 0 0
DWIDTH 0 0
BBX 7 10 -7 16
BITMAP
04
0A
14
28
50
00
28
54
EE
AA
ENDCHAR
STARTCHAR E342
ENCODING 58178
SWIDTH 0 0
DWIDTH 0 0
BBX 9 10 -9 16
BITMAP
A000
5000
2800
1400
0A00
0000
0A00
1500
3B80
2A80
ENDCHAR
STARTCHAR E343
ENCODING 58179
SWIDTH 0 0
DWIDTH 0 0
BBX 7 12 -7 16
BITMAP
A8
54
AA
04
2A
14
28
00
28
54
EE
AA
ENDCHAR
STARTCHAR E344
ENCODING 58180
SWIDTH 0 0
DWIDTH 0 0
BBX 10 10 -9 16
BITMAP
28C0
5400
AAC0
4500
A280
0000
0A00
1500
3B80
2A80
ENDCHAR
ENDFONT
